<svg width="40" height="40" viewBox="0 0 40 40" fill="none" xmlns="http://www.w3.org/2000/svg">
<rect width="40" height="40" rx="20" fill="white" fill-opacity="0.07"/>
<g clip-path="url(#clip0_208_542)">
<path fill-rule="evenodd" clip-rule="evenodd" d="M26.0228 11.8934L32.0304 16.5123L33.0152 19.7172L28.3865 19.6229L20.9016 16.3238L14.894 11.7049L13.9092 8.5H18.538L26.0228 11.8934Z" fill="url(#paint0_radial_208_542)"/>
<path fill-rule="evenodd" clip-rule="evenodd" d="M13.9091 8.5L8 10.4795L9.37879 14.9098L14.8939 11.7049L13.9091 8.5Z" fill="url(#paint1_radial_208_542)"/>
<path fill-rule="evenodd" clip-rule="evenodd" d="M14.8941 11.7051L9.37891 14.91L17.5532 21.2256L20.9016 16.3239L14.8941 11.7051Z" fill="url(#paint2_radial_208_542)"/>
<path fill-rule="evenodd" clip-rule="evenodd" d="M20.9012 16.3232L28.3861 19.6224L27.7952 25.7495L17.5527 21.2249L20.9012 16.3232Z" fill="url(#paint3_radial_208_542)"/>
<path fill-rule="evenodd" clip-rule="evenodd" d="M33.0146 19.7173L33.9995 25.7501H27.7949L28.3858 19.623L33.0146 19.7173Z" fill="url(#paint4_radial_208_542)"/>
<path fill-rule="evenodd" clip-rule="evenodd" d="M9.37891 14.9092L12.9244 31.4993L17.5531 21.2248L9.37891 14.9092Z" fill="url(#paint5_radial_208_542)"/>
<path fill-rule="evenodd" clip-rule="evenodd" d="M17.5526 21.2256L27.795 25.7502L12.9238 31.5002L17.5526 21.2256Z" fill="url(#paint6_radial_208_542)"/>
<path fill-rule="evenodd" clip-rule="evenodd" d="M33.9996 25.75L12.9238 31.5L27.795 25.75H33.9996Z" fill="url(#paint7_radial_208_542)"/>
<path fill-rule="evenodd" clip-rule="evenodd" d="M8 10.4795L12.9242 31.5L9.37879 14.9098L8 10.4795Z" fill="#85F2FF"/>
<path opacity="0.75" fill-rule="evenodd" clip-rule="evenodd" d="M10.2653 18.9625C10.1668 16.0403 11.4471 16.8887 12.8259 18.3026C17.0607 22.4502 15.6819 24.901 13.8107 29.6141C15.091 26.7862 16.2728 24.0526 17.5531 21.2248C14.7956 19.151 12.1365 16.983 9.37891 14.9092C9.67436 16.2289 9.96982 17.6428 10.2653 18.9625Z" fill="#9FDFFF"/>
<path opacity="0.5" fill-rule="evenodd" clip-rule="evenodd" d="M20.7041 22.6396C24.939 24.5249 23.1663 26.6929 19.6208 28.3896L12.9238 31.5003L27.795 25.656L20.7041 22.6396Z" fill="url(#paint8_radial_208_542)"/>
<path fill-rule="evenodd" clip-rule="evenodd" d="M14.8934 11.7044L14.007 8.78223C14.3025 10.2904 14.4995 10.856 14.1055 11.5158C13.6131 12.1757 12.4313 13.1183 11.5449 13.6839L14.8934 11.7044Z" fill="#8FFCFF"/>
<path fill-rule="evenodd" clip-rule="evenodd" d="M20.901 16.3239L14.8934 11.7051L11.5449 13.5903C13.2192 12.742 14.204 12.3649 14.8934 12.6477C15.5828 12.8362 16.3707 13.4018 17.651 14.3444C19.0298 15.3813 19.6207 16.3239 19.6207 16.8895C19.6207 17.5493 18.9313 18.869 18.0449 20.3772L20.901 16.3239Z" fill="white"/>
<path opacity="0.5" fill-rule="evenodd" clip-rule="evenodd" d="M20.902 16.3232L18.0459 20.3765C19.3262 18.5855 20.4095 17.7372 21.0989 17.6429C22.0838 17.4544 23.4626 17.7372 26.2201 18.6798L20.902 16.3232Z" fill="#8FFCFF"/>
</g>
<defs>
<radialGradient id="paint0_radial_208_542" cx="0" cy="0" r="1" gradientUnits="userSpaceOnUse" gradientTransform="translate(15.3587 11.971) scale(23.9621 22.9348)">
<stop stop-color="#C4EEFF"/>
<stop offset="0.329" stop-color="#4CCAFF"/>
<stop offset="1" stop-color="#003EB0"/>
</radialGradient>
<radialGradient id="paint1_radial_208_542" cx="0" cy="0" r="1" gradientUnits="userSpaceOnUse" gradientTransform="translate(7.34311 7.45605) scale(9.11064 8.72002)">
<stop stop-color="#A5E2FF"/>
<stop offset="1" stop-color="#218CF3"/>
</radialGradient>
<radialGradient id="paint2_radial_208_542" cx="0" cy="0" r="1" gradientUnits="userSpaceOnUse" gradientTransform="translate(15.0182 12.5291) scale(26.3452 25.2156)">
<stop stop-color="#A5E2FF"/>
<stop offset="1" stop-color="#0088FF"/>
</radialGradient>
<radialGradient id="paint3_radial_208_542" cx="0" cy="0" r="1" gradientUnits="userSpaceOnUse" gradientTransform="translate(19.2762 32.6453) scale(18.31 17.525)">
<stop stop-color="#A5E2FF"/>
<stop offset="1" stop-color="#0069C2"/>
</radialGradient>
<radialGradient id="paint4_radial_208_542" cx="0" cy="0" r="1" gradientUnits="userSpaceOnUse" gradientTransform="translate(35.2126 16.0111) scale(13.3022 12.7319)">
<stop stop-color="#4CCAFF"/>
<stop offset="1" stop-color="#003EB0"/>
</radialGradient>
<radialGradient id="paint5_radial_208_542" cx="0" cy="0" r="1" gradientUnits="userSpaceOnUse" gradientTransform="translate(7.35563 24.8103) scale(11.6206 11.1224)">
<stop stop-color="#A5E2FF"/>
<stop offset="1" stop-color="#218CF3"/>
</radialGradient>
<radialGradient id="paint6_radial_208_542" cx="0" cy="0" r="1" gradientUnits="userSpaceOnUse" gradientTransform="translate(16.1508 35.225) scale(21.3608 20.4449)">
<stop stop-color="#77D6FF"/>
<stop offset="1" stop-color="#001FB0"/>
</radialGradient>
<radialGradient id="paint7_radial_208_542" cx="0" cy="0" r="1" gradientUnits="userSpaceOnUse" gradientTransform="translate(13.299 32.2883) scale(19.3798 18.5488)">
<stop stop-color="#A5E2FF"/>
<stop offset="1" stop-color="#0081FF"/>
</radialGradient>
<radialGradient id="paint8_radial_208_542" cx="0" cy="0" r="1" gradientUnits="userSpaceOnUse" gradientTransform="translate(17.413 21.6302) scale(12.1581 11.6368)">
<stop offset="0.3123" stop-color="#00000D"/>
<stop offset="1" stop-color="#1CB4FF"/>
</radialGradient>
<clipPath id="clip0_208_542">
<rect width="26" height="23" fill="white" transform="translate(8 8.5)"/>
</clipPath>
</defs>
</svg>
