<svg width="40" height="40" viewBox="0 0 40 40" fill="none" xmlns="http://www.w3.org/2000/svg">
<rect width="40" height="40" rx="20" fill="white" fill-opacity="0.07"/>
<path d="M13.6609 31.9101C13.5762 31.8689 13.4927 31.8235 13.4105 31.7757C11.0488 30.4576 9.08155 28.4302 7.85312 25.8856C7.84821 25.8751 7.84207 25.8653 7.83962 25.8549C7.52423 25.2014 7.25976 24.5129 7.04746 23.7937C6.332 21.3509 6.33936 18.8676 6.94376 16.5745C6.94867 16.5524 6.95296 16.5347 6.95971 16.5126C7.41869 14.8043 8.20778 13.2039 9.27852 11.8037C9.36381 11.6895 9.45217 11.5772 9.54237 11.4668C11.2058 9.42283 13.4823 7.84522 16.2055 7.04629C17.1664 6.76525 18.1346 6.59589 19.0955 6.53269C19.2514 6.5198 19.4109 6.50999 19.568 6.50753C21.974 6.42653 24.3173 7.00149 26.3729 8.10355C26.4318 8.13239 26.4845 8.16368 26.5392 8.19559C28.761 9.42405 30.6368 11.2741 31.8793 13.593C31.9732 13.7623 32.0604 13.9372 32.1456 14.1102C32.4666 14.7742 32.7372 15.4749 32.9525 16.2051C33.3501 17.5692 33.5263 18.9486 33.4962 20.2992C33.4907 20.4655 33.4839 20.633 33.4747 20.8005C33.2728 24.1846 31.7941 27.365 29.3875 29.6986C29.2942 29.7894 29.1997 29.879 29.1028 29.9686C27.9192 31.0516 26.5238 31.9371 24.961 32.5519C24.764 32.6304 24.5683 32.7035 24.3633 32.771L24.3615 32.7716C24.1749 32.8354 23.9872 32.8949 23.7939 32.9532C20.2712 33.9841 16.6614 33.5128 13.6609 31.9101Z" fill="url(#paint0_linear_208_557)"/>
<path d="M9.45744 26.7502L9.45293 26.7483C9.40132 26.7359 8.66211 26.5624 7.92226 25.9286C7.91645 25.9181 7.91129 25.9082 7.90806 25.897C7.57652 25.2378 7.29786 24.5427 7.07532 23.8166C6.32321 21.3501 6.33095 18.8421 6.9676 16.5274C6.97212 16.5051 6.97663 16.4871 6.98308 16.4642C7.19981 16.3843 7.51459 16.2895 7.69327 16.3267C7.69585 16.3267 7.69585 16.3267 7.69585 16.3267C7.71197 16.331 7.72423 16.3347 7.73777 16.3397C7.73777 16.3397 7.79389 16.3955 7.88484 16.4871C7.88549 16.4896 7.88549 16.4896 7.88807 16.4915C8.13899 16.7486 8.65115 17.2666 9.0143 17.5962C9.02978 17.6098 9.04397 17.624 9.06203 17.6371C9.07687 17.6513 9.09171 17.6649 9.10654 17.6767C9.16718 17.7318 9.21878 17.7771 9.2678 17.8093C9.27038 17.8155 9.27748 17.8192 9.28328 17.8229C9.28586 17.8273 9.29038 17.831 9.2936 17.8335C9.2936 17.8353 9.29554 17.8335 9.29554 17.8353L10.1818 23.4368V23.4411L9.46647 26.7118L9.46712 26.7142L9.45744 26.7502Z" fill="url(#paint1_linear_208_557)"/>
<path opacity="0.3" d="M9.45744 26.7502L9.45293 26.7483C9.40132 26.7359 8.66211 26.5624 7.92226 25.9286C7.91645 25.9181 7.91129 25.9082 7.90806 25.897C7.57652 25.2378 7.29786 24.5427 7.07532 23.8166C6.32321 21.3501 6.33095 18.8421 6.9676 16.5274C6.97212 16.5051 6.97663 16.4871 6.98308 16.4642C7.19981 16.3843 7.51459 16.2895 7.69327 16.3267C7.69585 16.3267 7.69585 16.3267 7.69585 16.3267C7.71197 16.331 7.72423 16.3347 7.73777 16.3397C7.73777 16.3397 7.79389 16.3955 7.88484 16.4871C7.88549 16.4896 7.88549 16.4896 7.88807 16.4915C8.13899 16.7486 8.65115 17.2666 9.0143 17.5962C9.02978 17.6098 9.04397 17.624 9.06203 17.6371C9.07687 17.6513 9.09171 17.6649 9.10654 17.6767C9.16718 17.7318 9.21878 17.7771 9.2678 17.8093C9.27038 17.8155 9.27748 17.8192 9.28328 17.8229C9.28586 17.8273 9.29038 17.831 9.2936 17.8335C9.2936 17.8353 9.29554 17.8335 9.29554 17.8353L10.1818 23.4368V23.4411L9.46647 26.7118L9.46712 26.7142L9.45744 26.7502Z" fill="url(#paint2_linear_208_557)"/>
<path d="M13.4706 31.6588C13.3882 31.6165 13.3053 31.5699 13.223 31.522C10.8936 30.1859 8.95278 28.1324 7.74086 25.5542C7.73541 25.5436 7.73057 25.5337 7.72754 25.5225L9.17798 26.3767L9.18221 26.3786L9.19856 26.3941V26.3966L13.8526 30.4701C13.95 31.172 13.3786 31.4555 13.4706 31.6588Z" fill="url(#paint3_linear_208_557)"/>
<path opacity="0.2" d="M13.4706 31.6588C13.3882 31.6165 13.3053 31.5699 13.223 31.522C10.8936 30.1859 8.95278 28.1324 7.74086 25.5542C7.73541 25.5436 7.73057 25.5337 7.72754 25.5225L9.17798 26.3767L9.18221 26.3786L9.19856 26.3941V26.3966L13.8526 30.4701C13.95 31.172 13.3786 31.4555 13.4706 31.6588Z" fill="url(#paint4_linear_208_557)"/>
<path opacity="0.26" d="M13.4706 31.6588C13.3882 31.6165 13.3053 31.5699 13.223 31.522C10.8936 30.1859 8.95278 28.1324 7.74086 25.5542C7.73541 25.5436 7.73057 25.5337 7.72754 25.5225L9.17798 26.3767L9.18221 26.3786L9.19856 26.3941V26.3966L13.8526 30.4701C13.95 31.172 13.3786 31.4555 13.4706 31.6588Z" fill="url(#paint5_linear_208_557)"/>
<path d="M23.7326 32.9399C20.1746 33.9951 16.533 33.5149 13.5027 31.8766C13.4185 31.8353 13.3318 31.7876 13.25 31.7381C13.481 31.1393 13.8942 30.6785 13.8942 30.6785L16.3304 29.8184L21.9059 30.8234L24.9089 32.5312C24.7113 32.6102 24.5137 32.6854 24.308 32.7556L24.3055 32.7569C24.1166 32.8214 23.9265 32.8823 23.7326 32.9399Z" fill="url(#paint6_linear_208_557)"/>
<path d="M29.2051 29.8181L30.214 26.2729L32.7837 21.4405L33.5004 20C33.4956 20.1695 33.4885 20.3402 33.4801 20.5084C33.2827 23.9446 31.8365 27.1745 29.4846 29.5434C29.3928 29.6381 29.2999 29.7272 29.2051 29.8181Z" fill="url(#paint7_linear_208_557)"/>
<path d="M12.6441 10.7027L9.67591 11.3842L9.56836 11.4091C11.1967 9.38604 13.4277 7.82337 16.0931 7.03445C17.034 6.75569 17.9827 6.58806 18.9231 6.52429C19.0769 6.51154 19.2319 6.50364 19.3863 6.5L18.4418 7.46323L18.4412 7.46566L17.9809 7.93391L13.266 10.3815L13.233 10.3979L12.6441 10.7027Z" fill="url(#paint8_linear_208_557)"/>
<path d="M32.2726 13.8635L31.6156 13.5453L31.608 13.5413C31.5951 13.4646 31.5833 13.3901 31.5722 13.3105C31.5686 13.2925 31.3103 13.2225 31.3074 13.205L31.295 13.1367C31.295 13.1367 30.8177 11.4218 27.3442 9.29955C27.3442 9.29955 27.3395 9.29616 27.3277 9.2939C27.3225 9.29108 27.3148 9.28939 27.3084 9.28713C27.2673 9.2719 27.1951 9.24707 27.0993 9.21829L27.0964 9.21716L27.0811 9.2008L26.75 8.34082C26.8052 8.36678 26.8563 8.39499 26.9085 8.42434C29.0328 9.55348 30.8283 11.2554 32.0184 13.3889C32.1088 13.543 32.191 13.7033 32.2726 13.8635Z" fill="url(#paint9_linear_208_557)"/>
<path d="M18.427 7.11328C18.427 7.11328 15.0798 7.7195 13.222 9.71085C13.222 9.71085 12.4033 11.8513 12.7025 13.8395C12.7025 13.8395 15.5238 15.0389 16.6506 15.7041L22.3835 12.8792L23.0683 8.98226C23.0677 8.98226 22.133 7.59528 18.427 7.11328Z" fill="url(#paint10_linear_208_557)"/>
<path opacity="0.3" d="M18.427 7.11328C18.427 7.11328 15.0798 7.7195 13.222 9.71085C13.222 9.71085 12.4033 11.8513 12.7025 13.8395C12.7025 13.8395 15.5238 15.0389 16.6506 15.7041L22.3835 12.8792L23.0683 8.98226C23.0677 8.98226 22.133 7.59528 18.427 7.11328Z" fill="url(#paint11_linear_208_557)"/>
<path d="M9.02903 17.7915C9.02903 17.7915 8.58124 19.6136 9.88949 23.561C9.88949 23.561 11.7841 24.976 14.5875 25.5223L17.5458 22.1091C17.5458 22.1091 16.7123 18.6422 16.7405 15.7798C16.7405 15.7798 14.2739 14.204 12.8754 13.8639C12.8754 13.8639 12.3298 13.7911 11.0071 15.2788C9.68629 16.7659 9.0723 17.5119 9.02903 17.7915Z" fill="url(#paint12_linear_208_557)"/>
<path opacity="0.3" d="M9.02903 17.7915C9.02903 17.7915 8.58124 19.6136 9.88949 23.561C9.88949 23.561 11.7841 24.976 14.5875 25.5223L17.5458 22.1091C17.5458 22.1091 16.7123 18.6422 16.7405 15.7798C16.7405 15.7798 14.2739 14.204 12.8754 13.8639C12.8754 13.8639 12.3298 13.7911 11.0071 15.2788C9.68629 16.7659 9.0723 17.5119 9.02903 17.7915Z" fill="url(#paint13_linear_208_557)"/>
<path d="M22.192 30.9653C22.192 30.9653 19.5064 31.466 16.4235 29.9625C16.4235 29.9625 14.9236 27.5968 14.4775 25.2855C14.4775 25.2855 17.4015 22.0996 17.4765 21.8408C17.4765 21.8408 22.299 22.9311 22.9233 23.0149C23.5476 23.0987 24.0828 23.1831 24.1469 23.053L26.1364 27.1123C26.1377 27.1129 24.7443 29.4373 22.192 30.9653Z" fill="url(#paint14_linear_208_557)"/>
<path opacity="0.3" d="M22.192 30.9653C22.192 30.9653 19.5064 31.466 16.4235 29.9625C16.4235 29.9625 14.9236 27.5968 14.4775 25.2855C14.4775 25.2855 17.4015 22.0996 17.4765 21.8408C17.4765 21.8408 22.299 22.9311 22.9233 23.0149C23.5476 23.0987 24.0828 23.1831 24.1469 23.053L26.1364 27.1123C26.1377 27.1129 24.7443 29.4373 22.192 30.9653Z" fill="url(#paint15_linear_208_557)"/>
<path opacity="0.3" d="M22.192 30.9653C22.192 30.9653 19.5064 31.466 16.4235 29.9625C16.4235 29.9625 14.9236 27.5968 14.4775 25.2855C14.4775 25.2855 17.4015 22.0996 17.4765 21.8408C17.4765 21.8408 22.299 22.9311 22.9233 23.0149C23.5476 23.0987 24.0828 23.1831 24.1469 23.053L26.1364 27.1123C26.1377 27.1129 24.7443 29.4373 22.192 30.9653Z" fill="url(#paint16_linear_208_557)"/>
<path d="M31.41 13.3389C31.41 13.3389 30.9095 11.5212 27.2672 9.269C27.2672 9.269 25.3143 8.47357 23.1132 9.41504L22.4551 13.1702L26.7752 17.5459C26.7752 17.5459 27.913 17.3598 28.6967 17.3143C29.4811 17.2694 31.2598 17.1288 31.503 17.4286C31.503 17.4286 31.9032 16.1167 31.4235 13.4114" fill="url(#paint17_linear_208_557)"/>
<path opacity="0.1" d="M31.41 13.3389C31.41 13.3389 30.9095 11.5212 27.2672 9.269C27.2672 9.269 25.3143 8.47357 23.1132 9.41504L22.4551 13.1702L26.7752 17.5459C26.7752 17.5459 27.913 17.3598 28.6967 17.3143C29.4811 17.2694 31.2598 17.1288 31.503 17.4286C31.503 17.4286 31.9032 16.1167 31.4235 13.4114" fill="url(#paint18_linear_208_557)"/>
<path opacity="0.05" d="M31.41 13.3389C31.41 13.3389 30.9095 11.5212 27.2672 9.269C27.2672 9.269 25.3143 8.47357 23.1132 9.41504L22.4551 13.1702L26.7752 17.5459C26.7752 17.5459 27.913 17.3598 28.6967 17.3143C29.4811 17.2694 31.2598 17.1288 31.503 17.4286C31.503 17.4286 31.9032 16.1167 31.4235 13.4114" fill="url(#paint19_linear_208_557)"/>
<path d="M24.3431 32.8854L24.3405 32.8867C22.7805 32.3248 21.8205 30.965 21.8411 30.8577C21.8411 30.8577 25.0857 28.292 25.7386 26.8143L25.8109 26.8051L30.4096 26.1367C30.5386 27.3709 30.076 28.661 29.6251 29.5906C29.5257 29.69 29.4257 29.7847 29.3238 29.8801C28.0799 31.0413 26.6134 31.9906 24.9683 32.6498C24.7631 32.7334 24.5567 32.8117 24.3431 32.8854Z" fill="url(#paint20_linear_208_557)"/>
<path d="M23.6816 31.7816C23.9655 31.9711 24.2922 32.147 24.6595 32.273L24.6613 32.2724C24.8464 32.2117 25.025 32.1464 25.2037 32.0777C26.6275 31.5319 27.8974 30.7461 28.974 29.7856C29.0622 29.7066 29.1491 29.6287 29.2343 29.5462C29.4606 29.1012 29.6863 28.5554 29.8179 27.9775C27.945 29.4695 25.8877 30.7524 23.6816 31.7816Z" fill="url(#paint21_radial_208_557)"/>
<path d="M10.2252 23.0684C10.2252 23.0684 9.75865 24.2217 9.61625 25.341C9.57168 25.6899 9.55316 25.9576 9.58268 26.2849C9.62494 26.7391 10.4915 27.8206 11.4049 28.682C12.7305 29.9339 13.7475 30.4477 14.1012 30.4316C14.7941 30.4012 16.3182 29.6092 16.3182 29.6092C16.3182 29.6092 14.9817 27.1872 14.5608 24.9728C14.5614 24.9728 13.6028 24.9059 10.2252 23.0684Z" fill="url(#paint22_linear_208_557)"/>
<path d="M12.7734 14.0055C12.7734 14.0055 12.4058 14.0723 11.7299 14.6539C10.9437 15.3304 9.29012 17.2058 9.17151 17.5452C9.17151 17.5452 8.09577 16.634 7.86148 16.2549C7.62895 15.8758 7.6906 14.9657 8.11397 13.9653C8.53851 12.9648 9.38936 11.2896 10.7053 10.8075C12.0206 10.3249 13.2502 10.1816 13.2502 10.1816C13.2502 10.1816 12.5256 12.6858 12.7734 14.0055Z" fill="url(#paint23_linear_208_557)"/>
<path opacity="0.98" d="M12.6366 10.1816C12.1495 10.277 11.464 10.4401 10.7509 10.7029C9.41546 11.194 8.55084 12.9 8.12073 13.9191C7.68998 14.9389 7.62675 15.8651 7.86466 16.251C7.96671 16.4165 8.22591 16.6824 8.48886 16.9316C9.39793 14.425 10.8204 12.1282 12.6366 10.1816Z" fill="url(#paint24_radial_208_557)"/>
<path d="M27.3632 8.82316C27.3632 8.82316 27.3583 8.81993 27.346 8.81778C27.346 8.81778 27.346 8.81778 27.3454 8.81617C27.3092 8.80163 27.2208 8.76717 27.0882 8.72841C26.8279 8.65411 26.395 8.56097 25.8296 8.54913C25.8112 8.54805 25.7928 8.54698 25.7731 8.54805C25.635 8.54428 25.4889 8.54805 25.3372 8.55774C24.2328 8.62504 23.4316 8.88185 23.2566 8.94107C23.2443 8.9443 23.2327 8.94915 23.2204 8.95453C22.9896 8.64927 21.3817 7.80078 18.7725 7.33509C18.9173 7.0309 19.2102 6.73964 19.4607 6.52806C19.6178 6.51675 19.7762 6.50975 19.934 6.50652C22.3412 6.43599 24.6846 6.93992 26.7425 7.90792C26.8002 7.93269 26.8536 7.9596 26.9083 7.9876C27.273 8.41777 27.3632 8.82316 27.3632 8.82316Z" fill="url(#paint25_linear_208_557)"/>
<path opacity="0.3" d="M24.5434 8.72683C24.682 8.70582 24.8273 8.68753 24.9825 8.67533C25.1143 8.66516 25.2418 8.65974 25.3626 8.66381C25.3798 8.66245 25.3963 8.66381 25.4117 8.66516C25.9059 8.67601 26.2829 8.77495 26.5098 8.85423C26.6269 8.89489 26.7029 8.93217 26.7348 8.94708C26.7348 8.94911 26.7348 8.94911 26.7348 8.94911C26.7459 8.9525 26.7502 8.95453 26.7502 8.95453C26.7502 8.95453 26.6723 8.52082 26.3541 8.06C26.3069 8.03018 26.2603 8.00172 26.21 7.97529C24.6906 7.10042 22.9897 6.5881 21.2275 6.5C22.3324 7.24273 23.4379 7.98478 24.5434 8.72683Z" fill="url(#paint26_radial_208_557)"/>
<path d="M32.9237 21.8409L31.6582 17.4523L31.6999 17.3209C31.8682 16.8321 31.9276 16.3026 31.9703 15.7992C31.9731 15.7586 31.9751 15.7186 31.9775 15.6735C32.035 14.8368 31.9588 14.1169 31.8509 13.2923C31.9089 13.1793 32.1006 13.3152 32.2329 13.437C32.3072 13.6123 32.3744 13.7925 32.441 13.9728C32.6922 14.6591 32.9031 15.3821 33.0699 16.1376C33.3824 17.5501 33.52 18.9765 33.4965 20.3738C33.4927 20.5464 33.4869 20.7204 33.4802 20.8918C33.1365 21.7044 32.9237 21.8409 32.9237 21.8409Z" fill="url(#paint27_linear_208_557)"/>
<path d="M31.662 13.345L31.6739 13.415C31.6774 13.4331 31.6804 13.4506 31.684 13.4687C31.6946 13.5303 31.7101 13.6118 31.7249 13.7078C31.7919 14.1178 31.8762 14.8139 31.8139 15.5722C31.8115 15.6127 31.8103 15.6495 31.8062 15.6857C31.8038 15.7099 31.7996 15.7352 31.7967 15.7594C32.5014 16.7411 32.8976 17.7101 33.4991 18.7727C33.4409 17.8508 33.2879 16.9204 33.0299 15.9954C32.8377 15.3108 32.5969 14.6551 32.3104 14.0332C32.2344 13.8696 32.1579 13.706 32.0737 13.5466C31.7243 13.2182 31.6377 13.1807 31.662 13.345Z" fill="url(#paint28_radial_208_557)"/>
<path d="M26.5295 17.8791C26.5295 17.8791 28.6129 17.6381 29.623 17.5609C30.2642 17.512 30.955 17.582 31.2227 17.6834C32.1208 18.5601 32.9439 21.818 32.8828 21.9835C32.9237 22.6331 32.1604 23.6088 31.8304 24.2657C31.4998 24.9232 30.6849 26.1434 30.1873 26.7104C30.1873 26.7104 28.9221 27.2067 27.2601 27.316C25.5987 27.4246 25.5364 27.3111 25.5364 27.3111C25.5364 27.3111 24.0551 23.8721 23.6816 23.2357L26.5295 17.8791Z" fill="url(#paint29_linear_208_557)"/>
<path d="M17.1618 19.1923C17.3413 20.2525 17.4988 21.1062 17.5687 21.5494C17.6386 21.9939 17.6557 22.0502 18.8545 22.2485C20.052 22.4462 23.327 23.0799 23.7591 23.0679C24.1507 23.0566 24.0006 23.1578 24.7182 21.9142C25.3237 20.8629 26.2105 19.0281 26.4771 18.4411C26.7443 17.8547 26.933 17.4287 26.4593 16.8531C25.9862 16.2774 25.1454 15.2657 24.1826 14.4282C23.2192 13.5902 22.5487 13.1487 22.1265 13.2697C21.7036 13.3907 19.903 14.1377 18.4923 14.8673C17.0809 15.5957 16.9491 15.7886 16.9362 16.3793C16.924 16.9717 16.9185 17.7462 17.1618 19.1923Z" fill="url(#paint30_linear_208_557)"/>
<path d="M26.627 17.8541C26.3597 18.4486 25.4732 20.3086 24.8675 21.3749C24.1496 22.6361 24.2998 22.5329 23.9081 22.5444C23.4758 22.5566 20.1996 21.9135 19.0017 21.7137C17.8025 21.5127 17.7854 21.4551 17.7155 21.0051C17.6456 20.5557 17.4886 19.6904 17.3084 18.6156C17.065 17.1503 17.0705 16.3645 17.0828 15.7652C17.0834 15.7433 17.0858 15.7257 17.0865 15.7051C16.97 15.8757 16.9412 16.0506 16.9363 16.2892C16.924 16.8886 16.9185 17.6744 17.1619 19.1396C17.3415 20.2145 17.499 21.0798 17.5689 21.5291C17.6388 21.9797 17.656 22.0368 18.8552 22.2378C20.0531 22.4382 23.3293 23.0806 23.7615 23.0685C24.1533 23.057 24.0031 23.1596 24.721 21.8989C25.3267 20.8332 26.2132 18.9733 26.4805 18.3782C26.6141 18.0806 26.7282 17.8244 26.7496 17.5693C26.7122 17.661 26.6718 17.7551 26.627 17.8541Z" fill="#194E94"/>
<path d="M12.6367 14.4775C12.6367 14.4775 15.8919 15.9362 16.1309 16.1992C16.3692 16.4616 16.2349 16.7595 16.3915 18.2572C16.5482 19.7543 16.8833 21.6627 16.9286 21.8008C16.9728 21.9395 16.5869 21.8466 16.1369 19.422C15.9597 18.4652 16.0407 16.7779 15.4565 16.3768C14.8722 15.9752 12.8309 14.8127 12.6367 14.4775Z" fill="url(#paint31_radial_208_557)"/>
<path opacity="0.7" d="M17.5676 22.4551C17.9196 22.4613 21.52 23.1766 22.5089 23.368C23.4984 23.5587 23.5644 23.4798 24.001 24.251C24.3287 24.8296 25.5005 27.1189 25.521 27.3178C25.5409 27.516 25.2722 27.104 24.4413 25.5871C23.4705 23.8117 23.3902 24.0416 23.083 23.9509C22.6408 23.8185 18.5701 22.9957 17.9899 22.7646C17.4108 22.5321 17.5601 22.5794 17.5676 22.4551Z" fill="url(#paint32_radial_208_557)"/>
<path d="M18.159 7.11328C18.159 7.11328 15.8577 7.85971 14.5803 8.62581C13.3023 9.39364 13.25 9.56781 13.25 9.56781C13.25 9.56781 13.3642 9.13326 15.0952 8.15307C16.8269 7.17288 17.8435 7.12659 18.159 7.11328Z" fill="url(#paint33_radial_208_557)"/>
<path opacity="0.3" d="M16.3182 29.8176C16.3182 29.8176 15.5361 29.0061 14.9503 27.529C14.3633 26.0513 14.6723 26.0753 13.7503 25.6471C12.8289 25.2182 11.6359 24.4721 11.4092 24.2949C11.4092 24.2949 13.3868 25.232 13.87 25.3185C14.3525 25.405 14.4361 25.4104 14.5799 25.7143C14.7224 26.0177 15.3651 28.1639 16.3182 29.8176Z" fill="url(#paint34_linear_208_557)"/>
<path d="M26.7499 8.81993C26.7499 8.81993 25.4864 8.43906 24.2632 8.70923C23.04 8.9794 23.1512 9.02378 22.972 8.85651C22.7928 8.68826 21.3988 8.02258 20 7.72754C20 7.72754 20.5833 7.79825 21.3994 7.97918C22.2155 8.1606 22.889 8.72386 23.334 8.67705C23.7779 8.63023 25.6806 8.29519 26.7499 8.81993Z" fill="url(#paint35_radial_208_557)"/>
<path opacity="0.5" d="M23.0667 32.2712C22.8138 32.0334 22.4695 31.7114 22.2153 31.3364C21.9591 30.9615 22.0358 31.0913 21.1191 31.1414C20.203 31.1921 18.1203 30.6424 17.7539 30.4923C17.3868 30.3422 17.5687 30.5032 17.802 30.625C18.036 30.7476 19.5037 31.2276 20.2429 31.3263C21.3625 31.4749 21.7322 31.3488 21.9858 31.5953C22.2394 31.8441 23.0978 32.3002 23.0667 32.2712Z" fill="url(#paint36_radial_208_557)"/>
<path opacity="0.7" d="M26.3384 31.9102C26.423 31.8692 26.507 31.8238 26.5891 31.7754C28.9509 30.4572 30.9182 28.4305 32.1463 25.8854C32.1512 25.875 32.1573 25.8652 32.1598 25.8548C32.4754 25.2015 32.7395 24.5133 32.9516 23.7932C33.6667 21.3504 33.66 18.8672 33.0551 16.5746C33.0502 16.5525 33.0459 16.5348 33.0392 16.5127C32.5802 14.8047 31.7915 13.204 30.7208 11.8043C30.6356 11.6897 30.5468 11.5775 30.4567 11.4672C28.7934 9.42339 26.5168 7.84595 23.7939 7.04681C22.833 6.76552 21.8647 6.59638 20.9038 6.53325C20.7475 6.52038 20.5882 6.51058 20.4313 6.50751C18.0253 6.42662 15.6818 7.00146 13.6263 8.10396C13.5675 8.13276 13.5148 8.16401 13.4603 8.19588C11.2387 9.42401 9.36282 11.2742 8.11999 13.5931C8.02622 13.7623 7.93859 13.9376 7.8534 14.1104C7.53228 14.7741 7.26201 15.4745 7.04691 16.2051C6.64918 17.5692 6.47329 18.9481 6.50271 20.2988C6.50822 20.4655 6.51497 20.6328 6.52416 20.8001C6.72578 24.1842 8.20456 27.3648 10.6112 29.6979C10.7043 29.7886 10.7987 29.8781 10.8961 29.9681C12.0795 31.051 13.4756 31.9366 15.0383 32.5513C15.2356 32.6297 15.4311 32.7026 15.6364 32.7706L15.6383 32.7713C15.8246 32.835 16.0127 32.8944 16.2058 32.9527C19.7277 33.9841 23.3374 33.5134 26.3384 31.9102Z" fill="url(#paint37_radial_208_557)"/>
<path d="M23.681 8.84846C10.0873 2.69434 2.30368 23.7192 11.4731 27.363C12.89 20.3822 16.9246 12.9673 23.681 8.84846Z" fill="url(#paint38_linear_208_557)"/>
<path opacity="0.49" d="M33.4998 21.2275C33.4998 21.2275 33.2863 21.7456 33.0734 21.9765C33.0734 21.9765 32.7937 22.9838 32.0191 24.3322C31.2431 25.6807 30.4316 26.7502 30.4316 26.7502C30.4316 26.7502 31.054 26.1885 31.6139 25.3511C32.1739 24.5137 32.9729 23.1633 33.2089 22.1143C33.2089 22.1143 33.4554 21.6886 33.4998 21.2275Z" fill="url(#paint39_linear_208_557)"/>
<path d="M26.7502 18.0958C26.728 17.8543 28.261 17.5899 29.3667 17.5566C30.4723 17.5233 31.0588 17.5311 31.3391 18.0038C31.62 18.4758 31.659 18.7722 31.659 18.7722C31.659 18.7722 31.5678 18.6253 31.1416 18.1546C30.716 17.6832 29.8877 17.7596 28.7286 17.7981C27.9201 17.8249 26.7652 18.2571 26.7502 18.0958Z" fill="url(#paint40_linear_208_557)"/>
<defs>
<linearGradient id="paint0_linear_208_557" x1="12.1744" y1="30.635" x2="27.7139" y2="9.51677" gradientUnits="userSpaceOnUse">
<stop stop-color="#595A59"/>
<stop offset="0.0248" stop-color="#636463"/>
<stop offset="0.1614" stop-color="#959695"/>
<stop offset="0.2903" stop-color="#BCBDBC"/>
<stop offset="0.4079" stop-color="#D8DAD9"/>
<stop offset="0.5102" stop-color="#E9EBEA"/>
<stop offset="0.586" stop-color="#EFF1F0"/>
<stop offset="1" stop-color="white"/>
</linearGradient>
<linearGradient id="paint1_linear_208_557" x1="1.79008" y1="23.4096" x2="40.7929" y2="11.518" gradientUnits="userSpaceOnUse">
<stop stop-color="#595A59"/>
<stop offset="0.0248" stop-color="#636463"/>
<stop offset="0.1614" stop-color="#959695"/>
<stop offset="0.2903" stop-color="#BCBDBC"/>
<stop offset="0.4079" stop-color="#D8DAD9"/>
<stop offset="0.5102" stop-color="#E9EBEA"/>
<stop offset="0.586" stop-color="#EFF1F0"/>
<stop offset="1" stop-color="white"/>
</linearGradient>
<linearGradient id="paint2_linear_208_557" x1="10.5866" y1="16.8502" x2="6.52492" y2="25.6993" gradientUnits="userSpaceOnUse">
<stop/>
<stop offset="0.0082" stop-color="#303030"/>
<stop offset="0.0168" stop-color="#5B5B5B"/>
<stop offset="0.0264" stop-color="#838383"/>
<stop offset="0.0367" stop-color="#A4A4A4"/>
<stop offset="0.048" stop-color="#C1C1C1"/>
<stop offset="0.0606" stop-color="#D8D8D8"/>
<stop offset="0.075" stop-color="#E9E9E9"/>
<stop offset="0.0924" stop-color="#F6F6F6"/>
<stop offset="0.116" stop-color="#FDFDFD"/>
<stop offset="0.172" stop-color="white"/>
<stop offset="0.8656" stop-color="white"/>
<stop offset="0.8963" stop-color="#FCFCFC"/>
<stop offset="0.9146" stop-color="#F4F4F4"/>
<stop offset="0.9297" stop-color="#E6E6E6"/>
<stop offset="0.943" stop-color="#D2D2D2"/>
<stop offset="0.9551" stop-color="#B7B7B7"/>
<stop offset="0.9665" stop-color="#979797"/>
<stop offset="0.9771" stop-color="#717171"/>
<stop offset="0.9873" stop-color="#444444"/>
<stop offset="0.9967" stop-color="#131313"/>
<stop offset="1"/>
</linearGradient>
<linearGradient id="paint3_linear_208_557" x1="9.92874" y1="29.3055" x2="23.3746" y2="15.708" gradientUnits="userSpaceOnUse">
<stop stop-color="#595A59"/>
<stop offset="0.0248" stop-color="#636463"/>
<stop offset="0.1614" stop-color="#959695"/>
<stop offset="0.2903" stop-color="#BCBDBC"/>
<stop offset="0.4079" stop-color="#D8DAD9"/>
<stop offset="0.5102" stop-color="#E9EBEA"/>
<stop offset="0.586" stop-color="#EFF1F0"/>
<stop offset="1" stop-color="white"/>
</linearGradient>
<linearGradient id="paint4_linear_208_557" x1="11.2866" y1="27.3432" x2="6.79066" y2="35.0744" gradientUnits="userSpaceOnUse">
<stop/>
<stop offset="0.0082" stop-color="#303030"/>
<stop offset="0.0168" stop-color="#5B5B5B"/>
<stop offset="0.0264" stop-color="#838383"/>
<stop offset="0.0367" stop-color="#A4A4A4"/>
<stop offset="0.048" stop-color="#C1C1C1"/>
<stop offset="0.0606" stop-color="#D8D8D8"/>
<stop offset="0.075" stop-color="#E9E9E9"/>
<stop offset="0.0924" stop-color="#F6F6F6"/>
<stop offset="0.116" stop-color="#FDFDFD"/>
<stop offset="0.172" stop-color="white"/>
<stop offset="0.8656" stop-color="white"/>
<stop offset="0.8963" stop-color="#FCFCFC"/>
<stop offset="0.9146" stop-color="#F4F4F4"/>
<stop offset="0.9297" stop-color="#E6E6E6"/>
<stop offset="0.943" stop-color="#D2D2D2"/>
<stop offset="0.9551" stop-color="#B7B7B7"/>
<stop offset="0.9665" stop-color="#979797"/>
<stop offset="0.9771" stop-color="#717171"/>
<stop offset="0.9873" stop-color="#444444"/>
<stop offset="0.9967" stop-color="#131313"/>
<stop offset="1"/>
</linearGradient>
<linearGradient id="paint5_linear_208_557" x1="13.8368" y1="31.2649" x2="6.31733" y2="25.3474" gradientUnits="userSpaceOnUse">
<stop/>
<stop offset="0.0111" stop-color="#303030"/>
<stop offset="0.0228" stop-color="#5B5B5B"/>
<stop offset="0.0357" stop-color="#838383"/>
<stop offset="0.0498" stop-color="#A4A4A4"/>
<stop offset="0.065" stop-color="#C1C1C1"/>
<stop offset="0.0821" stop-color="#D8D8D8"/>
<stop offset="0.1017" stop-color="#E9E9E9"/>
<stop offset="0.1253" stop-color="#F6F6F6"/>
<stop offset="0.1572" stop-color="#FDFDFD"/>
<stop offset="0.2333" stop-color="white"/>
<stop offset="0.8248" stop-color="white"/>
<stop offset="0.8648" stop-color="#FCFCFC"/>
<stop offset="0.8886" stop-color="#F4F4F4"/>
<stop offset="0.9083" stop-color="#E6E6E6"/>
<stop offset="0.9257" stop-color="#D2D2D2"/>
<stop offset="0.9415" stop-color="#B7B7B7"/>
<stop offset="0.9563" stop-color="#979797"/>
<stop offset="0.9702" stop-color="#717171"/>
<stop offset="0.9834" stop-color="#444444"/>
<stop offset="0.9956" stop-color="#131313"/>
<stop offset="1"/>
</linearGradient>
<linearGradient id="paint6_linear_208_557" x1="18.8504" y1="34.0886" x2="20.1191" y2="23.5385" gradientUnits="userSpaceOnUse">
<stop stop-color="#595A59"/>
<stop offset="0.0248" stop-color="#636463"/>
<stop offset="0.1614" stop-color="#959695"/>
<stop offset="0.2903" stop-color="#BCBDBC"/>
<stop offset="0.4079" stop-color="#D8DAD9"/>
<stop offset="0.5102" stop-color="#E9EBEA"/>
<stop offset="0.586" stop-color="#EFF1F0"/>
<stop offset="1" stop-color="white"/>
</linearGradient>
<linearGradient id="paint7_linear_208_557" x1="27.5281" y1="32.8988" x2="33.7323" y2="22.0253" gradientUnits="userSpaceOnUse">
<stop stop-color="#595A59"/>
<stop offset="0.0248" stop-color="#636463"/>
<stop offset="0.1614" stop-color="#959695"/>
<stop offset="0.2903" stop-color="#BCBDBC"/>
<stop offset="0.4079" stop-color="#D8DAD9"/>
<stop offset="0.5102" stop-color="#E9EBEA"/>
<stop offset="0.586" stop-color="#EFF1F0"/>
<stop offset="1" stop-color="white"/>
</linearGradient>
<linearGradient id="paint8_linear_208_557" x1="2.23887" y1="14.5062" x2="22.8793" y2="4.97389" gradientUnits="userSpaceOnUse">
<stop stop-color="#595A59"/>
<stop offset="0.0248" stop-color="#636463"/>
<stop offset="0.1614" stop-color="#959695"/>
<stop offset="0.2903" stop-color="#BCBDBC"/>
<stop offset="0.4079" stop-color="#D8DAD9"/>
<stop offset="0.5102" stop-color="#E9EBEA"/>
<stop offset="0.586" stop-color="#EFF1F0"/>
<stop offset="1" stop-color="white"/>
</linearGradient>
<linearGradient id="paint9_linear_208_557" x1="33.9291" y1="8.44897" x2="29.3191" y2="11.4453" gradientUnits="userSpaceOnUse">
<stop stop-color="#595A59"/>
<stop offset="0.0248" stop-color="#636463"/>
<stop offset="0.1614" stop-color="#959695"/>
<stop offset="0.2903" stop-color="#BCBDBC"/>
<stop offset="0.4079" stop-color="#D8DAD9"/>
<stop offset="0.5102" stop-color="#E9EBEA"/>
<stop offset="0.586" stop-color="#EFF1F0"/>
<stop offset="1" stop-color="white"/>
</linearGradient>
<linearGradient id="paint10_linear_208_557" x1="10.1393" y1="16.352" x2="20.7292" y2="8.77699" gradientUnits="userSpaceOnUse">
<stop stop-color="#595A59"/>
<stop offset="0.0248" stop-color="#636463"/>
<stop offset="0.1614" stop-color="#959695"/>
<stop offset="0.2903" stop-color="#BCBDBC"/>
<stop offset="0.4079" stop-color="#D8DAD9"/>
<stop offset="0.5102" stop-color="#E9EBEA"/>
<stop offset="0.586" stop-color="#EFF1F0"/>
<stop offset="1" stop-color="white"/>
</linearGradient>
<linearGradient id="paint11_linear_208_557" x1="19.7342" y1="6.70169" x2="16.254" y2="15.5051" gradientUnits="userSpaceOnUse">
<stop/>
<stop offset="0.0082" stop-color="#303030"/>
<stop offset="0.0168" stop-color="#5B5B5B"/>
<stop offset="0.0264" stop-color="#838383"/>
<stop offset="0.0367" stop-color="#A4A4A4"/>
<stop offset="0.048" stop-color="#C1C1C1"/>
<stop offset="0.0606" stop-color="#D8D8D8"/>
<stop offset="0.075" stop-color="#E9E9E9"/>
<stop offset="0.0924" stop-color="#F6F6F6"/>
<stop offset="0.116" stop-color="#FDFDFD"/>
<stop offset="0.172" stop-color="white"/>
<stop offset="0.8656" stop-color="white"/>
<stop offset="0.8963" stop-color="#FCFCFC"/>
<stop offset="0.9146" stop-color="#F4F4F4"/>
<stop offset="0.9297" stop-color="#E6E6E6"/>
<stop offset="0.943" stop-color="#D2D2D2"/>
<stop offset="0.9551" stop-color="#B7B7B7"/>
<stop offset="0.9665" stop-color="#979797"/>
<stop offset="0.9771" stop-color="#717171"/>
<stop offset="0.9873" stop-color="#444444"/>
<stop offset="0.9967" stop-color="#131313"/>
<stop offset="1"/>
</linearGradient>
<linearGradient id="paint12_linear_208_557" x1="8.93068" y1="23.8579" x2="26.8492" y2="8.20471" gradientUnits="userSpaceOnUse">
<stop stop-color="#595A59"/>
<stop offset="0.0248" stop-color="#636463"/>
<stop offset="0.1614" stop-color="#959695"/>
<stop offset="0.2903" stop-color="#BCBDBC"/>
<stop offset="0.4079" stop-color="#D8DAD9"/>
<stop offset="0.5102" stop-color="#E9EBEA"/>
<stop offset="0.586" stop-color="#EFF1F0"/>
<stop offset="1" stop-color="white"/>
</linearGradient>
<linearGradient id="paint13_linear_208_557" x1="16.6957" y1="23.3666" x2="10.0112" y2="16.3084" gradientUnits="userSpaceOnUse">
<stop/>
<stop offset="0.0082" stop-color="#303030"/>
<stop offset="0.0168" stop-color="#5B5B5B"/>
<stop offset="0.0264" stop-color="#838383"/>
<stop offset="0.0367" stop-color="#A4A4A4"/>
<stop offset="0.048" stop-color="#C1C1C1"/>
<stop offset="0.0606" stop-color="#D8D8D8"/>
<stop offset="0.075" stop-color="#E9E9E9"/>
<stop offset="0.0924" stop-color="#F6F6F6"/>
<stop offset="0.116" stop-color="#FDFDFD"/>
<stop offset="0.172" stop-color="white"/>
<stop offset="0.8656" stop-color="white"/>
<stop offset="0.8963" stop-color="#FCFCFC"/>
<stop offset="0.9146" stop-color="#F4F4F4"/>
<stop offset="0.9297" stop-color="#E6E6E6"/>
<stop offset="0.943" stop-color="#D2D2D2"/>
<stop offset="0.9551" stop-color="#B7B7B7"/>
<stop offset="0.9665" stop-color="#979797"/>
<stop offset="0.9771" stop-color="#717171"/>
<stop offset="0.9873" stop-color="#444444"/>
<stop offset="0.9967" stop-color="#131313"/>
<stop offset="1"/>
</linearGradient>
<linearGradient id="paint14_linear_208_557" x1="15.2095" y1="29.59" x2="39.3563" y2="12.1702" gradientUnits="userSpaceOnUse">
<stop stop-color="#595A59"/>
<stop offset="0.0248" stop-color="#636463"/>
<stop offset="0.1614" stop-color="#959695"/>
<stop offset="0.2903" stop-color="#BCBDBC"/>
<stop offset="0.4079" stop-color="#D8DAD9"/>
<stop offset="0.5102" stop-color="#E9EBEA"/>
<stop offset="0.586" stop-color="#EFF1F0"/>
<stop offset="1" stop-color="white"/>
</linearGradient>
<linearGradient id="paint15_linear_208_557" x1="25.173" y1="24.5948" x2="15.379" y2="28.0821" gradientUnits="userSpaceOnUse">
<stop/>
<stop offset="0.0082" stop-color="#303030"/>
<stop offset="0.0168" stop-color="#5B5B5B"/>
<stop offset="0.0264" stop-color="#838383"/>
<stop offset="0.0367" stop-color="#A4A4A4"/>
<stop offset="0.048" stop-color="#C1C1C1"/>
<stop offset="0.0606" stop-color="#D8D8D8"/>
<stop offset="0.075" stop-color="#E9E9E9"/>
<stop offset="0.0924" stop-color="#F6F6F6"/>
<stop offset="0.116" stop-color="#FDFDFD"/>
<stop offset="0.172" stop-color="white"/>
<stop offset="0.8656" stop-color="white"/>
<stop offset="0.8963" stop-color="#FCFCFC"/>
<stop offset="0.9146" stop-color="#F4F4F4"/>
<stop offset="0.9297" stop-color="#E6E6E6"/>
<stop offset="0.943" stop-color="#D2D2D2"/>
<stop offset="0.9551" stop-color="#B7B7B7"/>
<stop offset="0.9665" stop-color="#979797"/>
<stop offset="0.9771" stop-color="#717171"/>
<stop offset="0.9873" stop-color="#444444"/>
<stop offset="0.9967" stop-color="#131313"/>
<stop offset="1"/>
</linearGradient>
<linearGradient id="paint16_linear_208_557" x1="21.278" y1="21.9745" x2="19.3013" y2="31.023" gradientUnits="userSpaceOnUse">
<stop/>
<stop offset="0.0082" stop-color="#303030"/>
<stop offset="0.0168" stop-color="#5B5B5B"/>
<stop offset="0.0264" stop-color="#838383"/>
<stop offset="0.0367" stop-color="#A4A4A4"/>
<stop offset="0.048" stop-color="#C1C1C1"/>
<stop offset="0.0606" stop-color="#D8D8D8"/>
<stop offset="0.075" stop-color="#E9E9E9"/>
<stop offset="0.0924" stop-color="#F6F6F6"/>
<stop offset="0.116" stop-color="#FDFDFD"/>
<stop offset="0.172" stop-color="white"/>
<stop offset="0.8656" stop-color="white"/>
<stop offset="0.8963" stop-color="#FCFCFC"/>
<stop offset="0.9146" stop-color="#F4F4F4"/>
<stop offset="0.9297" stop-color="#E6E6E6"/>
<stop offset="0.943" stop-color="#D2D2D2"/>
<stop offset="0.9551" stop-color="#B7B7B7"/>
<stop offset="0.9665" stop-color="#979797"/>
<stop offset="0.9771" stop-color="#717171"/>
<stop offset="0.9873" stop-color="#444444"/>
<stop offset="0.9967" stop-color="#131313"/>
<stop offset="1"/>
</linearGradient>
<linearGradient id="paint17_linear_208_557" x1="1.88394" y1="32.4802" x2="32.136" y2="8.48412" gradientUnits="userSpaceOnUse">
<stop stop-color="#595A59"/>
<stop offset="0.0248" stop-color="#636463"/>
<stop offset="0.1614" stop-color="#959695"/>
<stop offset="0.2903" stop-color="#BCBDBC"/>
<stop offset="0.4079" stop-color="#D8DAD9"/>
<stop offset="0.5102" stop-color="#E9EBEA"/>
<stop offset="0.586" stop-color="#EFF1F0"/>
<stop offset="1" stop-color="white"/>
</linearGradient>
<linearGradient id="paint18_linear_208_557" x1="33.0521" y1="13.6887" x2="22.1716" y2="12.9553" gradientUnits="userSpaceOnUse">
<stop/>
<stop offset="0.0082" stop-color="#303030"/>
<stop offset="0.0168" stop-color="#5B5B5B"/>
<stop offset="0.0264" stop-color="#838383"/>
<stop offset="0.0367" stop-color="#A4A4A4"/>
<stop offset="0.048" stop-color="#C1C1C1"/>
<stop offset="0.0606" stop-color="#D8D8D8"/>
<stop offset="0.075" stop-color="#E9E9E9"/>
<stop offset="0.0924" stop-color="#F6F6F6"/>
<stop offset="0.116" stop-color="#FDFDFD"/>
<stop offset="0.172" stop-color="white"/>
<stop offset="0.8656" stop-color="white"/>
<stop offset="0.8963" stop-color="#FCFCFC"/>
<stop offset="0.9146" stop-color="#F4F4F4"/>
<stop offset="0.9297" stop-color="#E6E6E6"/>
<stop offset="0.943" stop-color="#D2D2D2"/>
<stop offset="0.9551" stop-color="#B7B7B7"/>
<stop offset="0.9665" stop-color="#979797"/>
<stop offset="0.9771" stop-color="#717171"/>
<stop offset="0.9873" stop-color="#444444"/>
<stop offset="0.9967" stop-color="#131313"/>
<stop offset="1"/>
</linearGradient>
<linearGradient id="paint19_linear_208_557" x1="26.7909" y1="8.61392" x2="27.177" y2="17.4743" gradientUnits="userSpaceOnUse">
<stop/>
<stop offset="0.0082" stop-color="#303030"/>
<stop offset="0.0168" stop-color="#5B5B5B"/>
<stop offset="0.0264" stop-color="#838383"/>
<stop offset="0.0367" stop-color="#A4A4A4"/>
<stop offset="0.048" stop-color="#C1C1C1"/>
<stop offset="0.0606" stop-color="#D8D8D8"/>
<stop offset="0.075" stop-color="#E9E9E9"/>
<stop offset="0.0924" stop-color="#F6F6F6"/>
<stop offset="0.116" stop-color="#FDFDFD"/>
<stop offset="0.172" stop-color="white"/>
<stop offset="0.8656" stop-color="white"/>
<stop offset="0.8963" stop-color="#FCFCFC"/>
<stop offset="0.9146" stop-color="#F4F4F4"/>
<stop offset="0.9297" stop-color="#E6E6E6"/>
<stop offset="0.943" stop-color="#D2D2D2"/>
<stop offset="0.9551" stop-color="#B7B7B7"/>
<stop offset="0.9665" stop-color="#979797"/>
<stop offset="0.9771" stop-color="#717171"/>
<stop offset="0.9873" stop-color="#444444"/>
<stop offset="0.9967" stop-color="#131313"/>
<stop offset="1"/>
</linearGradient>
<linearGradient id="paint20_linear_208_557" x1="29.1901" y1="27.0673" x2="24.6075" y2="33.2193" gradientUnits="userSpaceOnUse">
<stop stop-color="#8CDDFF"/>
<stop offset="0.4375" stop-color="#1E92FF"/>
<stop offset="1" stop-color="#0B53BC"/>
</linearGradient>
<radialGradient id="paint21_radial_208_557" cx="0" cy="0" r="1" gradientUnits="userSpaceOnUse" gradientTransform="translate(35.1784 20.5733) rotate(84.189) scale(17.7996 18.2541)">
<stop stop-color="white"/>
<stop offset="0.1152" stop-color="white" stop-opacity="0.8963"/>
<stop offset="1" stop-color="white" stop-opacity="0.1"/>
</radialGradient>
<linearGradient id="paint22_linear_208_557" x1="15.3428" y1="24.0835" x2="10.1282" y2="29.1255" gradientUnits="userSpaceOnUse">
<stop stop-color="#8CDDFF"/>
<stop offset="0.4375" stop-color="#1E92FF"/>
<stop offset="1" stop-color="#0B53BC"/>
</linearGradient>
<linearGradient id="paint23_linear_208_557" x1="12.4521" y1="11.1968" x2="7.37454" y2="15.2136" gradientUnits="userSpaceOnUse">
<stop stop-color="#8CDDFF"/>
<stop offset="0.4375" stop-color="#1E92FF"/>
<stop offset="1" stop-color="#0B53BC"/>
</linearGradient>
<radialGradient id="paint24_radial_208_557" cx="0" cy="0" r="1" gradientUnits="userSpaceOnUse" gradientTransform="translate(8.84572 7.81012) rotate(84.2382) scale(8.73652 8.88471)">
<stop stop-color="white"/>
<stop offset="0.1152" stop-color="white" stop-opacity="0.8848"/>
<stop offset="1" stop-color="white" stop-opacity="0"/>
</radialGradient>
<linearGradient id="paint25_linear_208_557" x1="26.1217" y1="6.83838" x2="25.2439" y2="10.079" gradientUnits="userSpaceOnUse">
<stop stop-color="#8CDDFF"/>
<stop offset="0.4375" stop-color="#1E92FF"/>
<stop offset="1" stop-color="#0B53BC"/>
</linearGradient>
<radialGradient id="paint26_radial_208_557" cx="0" cy="0" r="1" gradientUnits="userSpaceOnUse" gradientTransform="translate(22.8892 9.8307) rotate(84.8725) scale(5.40312 5.02922)">
<stop stop-color="white"/>
<stop offset="0.1152" stop-color="white" stop-opacity="0.8848"/>
<stop offset="1" stop-color="white" stop-opacity="0"/>
</radialGradient>
<linearGradient id="paint27_linear_208_557" x1="33.233" y1="14.4343" x2="30.6151" y2="15.0261" gradientUnits="userSpaceOnUse">
<stop stop-color="#8CDDFF"/>
<stop offset="0.4375" stop-color="#1E92FF"/>
<stop offset="1" stop-color="#0B53BC"/>
</linearGradient>
<radialGradient id="paint28_radial_208_557" cx="0" cy="0" r="1" gradientUnits="userSpaceOnUse" gradientTransform="translate(28.4516 20.8645) rotate(84.4342) scale(8.86432 8.35392)">
<stop stop-color="white"/>
<stop offset="0.1152" stop-color="white" stop-opacity="0.9193"/>
<stop offset="1" stop-color="white" stop-opacity="0.3"/>
</radialGradient>
<linearGradient id="paint29_linear_208_557" x1="22.7801" y1="26.9374" x2="32.8545" y2="17.8153" gradientUnits="userSpaceOnUse">
<stop stop-color="#595A59"/>
<stop offset="0.0248" stop-color="#636463"/>
<stop offset="0.1614" stop-color="#959695"/>
<stop offset="0.2903" stop-color="#BCBDBC"/>
<stop offset="0.4079" stop-color="#D8DAD9"/>
<stop offset="0.5102" stop-color="#E9EBEA"/>
<stop offset="0.586" stop-color="#EFF1F0"/>
<stop offset="1" stop-color="white"/>
</linearGradient>
<linearGradient id="paint30_linear_208_557" x1="25.3308" y1="14.6035" x2="18.3839" y2="21.9311" gradientUnits="userSpaceOnUse">
<stop stop-color="#8CDDFF"/>
<stop offset="0.4375" stop-color="#1E92FF"/>
<stop offset="1" stop-color="#0B53BC"/>
</linearGradient>
<radialGradient id="paint31_radial_208_557" cx="0" cy="0" r="1" gradientUnits="userSpaceOnUse" gradientTransform="translate(16.532 16.2812) rotate(84.0224) scale(7.99276 8.42839)">
<stop stop-color="white"/>
<stop offset="0.1152" stop-color="white" stop-opacity="0.8848"/>
<stop offset="1" stop-color="white" stop-opacity="0"/>
</radialGradient>
<radialGradient id="paint32_radial_208_557" cx="0" cy="0" r="1" gradientUnits="userSpaceOnUse" gradientTransform="translate(23.661 23.6481) rotate(84.3309) scale(8.28869 8.29544)">
<stop stop-color="white" stop-opacity="0"/>
<stop offset="0.5617" stop-color="white" stop-opacity="0.7"/>
<stop offset="0.8435" stop-color="white" stop-opacity="0.7"/>
</radialGradient>
<radialGradient id="paint33_radial_208_557" cx="0" cy="0" r="1" gradientUnits="userSpaceOnUse" gradientTransform="translate(16.7957 10.1284) rotate(84.1195) scale(8.89463 9.22932)">
<stop stop-color="white"/>
<stop offset="0.1152" stop-color="white" stop-opacity="0.8963"/>
<stop offset="1" stop-color="white" stop-opacity="0.1"/>
</radialGradient>
<linearGradient id="paint34_linear_208_557" x1="13.5539" y1="24.0934" x2="14.112" y2="30.0254" gradientUnits="userSpaceOnUse">
<stop stop-color="white"/>
<stop offset="1" stop-color="white" stop-opacity="0"/>
</linearGradient>
<radialGradient id="paint35_radial_208_557" cx="0" cy="0" r="1" gradientUnits="userSpaceOnUse" gradientTransform="translate(28.1826 9.45839) rotate(83.0267) scale(9.58265 11.7572)">
<stop stop-color="white"/>
<stop offset="0.1152" stop-color="white" stop-opacity="0.9193"/>
<stop offset="1" stop-color="white" stop-opacity="0.3"/>
</radialGradient>
<radialGradient id="paint36_radial_208_557" cx="0" cy="0" r="1" gradientUnits="userSpaceOnUse" gradientTransform="translate(22.0256 28.8385) rotate(85.0442) scale(13.6126 11.9279)">
<stop stop-color="white"/>
<stop offset="0.1152" stop-color="white" stop-opacity="0.8963"/>
<stop offset="1" stop-color="white" stop-opacity="0.1"/>
</radialGradient>
<radialGradient id="paint37_radial_208_557" cx="0" cy="0" r="1" gradientUnits="userSpaceOnUse" gradientTransform="translate(15.4994 16.4999) rotate(-158.874) scale(20.4859 20.4858)">
<stop offset="0.4302" stop-color="#657765" stop-opacity="0"/>
<stop offset="0.821826" stop-color="#272527" stop-opacity="0.7"/>
<stop offset="1" stop-color="#151D18" stop-opacity="0.7"/>
</radialGradient>
<linearGradient id="paint38_linear_208_557" x1="9.18287" y1="12.0567" x2="17.366" y2="18.4004" gradientUnits="userSpaceOnUse">
<stop stop-color="white"/>
<stop offset="0.897752" stop-color="white" stop-opacity="0"/>
</linearGradient>
<linearGradient id="paint39_linear_208_557" x1="33.4029" y1="21.8421" x2="30.3444" y2="26.9672" gradientUnits="userSpaceOnUse">
<stop stop-color="white"/>
<stop offset="0.9966" stop-color="white" stop-opacity="0"/>
</linearGradient>
<linearGradient id="paint40_linear_208_557" x1="31.5025" y1="18.3308" x2="26.3565" y2="17.5923" gradientUnits="userSpaceOnUse">
<stop stop-color="white" stop-opacity="0.3"/>
<stop offset="1" stop-color="white"/>
</linearGradient>
</defs>
</svg>
