<svg width="41" height="40" viewBox="0 0 41 40" fill="none" xmlns="http://www.w3.org/2000/svg">
<rect x="0.5" width="40" height="40" rx="20" fill="white" fill-opacity="0.07"/>
<path d="M27.4283 14.4541C27.4673 13.5968 28.4037 12.9733 28.2476 14.0255C28.0915 15.0776 28.0525 17.3378 26.9991 16.9481C25.9457 16.5195 27.4283 14.4541 27.4283 14.4541Z" fill="#E59354"/>
<path d="M13.1171 14.4541C13.0781 13.5968 12.1417 12.9733 12.2978 14.0255C12.4539 15.0776 12.4929 17.3378 13.5463 16.9481C14.6387 16.5195 13.1171 14.4541 13.1171 14.4541Z" fill="#E59354"/>
<path d="M20.2918 29.9253C22.4225 29.9253 24.3289 29.068 25.525 27.743C24.7774 27.4702 24.1793 26.6129 24.1793 25.7946V23.5343C24.1793 22.677 23.5065 21.9756 22.6841 21.9756H17.8621C17.0397 21.9756 16.3669 22.677 16.3669 23.5343V25.7946C16.3669 26.6129 15.7688 27.4702 15.0586 27.743C16.2548 29.068 18.1611 29.9253 20.2918 29.9253Z" fill="#E59354"/>
<path d="M20.2455 24.82C24.081 24.82 27.1902 20.685 27.1902 15.5843C27.1902 10.4836 24.081 6.34863 20.2455 6.34863C16.41 6.34863 13.3008 10.4836 13.3008 15.5843C13.3008 20.685 16.41 24.82 20.2455 24.82Z" fill="#EAAB7A"/>
<path d="M27.1895 15.5838C27.1895 15.5838 26.9164 13.0508 26.4483 11.4141C26.0191 10.9854 24.3414 10.7126 22.4687 10.7126C21.5323 10.7126 19.1914 12.1935 18.2551 12.1935C18.6452 11.7258 18.6842 11.3751 18.6842 11.0634C18.021 11.7258 16.3823 12.9339 15.446 12.9339C15.8361 12.5442 16.0312 11.0634 15.485 11.0634C14.4316 12.1155 13.3391 15.5838 13.3391 15.5838C13.3391 15.5838 12.7539 13.1287 12.7539 11.9986C12.7539 10.9854 12.7539 4.16583 20.2448 4.28274C27.7358 4.39964 27.7358 10.9075 27.7358 11.9986C27.7358 13.1287 27.1895 15.5838 27.1895 15.5838Z" fill="url(#paint0_radial_208_562)"/>
<path d="M15.7581 11.2585C16.0702 10.7129 16.1872 9.50488 15.68 9.50488C14.6266 10.557 13.5342 14.0253 13.5342 14.0253C13.5342 14.0253 12.949 11.5702 12.949 10.4401C12.949 10.3232 12.949 10.1284 12.949 9.89457C12.7539 10.8688 12.7539 11.6872 12.7539 11.9989C12.7539 13.129 13.3391 15.5841 13.3391 15.5841C13.3391 15.5841 14.4706 12.0768 15.485 11.0636C15.602 11.0636 15.68 11.1416 15.7581 11.2585Z" fill="#9F4F00"/>
<path d="M27.384 14.0245C27.384 14.0245 27.1109 11.4915 26.6427 9.85476C26.2135 9.4261 24.5359 9.15332 22.6631 9.15332C21.7268 9.15332 19.3859 10.6341 18.4495 10.6341C18.8396 10.1665 18.8787 9.81579 18.8787 9.50404C18.2544 10.1275 16.7718 11.2187 15.7964 11.3356C15.9135 11.8032 15.7574 12.6216 15.4453 12.8944C16.3817 12.8944 18.0203 11.6863 18.6836 11.0238C18.6836 11.3356 18.6446 11.6863 18.2544 12.1539C19.2298 12.1539 21.5317 10.6731 22.4681 10.6731C24.3408 10.6731 26.0184 10.9459 26.4476 11.3746C26.9158 13.0502 27.1889 15.5832 27.1889 15.5832C27.1889 15.5832 27.6961 13.323 27.7351 12.1539C27.5791 13.1282 27.384 14.0245 27.384 14.0245Z" fill="#9F4F00"/>
<path d="M14.9004 14.8034C15.0565 14.5696 15.2125 14.4137 15.4076 14.2968C15.6027 14.1409 15.7977 14.063 16.0318 13.9851C16.2659 13.9071 16.5 13.8682 16.7341 13.8682C16.9682 13.8682 17.2413 13.9071 17.4754 14.024V14.063C17.0462 14.063 16.578 14.1799 16.1879 14.3358C15.7197 14.4527 15.3296 14.6086 14.9004 14.8034Z" fill="#9F4F00"/>
<path d="M25.5897 14.8034C25.1995 14.6086 24.7704 14.4527 24.3412 14.2968C23.912 14.1409 23.4829 14.024 23.0537 14.024C23.2878 13.9071 23.5219 13.8682 23.795 13.8682C24.0291 13.8682 24.2632 13.9071 24.4973 13.9851C24.7314 14.063 24.9264 14.1799 25.1215 14.2968C25.2776 14.4137 25.4727 14.5696 25.5897 14.8034Z" fill="#9F4F00"/>
<path d="M20.2451 21.8194C21.2985 21.8194 21.8447 21.118 22.6641 20.2217C22.6641 20.2217 21.4156 20.6114 20.2841 20.6114C19.2307 20.6114 17.8262 20.2217 17.8262 20.2217C18.6845 21.1569 19.1917 21.8194 20.2451 21.8194Z" fill="white"/>
<path d="M20.2451 21.079C19.6209 21.079 19.1527 20.8062 18.7235 20.4165C18.2163 20.2996 17.8262 20.2217 17.8262 20.2217C18.6845 21.1569 19.1917 21.8194 20.2451 21.8194C21.2985 21.8194 21.8447 21.118 22.6641 20.2217C22.6641 20.2217 22.2739 20.3386 21.7277 20.4555C21.2985 20.8452 20.8694 21.079 20.2451 21.079Z" fill="#CA1412"/>
<path d="M26.9556 10.4785C27.1897 10.7513 27.3068 11.0241 27.3458 11.3358C27.4238 11.6476 27.4238 11.9593 27.3458 12.2711C27.1507 11.9983 27.0727 11.6866 26.9946 11.4138C26.9556 11.102 26.9166 10.8292 26.9556 10.4785Z" fill="white"/>
<path d="M25.3164 7.24512C25.7066 7.47893 26.0187 7.86862 26.2528 8.25831C26.4869 8.648 26.6429 9.07666 26.6819 9.58326C26.3698 9.23254 26.1747 8.84285 25.9406 8.45316C25.7066 8.0245 25.4725 7.67378 25.3164 7.24512Z" fill="white"/>
<path d="M23.0146 5.45215C23.3658 5.49112 23.6779 5.60802 23.99 5.80287C24.2631 5.99772 24.5362 6.23153 24.6923 6.58225C24.3412 6.46534 24.0681 6.30947 23.795 6.11462C23.5218 5.91978 23.2487 5.7639 23.0146 5.45215Z" fill="white"/>
<path d="M17.0058 16.1296C17.0058 16.4413 16.8107 16.6751 16.5766 16.6751C16.3425 16.6751 16.1475 16.4413 16.1475 16.1296C16.1475 15.8178 16.3425 15.584 16.5766 15.584C16.8107 15.584 17.0058 15.8568 17.0058 16.1296Z" fill="black"/>
<path d="M24.3417 16.1296C24.3417 16.4413 24.1467 16.6751 23.9126 16.6751C23.6785 16.6751 23.4834 16.4413 23.4834 16.1296C23.4834 15.8178 23.6785 15.584 23.9126 15.584C24.1467 15.584 24.3417 15.8568 24.3417 16.1296Z" fill="black"/>
<path d="M25.9805 18.0007C26.0585 18.3904 25.5903 18.78 25.0051 18.897C24.3809 19.0139 23.8346 18.78 23.7956 18.3904C23.7176 18.0007 24.1858 17.611 24.771 17.4941C25.3562 17.3772 25.9025 17.611 25.9805 18.0007Z" fill="#E38378"/>
<path d="M14.7048 18.0007C14.6268 18.3904 15.095 18.78 15.6802 18.897C16.3044 19.0139 16.8507 18.78 16.8897 18.3904C16.9677 18.0007 16.4995 17.611 15.9143 17.4941C15.3291 17.3772 14.7828 17.611 14.7048 18.0007Z" fill="#E38378"/>
<path d="M31.7855 25.9511C31.3365 25.6393 29.3363 25.1327 28.275 24.8599C27.2137 24.5482 26.3565 24.3144 26.3157 24.3144C26.3157 24.3144 22.8461 26.4577 20.5194 26.4577C18.1927 26.4577 14.7639 24.2754 14.723 24.2754C14.6822 24.2754 13.7842 24.5482 12.7229 24.821C11.6616 25.1327 9.66145 25.6003 9.21244 25.9121C8.88588 26.2238 8.51851 29.9649 11.3759 32.5368C12.1922 33.2773 13.2127 33.7839 14.3148 34.0956C15.6211 34.4853 17.9069 34.9529 20.7235 34.9529C22.7236 34.9529 24.3972 34.7191 25.6218 34.4853C27.4586 34.0956 29.1322 33.1603 30.2343 31.7185C32.3569 28.9907 32.112 26.2238 31.7855 25.9511Z" fill="#141413"/>
<path d="M16.1935 23.2615L13.377 24.7424L18.0376 34.8104C18.8593 34.8981 19.7611 34.9529 20.725 34.9529C21.4655 34.9529 22.1613 34.9208 22.8061 34.8686L27.2147 24.3137L24.3165 23.1836L20.3162 26.1063L16.1935 23.2615Z" fill="white"/>
<path d="M14.1104 24.2354L18.3964 28.7558L20.3149 25.5993L18.5188 28.0933L14.1104 24.2354Z" fill="#A6A1A2"/>
<path d="M24.43 34.688L27.9068 31.6757L27.0496 29.0539L31.2132 25.9308L26.519 24.0029C26.6111 24.206 23.9985 31.353 22.6999 34.8776C23.3253 34.83 23.9039 34.7633 24.43 34.688Z" fill="#3A3B39"/>
<path d="M18.2454 34.8332C16.9509 31.2934 14.3758 24.2052 14.437 24.0029L9.66113 25.8537L13.9472 29.0539L13.0899 31.6757L16.4285 34.5883C16.9796 34.6842 17.5881 34.7694 18.2454 34.8332Z" fill="#3A3B39"/>
<path d="M20.2342 25.6786C20.1934 25.7565 21.7853 28.4454 21.9894 28.5233C22.1935 28.6013 26.153 24.0029 26.153 24.0029L22.2343 28.913L20.2342 25.6786Z" fill="#A6A1A2"/>
<path d="M20.9277 26.9654L23.46 27.8979V24.8193L20.9426 26.1583C20.8282 26.0126 20.583 25.9099 20.3164 25.9099C20.0499 25.9099 19.805 26.0124 19.6905 26.1579L17.1738 24.8193V27.8979L19.7398 27.0008C19.8671 27.1177 20.0835 27.1959 20.3164 27.1959C20.572 27.1959 20.8079 27.1016 20.9277 26.9654Z" fill="#1D1D1D"/>
<path d="M26.6816 25.6387C27.3756 25.6776 28.0695 25.7945 28.7226 25.9504C29.3757 26.1063 30.0288 26.3011 30.6819 26.5739C29.988 26.5739 29.2941 26.457 28.641 26.3011C28.3144 26.2232 27.9879 26.1453 27.6613 26.0284C27.2939 25.9115 26.9674 25.7945 26.6816 25.6387Z" fill="white"/>
<path d="M26.0441 33.3165C22.4579 33.3165 19.5492 32.7079 17.8757 32.2134C16.4811 31.833 15.206 31.1863 14.1302 30.2353C12.4566 28.7518 11.6597 26.9258 11.3011 25.3662C10.5839 25.5564 9.98619 25.7846 9.74712 25.9368C9.4682 26.2031 9.06974 29.8549 11.8589 32.3655C12.6559 33.0883 13.652 33.5828 14.7278 33.8871C16.0029 34.2675 18.2343 34.724 20.9836 34.724C22.9361 34.724 24.5698 34.4958 25.7651 34.2675C26.6816 34.0773 27.5582 33.735 28.3153 33.2785C27.598 33.3165 26.841 33.3165 26.0441 33.3165Z" fill="url(#paint1_linear_208_562)"/>
<defs>
<radialGradient id="paint0_radial_208_562" cx="0" cy="0" r="1" gradientUnits="userSpaceOnUse" gradientTransform="translate(4.73209 6.34406) rotate(-18.9517) scale(24.0462 16.9724)">
<stop stop-color="#ED8409"/>
<stop offset="1" stop-color="#D16603"/>
</radialGradient>
<linearGradient id="paint1_linear_208_562" x1="26.4215" y1="20.4862" x2="25.7472" y2="31.8668" gradientUnits="userSpaceOnUse">
<stop stop-color="white"/>
<stop offset="1" stop-color="white" stop-opacity="0"/>
</linearGradient>
</defs>
</svg>
