<svg width="41" height="40" viewBox="0 0 41 40" fill="none" xmlns="http://www.w3.org/2000/svg">
<rect x="0.5" width="40" height="40" rx="20" fill="white" fill-opacity="0.07"/>
<path d="M8.58071 26.3755C8.94058 27.0442 9.35186 27.6615 9.76315 28.2274C11.3569 30.2851 13.5675 31.9313 16.1895 32.8058C18.9656 33.7317 21.9989 33.7317 24.775 32.8058C25.4948 32.5486 26.1631 32.2914 26.8314 31.9313C27.397 31.6226 27.9625 31.2625 28.528 30.851C30.3274 29.5135 31.8183 27.713 32.7951 25.5524C34.0803 22.723 34.3374 19.5336 33.5662 16.5499C33.3092 15.5211 32.8979 14.5437 32.4352 13.6177C32.0753 12.949 31.664 12.3316 31.2527 11.7658C29.4534 9.45086 26.9857 7.75326 24.1581 6.98162C21.4847 6.26142 18.7086 6.36431 16.2409 7.18739C15.5211 7.4446 14.8528 7.70181 14.1845 8.06191C13.2591 8.57634 12.3851 9.14221 11.6139 9.8624C9.24904 11.9715 7.70673 14.7494 7.19262 17.7846C6.78134 20.0995 7.03839 22.4144 7.80955 24.575C8.01519 25.1923 8.27224 25.8096 8.58071 26.3755Z" fill="url(#paint0_radial_208_552)"/>
<path fill-rule="evenodd" clip-rule="evenodd" d="M17.8195 6.7677C18.8913 7.94807 20.4076 9.01589 22.2562 9.70956C24.4669 10.5326 26.8832 10.7384 28.7854 10.2754C29.0816 10.2036 29.3654 10.116 29.635 10.0133C28.0784 8.59255 26.2133 7.54248 24.1581 6.98162C22.0416 6.41145 19.8607 6.35716 17.8195 6.7677ZM7.20937 22.3351C6.94096 20.8481 6.92048 19.3163 7.19262 17.7846C7.59594 15.4035 8.63208 13.1807 10.2017 11.315C10.2486 11.462 10.2909 11.6129 10.3285 11.7676C10.4828 12.282 10.5342 12.8479 10.5856 13.4138C10.6884 14.957 10.4314 16.6032 9.86585 18.1465C9.22503 19.8564 8.30021 21.2821 7.20937 22.3351ZM22.4375 33.3596C20.3503 33.6617 18.2023 33.4771 16.1895 32.8058C14.5053 32.244 12.9908 31.3639 11.7005 30.2608C11.7401 30.2515 11.7801 30.2428 11.8203 30.2348C13.5169 29.8232 15.5733 29.8747 17.6297 30.5434C19.5074 31.1413 21.208 32.129 22.4375 33.3596ZM33.8313 17.8238C34.2444 20.4266 33.8989 23.1223 32.7951 25.5524C32.1897 26.8915 31.3868 28.0922 30.4354 29.1302C30.3962 29.0038 30.3601 28.875 30.3274 28.7439C29.9161 27.0463 29.9675 24.9886 30.6359 22.8794C31.15 21.3362 31.9725 19.8443 32.9493 18.7126C33.2213 18.4015 33.5227 18.0905 33.8313 17.8238Z" fill="url(#paint1_radial_208_552)"/>
<path fill-rule="evenodd" clip-rule="evenodd" d="M33.9589 21.0201C33.8381 22.5747 33.4501 24.1108 32.7948 25.5533C32.5516 26.0912 32.2765 26.6069 31.9728 27.0986C31.9113 26.7535 31.9408 26.3696 32.0762 25.9634L33.3099 22.054C33.456 21.6154 33.68 21.2676 33.9589 21.0201ZM27.5848 8.46917C27.1064 8.74758 26.4866 8.80343 25.8037 8.57569L21.8968 7.34114C21.3505 7.15894 20.9453 6.86582 20.6946 6.50195C21.8463 6.51621 23.0116 6.67369 24.1579 6.98251C25.3751 7.31468 26.5256 7.81844 27.5848 8.46917ZM19.4432 33.4616C18.3402 33.3775 17.2461 33.1592 16.1892 32.8067C15.9204 32.717 15.6559 32.6192 15.3959 32.5137C15.8419 32.217 16.4613 32.1329 17.115 32.3411L18.3488 32.7526C18.8209 32.9101 19.1876 33.1579 19.4432 33.4616ZM14.295 32.0075C13.9649 31.8373 13.6436 31.6541 13.3315 31.459C13.6705 31.398 14.0476 31.4151 14.4418 31.518L14.295 32.0075ZM7.0166 19.307C7.04413 18.8009 7.10219 18.2932 7.1924 17.7854C7.35097 16.8493 7.60735 15.9376 7.95552 15.0625C8.32644 15.5138 8.4503 16.1909 8.22181 16.9094L7.81055 18.144C7.63865 18.66 7.35899 19.0502 7.0166 19.307ZM8.41024 14.0442C8.60452 13.6533 8.81795 13.2713 9.04995 12.8993C9.16764 13.2928 9.17045 13.7508 9.04433 14.2346L8.41024 14.0442Z" fill="#232323"/>
<path d="M14.3383 23.1347C15.058 24.575 16.2917 25.8095 17.9368 26.4268C19.6846 27.147 21.6895 27.0441 23.386 26.2211C24.8768 25.5009 26.1106 24.2149 26.7274 22.5689C27.1901 21.3343 27.2929 19.9455 26.9845 18.6595C26.8817 18.1451 26.676 17.6821 26.4704 17.2192C25.6479 15.5217 24.1057 14.2357 22.3064 13.7213C20.6614 13.2069 18.9135 13.4127 17.4741 14.1328C17.0114 14.3386 16.6002 14.6472 16.1889 14.9558C15.1608 15.7789 14.3897 16.962 13.9784 18.1965C13.4129 19.894 13.5672 21.643 14.3383 23.1347Z" fill="url(#paint2_radial_208_552)"/>
<path d="M22.2051 21.3844L21.7939 22.6189C21.3826 23.8535 20.3031 24.3679 19.1721 24.0078C18.0411 23.6477 17.4757 22.6189 17.8869 21.3844L19.1207 17.475C19.532 16.2404 20.5601 15.726 21.6911 16.1376C22.7706 16.4976 23.2847 17.475 22.9763 18.7095L21.8967 18.3495C22.0509 17.7322 21.8453 17.3207 21.3312 17.1664C20.8171 17.012 20.3545 17.2178 20.1488 17.8351L19.789 19.0182C20.0974 18.8639 20.5087 18.8124 20.9714 18.9667C22.0509 19.2239 22.565 20.2527 22.2051 21.3844ZM21.1256 21.0757C21.3312 20.4585 21.0742 19.9955 20.5601 19.7898C20.046 19.6354 19.5834 19.8926 19.3777 20.5099L19.0179 21.693C18.8123 22.3617 19.0693 22.8247 19.5834 22.979C20.0974 23.1333 20.5601 22.9276 20.7657 22.2589L21.1256 21.0757Z" fill="#232323"/>
<path opacity="0.7" d="M26.8393 31.9104C26.9238 31.8693 27.0078 31.824 27.0899 31.7756C29.4518 30.4573 31.4191 28.4307 32.6472 25.8856C32.6521 25.8751 32.6583 25.8653 32.6607 25.8549C32.9763 25.2016 33.2405 24.5134 33.4525 23.7933C34.1677 21.3505 34.161 18.8673 33.5561 16.5747C33.5512 16.5526 33.5469 16.5348 33.5402 16.5128C33.0811 14.8048 32.2924 13.204 31.2217 11.8043C31.1366 11.6897 31.0477 11.5776 30.9576 11.4672C29.2943 9.42341 27.0176 7.84596 24.2947 7.04682C23.3338 6.76552 22.3655 6.59638 21.4045 6.53325C21.2482 6.52038 21.0889 6.51058 20.932 6.50752C18.526 6.42662 16.1824 7.00147 14.1269 8.10397C14.0681 8.13277 14.0154 8.16402 13.9608 8.19589C11.7393 9.42403 9.86332 11.2742 8.62046 13.5932C8.5267 13.7623 8.43906 13.9376 8.35387 14.1104C8.03274 14.7741 7.76247 15.4746 7.54736 16.2051C7.14962 17.5693 6.97374 18.9482 7.00315 20.2989C7.00867 20.4656 7.01541 20.6329 7.0246 20.8002C7.22623 24.1843 8.70504 27.365 11.1117 29.698C11.2048 29.7887 11.2992 29.8782 11.3967 29.9683C12.5801 31.0512 13.9762 31.9367 15.5389 32.5514C15.7363 32.6299 15.9318 32.7028 16.1371 32.7708L16.1389 32.7714C16.3252 32.8352 16.5134 32.8946 16.7064 32.9528C20.2284 33.9842 23.8381 33.5136 26.8393 31.9104Z" fill="url(#paint3_radial_208_552)"/>
<path d="M24.3952 8.72297C10.8012 2.33027 3.01745 24.1702 12.187 27.9552C13.604 20.7038 17.6387 13.0015 24.3952 8.72297Z" fill="url(#paint4_linear_208_552)"/>
<defs>
<radialGradient id="paint0_radial_208_552" cx="0" cy="0" r="1" gradientUnits="userSpaceOnUse" gradientTransform="translate(16.7138 12.4788) rotate(79.7925) scale(21.3595 21.3633)">
<stop stop-color="#FEFEFF"/>
<stop offset="0.362216" stop-color="#72D433"/>
<stop offset="0.82633" stop-color="#458B17"/>
</radialGradient>
<radialGradient id="paint1_radial_208_552" cx="0" cy="0" r="1" gradientUnits="userSpaceOnUse" gradientTransform="translate(20.499 20.0001) rotate(90) scale(13.5001 13.501)">
<stop stop-color="white"/>
<stop offset="1" stop-color="#D3D3D3"/>
</radialGradient>
<radialGradient id="paint2_radial_208_552" cx="0" cy="0" r="1" gradientUnits="userSpaceOnUse" gradientTransform="translate(18.9886 17.0378) rotate(81.864) scale(9.97101 10.0082)">
<stop stop-color="white"/>
<stop offset="1" stop-color="#D3D3D3"/>
</radialGradient>
<radialGradient id="paint3_radial_208_552" cx="0" cy="0" r="1" gradientUnits="userSpaceOnUse" gradientTransform="translate(16 16.5) rotate(-158.874) scale(20.4862 20.4859)">
<stop offset="0.4302" stop-color="#657765" stop-opacity="0"/>
<stop offset="0.821826" stop-color="#272527" stop-opacity="0.7"/>
<stop offset="1" stop-color="#151D18" stop-opacity="0.7"/>
</radialGradient>
<linearGradient id="paint4_linear_208_552" x1="9.89677" y1="12.0556" x2="18.3113" y2="18.3354" gradientUnits="userSpaceOnUse">
<stop stop-color="white"/>
<stop offset="0.897752" stop-color="white" stop-opacity="0"/>
</linearGradient>
</defs>
</svg>
