<svg width="40" height="40" viewBox="0 0 40 40" fill="none" xmlns="http://www.w3.org/2000/svg">
<rect width="40" height="40" rx="20" fill="white" fill-opacity="0.07"/>
<path d="M32.4988 19.958C32.3761 13.0244 28.0689 7.3897 22.6094 6.76173C21.6717 6.68491 20.8016 6.62416 19.8864 6.57593C19.3509 6.54734 18.8008 6.52233 18.2139 6.5L18.2743 20.0518L18.2734 33.5C19.9694 33.5 21.3327 33.4134 22.8006 33.2651C28.2772 32.4817 32.5592 26.7862 32.4988 19.958Z" fill="url(#paint0_linear_208_537)"/>
<path d="M32.0676 16.459C32.3287 17.5721 32.4781 18.7447 32.4995 19.957C32.5101 21.1548 32.3871 22.3177 32.1474 23.4254H28.9292V16.459H32.0676Z" fill="#838383"/>
<path d="M31.3132 26.0723C30.3497 28.3553 28.8534 30.2625 27.0259 31.5519H24.1973V26.0723H31.3132Z" fill="#838383"/>
<path d="M26.8491 8.37793C28.7062 9.64955 30.2345 11.5743 31.2317 13.9048H24.1973V8.37793H26.8491Z" fill="#838383"/>
<path d="M29.8214 19.4803C29.848 12.3299 25.2283 6.50893 19.529 6.50001C13.8296 6.49109 9.3127 12.3629 9.28613 19.5133C9.31979 26.769 13.9997 32.6935 19.6388 32.5989C25.2779 32.5034 29.855 26.736 29.8214 19.4803Z" fill="white"/>
<path d="M29.8175 19.9397C29.6594 12.4672 24.7183 6.49197 18.6307 6.50001C12.544 6.50805 7.34627 12.587 7.50348 20.0603C7.66158 27.5327 12.6036 33.5089 18.6903 33.5C24.8828 33.4312 29.9757 27.413 29.8175 19.9397Z" fill="url(#paint1_linear_208_537)"/>
<path d="M12.91 28.9773C13.6148 29.6992 13.6403 30.8374 12.9935 31.5894C12.736 31.4014 12.485 31.2011 12.2413 30.989C12.0013 30.7802 11.7682 30.5599 11.5427 30.3289C10.8117 29.5802 10.1594 28.7185 9.60314 27.7653C9.44263 27.4902 9.29013 27.2075 9.14605 26.9177C9.00405 26.6321 8.87023 26.3396 8.74499 26.0407C9.63979 25.5888 10.7418 25.9075 11.2561 26.7888C11.7367 27.6125 12.2944 28.3469 12.91 28.9773Z" fill="url(#paint2_linear_208_537)"/>
<path d="M26.2121 26.7553C26.7243 25.8753 27.8223 25.5549 28.7165 26.0014C28.5938 26.3012 28.4618 26.5946 28.3209 26.8811C28.1782 27.1712 28.0265 27.4544 27.8661 27.7299C27.3091 28.6869 26.6482 29.5525 25.9034 30.305C25.6767 30.5341 25.4421 30.7527 25.2004 30.9603C24.9556 31.1704 24.7034 31.3692 24.4445 31.5559C23.8024 30.7995 23.8355 29.6613 24.5453 28.9441C25.1717 28.3111 25.7343 27.5762 26.2121 26.7553Z" fill="url(#paint3_linear_208_537)"/>
<path d="M27.8038 18.5514C27.6856 17.5308 28.3823 16.6036 29.3756 16.4287C29.4489 16.7394 29.5136 17.0546 29.5693 17.374C29.6242 17.6882 29.6704 18.0064 29.7077 18.3282C29.7688 18.8562 29.8059 19.394 29.8174 19.9397C29.8291 20.4904 29.8122 21.0332 29.7685 21.5662C29.742 21.8893 29.7057 22.2088 29.6598 22.5243C29.6132 22.8453 29.5567 23.1622 29.4909 23.4745C28.4971 23.3291 27.7746 22.4285 27.8583 21.4077C27.8965 20.941 27.9114 20.4649 27.9011 19.9807C27.8909 19.4959 27.858 19.0189 27.8038 18.5514Z" fill="url(#paint4_linear_208_537)"/>
<path d="M24.4109 11.0228C23.7061 10.3009 23.6805 9.16276 24.3273 8.41074C24.5849 8.59866 24.8358 8.79898 25.0795 9.01105C25.3196 9.2199 25.5526 9.44014 25.7782 9.67114C26.5092 10.4198 27.1615 11.2815 27.7178 12.2347C27.8783 12.5098 28.0308 12.7925 28.1749 13.0823C28.3169 13.3679 28.4507 13.6604 28.5759 13.9593C27.6811 14.4112 26.5791 14.0925 26.0649 13.2112C25.5843 12.3876 25.0265 11.6532 24.4109 11.0228Z" fill="url(#paint5_linear_208_537)"/>
<path d="M17.3586 8.54313C16.3807 8.71844 15.444 8.11419 15.1788 7.17272C15.4772 7.054 15.7807 6.9501 16.0886 6.86174C16.3957 6.77361 16.7072 6.70094 17.0224 6.64443C17.5492 6.54998 18.0863 6.50073 18.6306 6.50001C19.1731 6.49929 19.7065 6.54609 20.2282 6.63724C20.5442 6.69244 20.8559 6.76391 21.1628 6.85094C21.4714 6.93848 21.7751 7.04176 22.0733 7.16006C21.8112 8.10115 20.878 8.7082 19.9003 8.5374C19.4869 8.46518 19.0641 8.42803 18.6331 8.4286C18.2024 8.42917 17.777 8.46812 17.3586 8.54313Z" fill="url(#paint6_linear_208_537)"/>
<path d="M11.1233 13.2537C10.61 14.1336 9.51091 14.4529 8.61686 14.0046C8.74022 13.7052 8.87285 13.4121 9.01424 13.1257C9.15741 12.8359 9.30956 12.553 9.4702 12.2776C10.0282 11.3209 10.6886 10.4548 11.4302 9.70148C11.6565 9.47158 11.8903 9.25217 12.1312 9.0439C12.3754 8.83269 12.6267 8.63292 12.8846 8.44526C13.5298 9.19989 13.5002 10.3391 12.792 11.0586C12.1665 11.694 11.603 12.4313 11.1233 13.2537Z" fill="url(#paint7_linear_208_537)"/>
<path d="M21.2322 33.1287C21.5406 33.0406 21.8443 32.9374 22.1426 32.8199C21.8776 31.8758 20.9379 31.2707 19.9584 31.4483C19.54 31.5242 19.1127 31.5661 18.6783 31.5714C18.2506 31.5715 17.8308 31.5344 17.4204 31.4627C16.4427 31.292 15.5096 31.8991 15.2474 32.8401C15.5457 32.9584 15.8494 33.0617 16.158 33.1493C16.4649 33.2363 16.7766 33.3077 17.0926 33.3629C17.6143 33.454 18.1477 33.5008 18.6902 33.5C19.2358 33.4939 19.7728 33.4417 20.2985 33.3463C20.614 33.2891 20.9255 33.2163 21.2322 33.1287Z" fill="url(#paint8_linear_208_537)"/>
<path d="M9.51818 21.4003C9.63639 22.421 8.93971 23.3482 7.94636 23.5231C7.8731 23.2124 7.80842 22.8972 7.75267 22.5778C7.69782 22.2636 7.65159 21.9454 7.61432 21.6236C7.55317 21.0955 7.51611 20.5578 7.50456 20.0121C7.49291 19.4614 7.50977 18.9186 7.55348 18.3855C7.57997 18.0625 7.61632 17.743 7.66216 17.4275C7.7088 17.1065 7.76525 16.7896 7.83114 16.4772C8.82494 16.6226 9.54744 17.5233 9.46373 18.5441C9.42547 19.0108 9.41063 19.4869 9.42087 19.971C9.43113 20.4559 9.46404 20.9329 9.51818 21.4003Z" fill="url(#paint9_linear_208_537)"/>
<path d="M11.9628 19.8957C11.9557 15.5032 14.8382 11.9158 18.3286 11.8888C21.819 11.8619 24.6481 15.522 24.6553 19.9145C24.6624 24.307 21.7799 27.8945 18.2895 27.9214C14.7991 27.9483 11.9227 24.368 11.9628 19.8957Z" fill="#A3A2A5"/>
<path d="M13.1018 19.9496C13.0953 15.902 15.7191 12.5962 18.8963 12.5714C22.0735 12.5466 24.6488 15.9194 24.6553 19.967C24.6618 24.0146 22.038 27.3204 18.8608 27.3452C15.6836 27.37 13.0653 24.0708 13.1018 19.9496Z" fill="url(#paint10_linear_208_537)"/>
<path fill-rule="evenodd" clip-rule="evenodd" d="M18.6976 12.9687C13.3756 13.5018 12.576 21.2657 15.2736 24.5286C17.1174 22.2719 19.9078 18.0835 18.6976 12.9687Z" fill="url(#paint11_radial_208_537)"/>
<path d="M21.6831 8.08381C10.3474 1.35064 3.85678 24.3538 11.5031 28.3404C12.6846 20.7027 16.0491 12.5902 21.6831 8.08381Z" fill="url(#paint12_linear_208_537)"/>
<defs>
<linearGradient id="paint0_linear_208_537" x1="25.3864" y1="33.4439" x2="25.2693" y2="6.49238" gradientUnits="userSpaceOnUse">
<stop stop-color="#773600"/>
<stop offset="0.538978" stop-color="#8F4600"/>
<stop offset="1" stop-color="#7E3A00"/>
</linearGradient>
<linearGradient id="paint1_linear_208_537" x1="31.0926" y1="25.9768" x2="8.2896" y2="10.4992" gradientUnits="userSpaceOnUse">
<stop offset="0.157449" stop-color="#C45800"/>
<stop offset="0.6877" stop-color="#FC940D"/>
</linearGradient>
<linearGradient id="paint2_linear_208_537" x1="18.661" y1="6.5" x2="18.661" y2="33.5" gradientUnits="userSpaceOnUse">
<stop stop-color="white"/>
<stop offset="0.739583" stop-color="#C8C8C8"/>
</linearGradient>
<linearGradient id="paint3_linear_208_537" x1="18.661" y1="6.5" x2="18.661" y2="33.5" gradientUnits="userSpaceOnUse">
<stop stop-color="white"/>
<stop offset="0.739583" stop-color="#C8C8C8"/>
</linearGradient>
<linearGradient id="paint4_linear_208_537" x1="18.661" y1="6.5" x2="18.661" y2="33.5" gradientUnits="userSpaceOnUse">
<stop stop-color="white"/>
<stop offset="0.739583" stop-color="#C8C8C8"/>
</linearGradient>
<linearGradient id="paint5_linear_208_537" x1="18.661" y1="6.5" x2="18.661" y2="33.5" gradientUnits="userSpaceOnUse">
<stop stop-color="white"/>
<stop offset="0.739583" stop-color="#C8C8C8"/>
</linearGradient>
<linearGradient id="paint6_linear_208_537" x1="18.661" y1="6.5" x2="18.661" y2="33.5" gradientUnits="userSpaceOnUse">
<stop stop-color="white"/>
<stop offset="0.739583" stop-color="#C8C8C8"/>
</linearGradient>
<linearGradient id="paint7_linear_208_537" x1="18.661" y1="6.5" x2="18.661" y2="33.5" gradientUnits="userSpaceOnUse">
<stop stop-color="white"/>
<stop offset="0.739583" stop-color="#C8C8C8"/>
</linearGradient>
<linearGradient id="paint8_linear_208_537" x1="18.661" y1="6.5" x2="18.661" y2="33.5" gradientUnits="userSpaceOnUse">
<stop stop-color="white"/>
<stop offset="0.739583" stop-color="#C8C8C8"/>
</linearGradient>
<linearGradient id="paint9_linear_208_537" x1="18.661" y1="6.5" x2="18.661" y2="33.5" gradientUnits="userSpaceOnUse">
<stop stop-color="white"/>
<stop offset="0.739583" stop-color="#C8C8C8"/>
</linearGradient>
<linearGradient id="paint10_linear_208_537" x1="13.7719" y1="15.4383" x2="27.0652" y2="31.2895" gradientUnits="userSpaceOnUse">
<stop stop-color="white"/>
<stop offset="0.846504" stop-color="#A5A5A5"/>
</linearGradient>
<radialGradient id="paint11_radial_208_537" cx="0" cy="0" r="1" gradientUnits="userSpaceOnUse" gradientTransform="translate(9.03768 14.6006) rotate(20.5799) scale(13.4634 13.5829)">
<stop stop-color="white"/>
<stop offset="0.9375" stop-color="white" stop-opacity="0"/>
</radialGradient>
<linearGradient id="paint12_linear_208_537" x1="9.59327" y1="11.594" x2="17.691" y2="16.3785" gradientUnits="userSpaceOnUse">
<stop stop-color="white"/>
<stop offset="0.897752" stop-color="white" stop-opacity="0"/>
</linearGradient>
</defs>
</svg>
