<svg width="41" height="41" viewBox="0 0 41 41" fill="none" xmlns="http://www.w3.org/2000/svg">
<rect x="0.5" y="0.635742" width="40" height="40" rx="20" fill="white" fill-opacity="0.07"/>
<g clip-path="url(#clip0_208_567)">
<path fill-rule="evenodd" clip-rule="evenodd" d="M28.6996 11.7002C27.5996 11.7002 26.7996 12.6002 26.7996 13.6002C26.7996 14.4002 27.1996 15.0002 27.8996 15.3002C27.3996 17.0002 26.2996 19.1002 25.1996 20.5002C23.9996 22.0002 22.4996 22.7002 20.8996 22.7002C19.2996 22.7002 17.7996 22.0002 16.5996 20.5002C15.4996 19.1002 14.2996 17.0002 13.8996 15.3002C14.4996 15.0002 14.9996 14.3002 14.9996 13.6002C14.8996 12.5002 13.9996 11.7002 12.9996 11.7002C11.8996 11.7002 11.0996 12.6002 11.0996 13.6002C11.0996 14.5002 11.7996 15.3002 12.5996 15.5002C12.5996 17.7002 11.4996 21.5002 9.59961 22.6002L10.7996 26.9002H20.7996H30.7996L31.9996 22.6002C30.1996 21.5002 29.0996 17.8002 28.9996 15.5002C29.8996 15.3002 30.4996 14.6002 30.4996 13.6002C30.5996 12.5002 29.6996 11.7002 28.6996 11.7002Z" fill="url(#paint0_linear_208_567)"/>
<path fill-rule="evenodd" clip-rule="evenodd" d="M6 13.9C6 13.7 6.1 13.6 6.3 13.5C6.8 13.5 7.3 13.6 7.7 13.9C8.1 14.2 8.6 14.7 8.7 15.5L6.7 16L6 13.9Z" fill="url(#paint1_linear_208_567)"/>
<path fill-rule="evenodd" clip-rule="evenodd" d="M20.7996 7C19.2996 7 18.0996 8.2 18.0996 9.7V10.1H20.7996H23.4996V9.7C23.4996 8.2 22.2996 7 20.7996 7Z" fill="url(#paint2_linear_208_567)"/>
<path fill-rule="evenodd" clip-rule="evenodd" d="M35.6004 13.9C35.6004 13.7 35.5004 13.6 35.3004 13.5C34.8004 13.5 34.3004 13.6 33.9004 13.9C33.5004 14.2 33.0004 14.7 32.9004 15.5L34.9004 16L35.6004 13.9Z" fill="url(#paint3_linear_208_567)"/>
<path fill-rule="evenodd" clip-rule="evenodd" d="M32.2004 26.9004V30.1004C32.2004 30.3004 32.2004 30.5004 32.0004 30.7004C31.0004 32.3004 26.4004 33.6004 20.8004 33.6004C15.2004 33.6004 10.6004 32.3004 9.60039 30.7004C9.50039 30.5004 9.40039 30.3004 9.40039 30.1004V26.9004C10.6004 31.2004 31.1004 31.2004 32.2004 26.9004Z" fill="url(#paint4_linear_208_567)"/>
<path fill-rule="evenodd" clip-rule="evenodd" d="M20.7996 7.40039C22.2996 7.40039 23.4996 8.60039 23.4996 10.1004C23.4996 11.2004 22.7996 12.1004 21.8996 12.5004C22.5996 15.9004 24.0996 20.2004 27.3996 21.3004C30.1996 22.2004 32.7996 19.8004 33.5996 17.7004C32.9996 17.1004 32.7996 16.3004 32.9996 15.5004C33.2996 14.3004 34.4996 13.6004 35.6996 13.9004C34.2996 18.2004 33.0996 22.8004 32.2996 27.2004C31.9996 29.0004 26.9996 30.5004 20.8996 30.5004C14.7996 30.5004 9.89961 29.0004 9.49961 27.2004C8.69961 22.8004 7.49961 18.2004 6.09961 13.9004C7.29961 13.6004 8.49961 14.3004 8.79961 15.5004C8.99961 16.3004 8.69961 17.1004 8.19961 17.7004C8.99961 19.8004 11.5996 22.2004 14.3996 21.3004C17.6996 20.3004 19.1996 15.9004 19.8996 12.5004C18.9996 12.1004 18.2996 11.2004 18.2996 10.1004C18.1996 8.60039 19.3996 7.40039 20.7996 7.40039Z" fill="url(#paint5_linear_208_567)"/>
<path fill-rule="evenodd" clip-rule="evenodd" d="M20.7996 7.40039C22.2996 7.40039 23.4996 8.60039 23.4996 10.1004C23.4996 11.2004 22.7996 12.1004 21.8996 12.5004C22.5996 15.9004 24.0996 20.2004 27.3996 21.3004C30.1996 22.2004 32.7996 19.8004 33.5996 17.7004C32.9996 17.1004 32.7996 16.3004 32.9996 15.5004C33.2996 14.3004 34.4996 13.6004 35.6996 13.9004C34.2996 18.2004 33.0996 22.8004 32.2996 27.2004C31.9996 29.0004 26.9996 30.5004 20.8996 30.5004C14.7996 30.5004 9.89961 29.0004 9.49961 27.2004C8.69961 22.8004 7.49961 18.2004 6.09961 13.9004C7.29961 13.6004 8.49961 14.3004 8.79961 15.5004C8.99961 16.3004 8.69961 17.1004 8.19961 17.7004C8.99961 19.8004 11.5996 22.2004 14.3996 21.3004C17.6996 20.3004 19.1996 15.9004 19.8996 12.5004C18.9996 12.1004 18.2996 11.2004 18.2996 10.1004C18.1996 8.60039 19.3996 7.40039 20.7996 7.40039Z" fill="url(#paint6_linear_208_567)" style="mix-blend-mode:overlay"/>
<path fill-rule="evenodd" clip-rule="evenodd" d="M27.3998 21.2996C30.1998 22.1996 32.7998 19.7996 33.5998 17.6996C33.1998 19.3996 31.8998 21.4996 29.6998 22.0996C24.2998 23.4996 22.0998 16.6996 21.7998 12.5996C22.5998 15.8996 24.0998 20.2996 27.3998 21.2996Z" fill="url(#paint7_linear_208_567)"/>
<path fill-rule="evenodd" clip-rule="evenodd" d="M14.2996 21.2996C11.4996 22.1996 8.89961 19.7996 8.09961 17.6996C8.49961 19.3996 9.79961 21.4996 11.9996 22.0996C17.3996 23.4996 19.5996 16.6996 19.8996 12.5996C18.9996 15.8996 17.4996 20.2996 14.2996 21.2996Z" fill="url(#paint8_linear_208_567)"/>
<path opacity="0.65" fill-rule="evenodd" clip-rule="evenodd" d="M31.2996 28.2998C29.5996 29.5998 25.4996 30.4998 20.6996 30.4998C15.8996 30.4998 11.7996 29.5998 10.0996 28.2998C11.5996 29.6998 15.7996 30.6998 20.6996 30.6998C25.5996 30.6998 29.7996 29.7998 31.2996 28.2998Z" fill="url(#paint9_radial_208_567)"/>
<path fill-rule="evenodd" clip-rule="evenodd" d="M17.0996 22.0998L20.7996 20.2998L24.4996 22.0998L23.9996 28.3998L20.7996 29.2998L17.5996 28.3998L17.0996 22.0998Z" fill="#BE8954"/>
<path fill-rule="evenodd" clip-rule="evenodd" d="M17.5996 22.3998L20.7996 20.7998L23.9996 22.3998L23.5996 28.0998L20.7996 28.8998L18.0996 28.0998L17.5996 22.3998Z" fill="#E6E6E6"/>
<path fill-rule="evenodd" clip-rule="evenodd" d="M18.7002 23L19.1002 27.3L20.8002 27.8L22.6002 27.3L22.9002 23L20.8002 22L18.7002 23Z" fill="url(#paint10_radial_208_567)"/>
<path fill-rule="evenodd" clip-rule="evenodd" d="M18.0996 28.1004L19.0996 27.3004L18.6996 23.0004L17.5996 22.4004L18.0996 28.1004Z" fill="#F62A26"/>
<path fill-rule="evenodd" clip-rule="evenodd" d="M18.6996 22.9998L20.7996 21.9998V20.7998L17.5996 22.3998L18.6996 22.9998Z" fill="#FFB5A5"/>
<path fill-rule="evenodd" clip-rule="evenodd" d="M20.7996 27.7998L19.0996 27.2998L18.0996 28.0998L20.7996 28.8998V27.7998Z" fill="#B40F11"/>
<path fill-rule="evenodd" clip-rule="evenodd" d="M23.5996 28.1004L22.5996 27.3004L22.8996 23.0004L23.9996 22.4004L23.5996 28.1004Z" fill="#B40F11"/>
<path fill-rule="evenodd" clip-rule="evenodd" d="M22.8998 22.9998L20.7998 21.9998V20.7998L23.9998 22.3998L22.8998 22.9998Z" fill="#FB906C"/>
<path fill-rule="evenodd" clip-rule="evenodd" d="M20.7998 27.7998L22.5998 27.2998L23.5998 28.0998L20.7998 28.8998V27.7998Z" fill="#A80706"/>
<path opacity="0.65" fill-rule="evenodd" clip-rule="evenodd" d="M19.6996 22.2998C19.0996 22.5998 18.2996 22.7998 17.5996 22.3998L18.6996 22.9998L20.7996 21.9998V20.7998C20.7996 21.3998 20.2996 21.9998 19.6996 22.2998Z" fill="white"/>
<path opacity="0.45" fill-rule="evenodd" clip-rule="evenodd" d="M21.5998 27.6998C22.3998 27.3998 23.2998 27.7998 23.5998 28.0998L22.5998 27.2998L20.7998 27.7998V28.3998V28.5998C20.7998 28.1998 20.9998 27.8998 21.5998 27.6998Z" fill="white"/>
<path fill-rule="evenodd" clip-rule="evenodd" d="M17.5996 22.3998L20.7996 20.7998V20.2998L17.0996 22.0998L17.5996 22.3998Z" fill="url(#paint11_linear_208_567)"/>
<path fill-rule="evenodd" clip-rule="evenodd" d="M18.0996 28.0996L17.5996 22.3996L17.0996 22.0996L17.5996 28.3996L18.0996 28.0996Z" fill="url(#paint12_linear_208_567)"/>
<path fill-rule="evenodd" clip-rule="evenodd" d="M20.7996 28.8996L18.0996 28.0996L17.5996 28.3996L20.7996 29.2996V28.8996Z" fill="url(#paint13_linear_208_567)"/>
<path fill-rule="evenodd" clip-rule="evenodd" d="M23.9998 22.3998L20.7998 20.7998V20.2998L24.4998 22.0998L23.9998 22.3998Z" fill="url(#paint14_linear_208_567)"/>
<path fill-rule="evenodd" clip-rule="evenodd" d="M23.5996 28.0996L23.9996 22.3996L24.4996 22.0996L23.9996 28.3996L23.5996 28.0996Z" fill="url(#paint15_linear_208_567)"/>
<path fill-rule="evenodd" clip-rule="evenodd" d="M20.7998 28.8996L23.5998 28.0996L23.9998 28.3996L20.7998 29.2996V28.8996Z" fill="url(#paint16_linear_208_567)"/>
<path opacity="0.7" fill-rule="evenodd" clip-rule="evenodd" d="M17.4004 22.0004C18.4004 22.0004 20.0004 21.2004 20.6004 20.4004L17.4004 22.0004Z" fill="#FFFCE3"/>
<path fill-rule="evenodd" clip-rule="evenodd" d="M20.7996 7.40039C22.2996 7.40039 23.4996 8.60039 23.4996 10.1004C23.4996 11.6004 22.2996 12.8004 20.7996 12.8004C19.2996 12.8004 18.0996 11.6004 18.0996 10.1004C18.1996 8.60039 19.3996 7.40039 20.7996 7.40039Z" fill="url(#paint17_radial_208_567)"/>
</g>
<defs>
<linearGradient id="paint0_linear_208_567" x1="20.8234" y1="26.8364" x2="20.8234" y2="11.6925" gradientUnits="userSpaceOnUse">
<stop stop-color="#E86900"/>
<stop offset="1" stop-color="#FC8F00"/>
</linearGradient>
<linearGradient id="paint1_linear_208_567" x1="6" y1="14.7639" x2="8.6805" y2="14.7639" gradientUnits="userSpaceOnUse">
<stop stop-color="#ED8E00"/>
<stop offset="1" stop-color="#FFCB30"/>
</linearGradient>
<linearGradient id="paint2_linear_208_567" x1="20.8234" y1="10.0997" x2="20.8234" y2="7" gradientUnits="userSpaceOnUse">
<stop stop-color="#ED8E00"/>
<stop offset="1" stop-color="#FFCB30"/>
</linearGradient>
<linearGradient id="paint3_linear_208_567" x1="32.9674" y1="14.7639" x2="35.648" y2="14.7639" gradientUnits="userSpaceOnUse">
<stop stop-color="#ED8E00"/>
<stop offset="1" stop-color="#FFCB30"/>
</linearGradient>
<linearGradient id="paint4_linear_208_567" x1="9.44179" y1="30.2337" x2="32.2066" y2="30.2337" gradientUnits="userSpaceOnUse">
<stop offset="0.0520446" stop-color="#ED9500"/>
<stop offset="0.4033" stop-color="#FFCC00"/>
<stop offset="0.9257" stop-color="#B36600"/>
</linearGradient>
<linearGradient id="paint5_linear_208_567" x1="5.99961" y1="18.9962" x2="35.6472" y2="18.9962" gradientUnits="userSpaceOnUse">
<stop offset="0.0520446" stop-color="#ED9500"/>
<stop offset="0.4033" stop-color="#FFCC00"/>
<stop offset="0.9257" stop-color="#B36600"/>
</linearGradient>
<linearGradient id="paint6_linear_208_567" x1="12" y1="19" x2="25" y2="19" gradientUnits="userSpaceOnUse">
<stop stop-color="white" stop-opacity="0"/>
<stop offset="0.28125" stop-color="white"/>
<stop offset="0.9257" stop-color="white" stop-opacity="0"/>
</linearGradient>
<linearGradient id="paint7_linear_208_567" x1="21.8912" y1="17.3808" x2="33.6022" y2="17.3808" gradientUnits="userSpaceOnUse">
<stop stop-color="#ED8E00"/>
<stop offset="1" stop-color="#FFCB30"/>
</linearGradient>
<linearGradient id="paint8_linear_208_567" x1="8.04481" y1="17.3808" x2="19.7558" y2="17.3808" gradientUnits="userSpaceOnUse">
<stop stop-color="#FFCB30"/>
<stop offset="1" stop-color="#ED8E00"/>
</linearGradient>
<radialGradient id="paint9_radial_208_567" cx="0" cy="0" r="1" gradientUnits="userSpaceOnUse" gradientTransform="translate(20.7413 29.5645) scale(16.9403 16.9403)">
<stop stop-color="#FFF0B0"/>
<stop offset="1"/>
</radialGradient>
<radialGradient id="paint10_radial_208_567" cx="0" cy="0" r="1" gradientUnits="userSpaceOnUse" gradientTransform="translate(19.9556 22.2704) rotate(-2.7921) scale(5.55099)">
<stop stop-color="#F17755"/>
<stop offset="1" stop-color="#EF1312"/>
</radialGradient>
<linearGradient id="paint11_linear_208_567" x1="17.1494" y1="21.3483" x2="20.8234" y2="21.3483" gradientUnits="userSpaceOnUse">
<stop stop-color="#F5D36C"/>
<stop offset="1" stop-color="#FFF5B0"/>
</linearGradient>
<linearGradient id="paint12_linear_208_567" x1="17.6122" y1="28.436" x2="17.6122" y2="22.1338" gradientUnits="userSpaceOnUse">
<stop stop-color="#ED8E00"/>
<stop offset="1" stop-color="#FFCB30"/>
</linearGradient>
<linearGradient id="paint13_linear_208_567" x1="17.6495" y1="28.712" x2="20.8234" y2="28.712" gradientUnits="userSpaceOnUse">
<stop stop-color="#A34900"/>
<stop offset="1" stop-color="#F09C00"/>
</linearGradient>
<linearGradient id="paint14_linear_208_567" x1="20.8234" y1="21.3483" x2="24.4974" y2="21.3483" gradientUnits="userSpaceOnUse">
<stop stop-color="#F09C00"/>
<stop offset="1" stop-color="#A34900"/>
</linearGradient>
<linearGradient id="paint15_linear_208_567" x1="24.0343" y1="28.436" x2="24.0343" y2="22.1338" gradientUnits="userSpaceOnUse">
<stop stop-color="#A34900"/>
<stop offset="1" stop-color="#F09C00"/>
</linearGradient>
<linearGradient id="paint16_linear_208_567" x1="20.8234" y1="28.712" x2="23.9973" y2="28.712" gradientUnits="userSpaceOnUse">
<stop stop-color="#FFBF00"/>
<stop offset="1" stop-color="#DB6A00"/>
</linearGradient>
<radialGradient id="paint17_radial_208_567" cx="0" cy="0" r="1" gradientUnits="userSpaceOnUse" gradientTransform="translate(19.9749 9.37519) scale(3.6187)">
<stop stop-color="#FCCD10"/>
<stop offset="0.2207" stop-color="#EDAB09"/>
<stop offset="0.4492" stop-color="#E08E02"/>
<stop offset="0.5799" stop-color="#DB8300"/>
<stop offset="0.7066" stop-color="#D67D00"/>
<stop offset="0.8778" stop-color="#C86C00"/>
<stop offset="1" stop-color="#BA5B00"/>
</radialGradient>
<clipPath id="clip0_208_567">
<rect width="29.6" height="26.6" fill="white" transform="translate(6 7)"/>
</clipPath>
</defs>
</svg>
