<svg width="41" height="40" viewBox="0 0 41 40" fill="none" xmlns="http://www.w3.org/2000/svg">
<rect x="0.5" width="40" height="40" rx="20" fill="white" fill-opacity="0.07"/>
<path d="M33.0018 19.7642C32.8792 12.8309 28.5719 7.19631 23.1124 6.56836C22.1747 6.49154 21.3046 6.4308 20.3894 6.38257C19.8538 6.35398 19.3038 6.32897 18.7168 6.30664L18.7772 19.858L18.7763 33.3058C20.4723 33.3058 21.8356 33.2192 23.3035 33.0709C28.7802 32.2875 33.0622 26.5922 33.0018 19.7642Z" fill="url(#paint0_linear_208_522)"/>
<path d="M30.3186 19.2865C30.3452 12.1364 25.7254 6.31557 20.0261 6.30665C14.3267 6.29773 9.80977 12.1694 9.7832 19.3196C9.81686 26.575 14.4968 32.4993 20.1359 32.4047C25.775 32.3093 30.3522 26.542 30.3186 19.2865Z" fill="#FCCE3A"/>
<path d="M30.3177 19.7459C30.1596 12.2737 25.2184 6.29861 19.1308 6.30665C13.044 6.31469 7.84627 12.3934 8.00348 19.8665C8.16159 27.3387 13.1036 33.3147 19.1904 33.3058C25.3829 33.237 30.4758 27.219 30.3177 19.7459Z" fill="url(#paint1_radial_208_522)"/>
<path d="M28.7638 19.8295C28.7747 12.9566 24.2466 7.34288 18.7635 7.30101C13.2815 7.25914 8.83718 12.9859 8.82521 19.8589C8.81434 26.7318 13.3424 32.3455 18.8255 32.3874C24.3086 32.4293 28.8269 26.8271 28.7638 19.8295Z" fill="url(#paint2_radial_208_522)"/>
<path opacity="0.5" d="M21.8286 8.72736C16.5479 8.73783 12.4113 14.1213 12.3787 20.6708C12.3037 26.5755 15.6549 31.356 19.9393 32.252C19.774 32.3462 19.4923 32.3661 19.2258 32.3745C19.0811 32.3787 18.9408 32.3797 18.8255 32.387C13.4164 32.4697 8.88828 26.8571 8.8252 19.8585C8.83716 12.9855 13.2815 7.25877 18.8908 7.22737C20.7366 7.17608 22.4965 7.84286 24.0236 8.97753L21.8286 8.72736Z" fill="url(#paint3_radial_208_522)"/>
<path d="M19.2943 7.33264C14.3311 8.16481 10.6504 13.4551 10.671 19.8078C10.6917 26.1595 14.4138 31.5649 19.2073 32.1689C19.3171 32.1971 19.4042 32.1887 19.4944 32.1835C19.5695 32.1783 19.6456 32.1762 19.737 32.2003C19.6478 32.2515 19.5216 32.2411 19.4107 32.2557C19.3639 32.262 19.3193 32.2725 19.2812 32.2945C19.154 32.3667 19.0267 32.44 18.8255 32.3876C13.4164 32.4703 8.88828 26.8576 8.8252 19.8591C8.83716 12.9861 13.2815 7.25937 18.7635 7.30124C18.8277 7.2646 18.9103 7.25937 18.9919 7.25413C19.0735 7.2489 19.1562 7.24367 19.2203 7.20703C19.2943 7.33264 19.4216 7.25937 19.75 7.23843C19.687 7.27507 19.6043 7.2803 19.5216 7.28554C19.4401 7.29077 19.3585 7.296 19.2943 7.33264Z" fill="url(#paint4_linear_208_522)"/>
<path d="M26.6842 19.8322C26.6922 14.2028 23.3716 9.60479 19.3506 9.5705C15.3305 9.53621 12.0713 14.2268 12.0625 19.8562C12.0545 25.4855 15.3751 30.0835 19.3961 30.1178C23.417 30.1521 26.7305 25.5636 26.6842 19.8322Z" fill="white"/>
<path d="M26.1895 19.8452C26.1895 19.8452 26.1614 18.7493 26.0912 18.2217L19.3281 19.8452L19.3428 19.8457L26.1059 21.4692C26.1362 21.184 26.2048 19.2725 26.1895 19.8452Z" fill="#C71513"/>
<path d="M25.8253 16.618C25.8253 16.618 25.5446 15.6033 25.3763 15.1162L19.3428 19.8245V19.8452L26.1059 18.2216C26.0498 17.6737 25.8253 16.6387 25.8253 16.6387V16.618Z" fill="#1E1A1B"/>
<path fill-rule="evenodd" clip-rule="evenodd" d="M23.9871 12.5391C23.7065 12.1738 23.4119 11.8288 23.0891 11.5244L19.3614 19.8037L19.3428 19.8246L19.357 19.8135L19.3428 19.8451L19.4027 19.7778L25.3763 15.1163C25.1938 14.6293 24.9834 14.1828 24.7589 13.7363L24.7518 13.7443C24.5153 13.3227 24.265 12.9213 23.9871 12.5596L23.9871 12.5391Z" fill="#C71513"/>
<path d="M19.9034 9.96191C20.2963 10.0025 20.6611 10.0837 21.0259 10.2257L21.0406 10.2256C21.4054 10.3474 21.7702 10.53 22.1069 10.7532L22.1045 10.7613C22.4511 10.983 22.7839 11.2443 23.0891 11.5454L19.3428 19.8458L19.3281 19.8452L19.9034 9.96191Z" fill="#1E1A1B"/>
<path fill-rule="evenodd" clip-rule="evenodd" d="M19.8813 9.95767L19.9181 9.96149L19.3429 19.8448L19.3413 19.8184L19.3406 19.8161L19.3429 19.8448L19.3324 19.7892L16.5791 10.7532C16.9156 10.5505 17.2801 10.368 17.6446 10.2259C18.0094 10.1042 18.3882 10.0025 18.767 9.96191L18.8044 9.95767C18.987 9.93873 19.1588 9.9209 19.3429 9.9209C19.527 9.9209 19.6988 9.93873 19.8813 9.95767Z" fill="#C71513"/>
<path d="M15.582 11.5454C15.9048 11.241 16.2275 10.9771 16.5783 10.7539L19.3424 19.8458L19.2937 19.7716L19.3282 19.8257L19.3078 19.8027L19.327 19.8453L19.2798 19.7713L13.9121 13.7374C14.1506 13.3112 14.4032 12.9053 14.6838 12.54L14.6899 12.5496C14.9684 12.1684 15.2607 11.8467 15.5806 11.5449L15.582 11.5454Z" fill="#468E17"/>
<path d="M13.3156 15.1208C13.4966 14.6395 13.7049 14.1783 13.9269 13.7568L19.3145 19.813L19.3292 19.8245L19.3212 19.8205L19.343 19.8451L19.2949 19.8075L12.8467 16.618C12.973 16.1106 13.1273 15.6033 13.3097 15.1162L13.3156 15.1208Z" fill="#C71513"/>
<path d="M19.3428 19.8447L25.3763 24.5743C25.5587 24.0872 25.713 23.6001 25.8253 23.0725C25.9515 22.5651 26.0357 22.0365 26.1059 21.4886L19.3428 19.8447Z" fill="#1E1A1B"/>
<path d="M23.9867 27.1307C23.7062 27.5161 23.4117 27.8406 23.0891 28.1449L19.3757 19.8974L19.3751 19.8965L19.3291 19.8447L19.3552 19.8652L19.3428 19.8457L19.3624 19.8677L19.3428 19.8242L19.3823 19.8864L25.3626 24.5733C25.1814 25.0368 24.9864 25.5004 24.7501 25.9242L24.7589 25.934C24.5203 26.3602 24.2674 26.7654 23.9867 27.1307Z" fill="#C71513"/>
<path fill-rule="evenodd" clip-rule="evenodd" d="M22.0929 28.9366C21.7562 29.1598 21.3913 29.3222 21.0265 29.4642C20.6617 29.586 20.2829 29.6884 19.904 29.729L19.3428 19.8457L19.3432 19.847L23.0891 28.1461C22.7805 28.4302 22.4437 28.694 22.0929 28.9173V28.9366Z" fill="#1E1A1B"/>
<path d="M16.5791 28.9161C16.9159 29.1393 17.2807 29.322 17.6455 29.4437L17.6592 29.4652C18.0196 29.6056 18.3801 29.6865 18.7676 29.7276C18.95 29.7478 19.1464 29.7686 19.3288 29.7686C19.5253 29.7686 19.7077 29.7483 19.8901 29.7281L19.3359 19.9694L19.3429 19.8457L19.3323 19.9063L19.3288 19.8447L19.322 19.9655L19.3292 19.8242L16.5791 28.9161Z" fill="#C71513"/>
<path d="M12.8597 23.051C12.7334 22.5437 12.6352 22.016 12.5791 21.4681L19.3422 19.8242L19.3282 19.8457L19.3421 19.8447L13.926 25.933C13.7015 25.5068 13.491 25.0604 13.3086 24.5733L13.2947 24.5743C13.1263 24.0872 12.972 23.6001 12.8457 23.0725L12.8597 23.051Z" fill="#C71513"/>
<path d="M12.5654 18.2011C12.6356 17.6532 12.7198 17.1255 12.8461 16.6182L19.3285 19.8247L19.2604 19.8254L19.3428 19.8252L19.3013 19.8353L19.3428 19.8452H19.2604L12.5797 21.469C12.5095 20.9414 12.4814 20.3934 12.4814 19.8455C12.4814 19.2975 12.5235 18.7493 12.5797 18.2217L12.5654 18.2011Z" fill="#1E1A1B"/>
<path fill-rule="evenodd" clip-rule="evenodd" d="M14.6985 27.1311C14.4179 26.7658 14.1653 26.36 13.9268 25.9338L19.3155 19.8561L19.3294 19.8252L19.3224 19.8483L19.3429 19.8252L19.3171 19.8657L19.3062 19.9019L19.3426 19.8447L19.2846 19.9734L16.5792 28.917C16.2284 28.7141 15.8917 28.4503 15.583 28.1459L15.5872 28.1365C15.2682 27.8344 14.9764 27.4928 14.6985 27.1311Z" fill="#1E1A1B"/>
<path d="M22.4313 19.8377C22.4353 16.7719 20.7831 14.2678 18.7825 14.2491C16.7822 14.2304 15.1606 16.785 15.1563 19.8507C15.1523 22.9165 16.8045 25.4206 18.8051 25.4393C20.8057 25.458 22.4543 22.959 22.4313 19.8377Z" fill="url(#paint5_radial_208_522)"/>
<rect x="22.9844" y="14.249" width="1.2777" height="13.255" transform="rotate(41.2349 22.9844 14.249)" fill="url(#paint6_linear_208_522)"/>
<rect x="13.6445" y="16.2637" width="1.2777" height="13.3671" transform="rotate(-48.7651 13.6445 16.2637)" fill="url(#paint7_linear_208_522)"/>
<circle cx="14.2741" cy="15.9509" r="0.964559" fill="url(#paint8_radial_208_522)"/>
<circle cx="14.8357" cy="24.5085" r="0.964559" fill="url(#paint9_radial_208_522)"/>
<circle cx="23.4138" cy="14.7009" r="0.964559" fill="url(#paint10_radial_208_522)"/>
<circle cx="23.5739" cy="24.1091" r="0.964559" fill="url(#paint11_radial_208_522)"/>
<path d="M20.2935 19.8208C20.2955 18.3098 19.4812 17.0757 18.4952 17.0665C17.5094 17.0573 16.7102 18.3162 16.708 19.8272C16.7061 21.3382 17.5203 22.5723 18.5063 22.5815C19.4924 22.5907 20.3049 21.3591 20.2935 19.8208Z" fill="url(#paint12_radial_208_522)"/>
<path d="M22.0249 10.8562C14.0376 5.94643 9.46413 22.7201 14.8518 25.6271C15.6844 20.0578 18.055 14.1422 22.0249 10.8562Z" fill="url(#paint13_linear_208_522)"/>
<defs>
<linearGradient id="paint0_linear_208_522" x1="25.8894" y1="33.2497" x2="25.7723" y2="6.29902" gradientUnits="userSpaceOnUse">
<stop stop-color="#C45800"/>
<stop offset="0.6877" stop-color="#FC940D"/>
<stop offset="1" stop-color="#E86F0C"/>
</linearGradient>
<radialGradient id="paint1_radial_208_522" cx="0" cy="0" r="1" gradientUnits="userSpaceOnUse" gradientTransform="translate(8.76395 11.744) rotate(-29.9687) scale(23.7517 23.618)">
<stop stop-color="#FCF80D"/>
<stop offset="1" stop-color="#FC9C0D"/>
</radialGradient>
<radialGradient id="paint2_radial_208_522" cx="0" cy="0" r="1" gradientUnits="userSpaceOnUse" gradientTransform="translate(-1.851 11.8794) rotate(-29.7987) scale(34.8802 34.5642)">
<stop stop-color="#FCF80D"/>
<stop offset="0.785224" stop-color="#ED8409"/>
<stop offset="1" stop-color="#D16603"/>
</radialGradient>
<radialGradient id="paint3_radial_208_522" cx="0" cy="0" r="1" gradientUnits="userSpaceOnUse" gradientTransform="translate(25.1454 19.2514) rotate(-29.7987) scale(20.1513 19.9687)">
<stop offset="0.5149" stop-color="white"/>
<stop offset="0.6851" stop-color="#FFE2C3"/>
<stop offset="1" stop-color="#FFA84B"/>
</radialGradient>
<linearGradient id="paint4_linear_208_522" x1="14.3292" y1="32.4509" x2="14.2225" y2="7.66951" gradientUnits="userSpaceOnUse">
<stop stop-color="#FC940D"/>
<stop offset="1" stop-color="#E86F0C"/>
</linearGradient>
<radialGradient id="paint5_radial_208_522" cx="0" cy="0" r="1" gradientUnits="userSpaceOnUse" gradientTransform="translate(11.2608 16.2914) rotate(-34.9963) scale(13.4816 14.5546)">
<stop stop-color="#FCF80D"/>
<stop offset="1" stop-color="#F78A0C"/>
</radialGradient>
<linearGradient id="paint6_linear_208_522" x1="23.8184" y1="26.3628" x2="23.7681" y2="15.0887" gradientUnits="userSpaceOnUse">
<stop stop-color="#EE7B0C"/>
<stop offset="0.484375" stop-color="#C35800"/>
<stop offset="1" stop-color="#EE7B0C"/>
</linearGradient>
<linearGradient id="paint7_linear_208_522" x1="14.4786" y1="28.4798" x2="14.4274" y2="17.1105" gradientUnits="userSpaceOnUse">
<stop stop-color="#EE7B0C"/>
<stop offset="0.484375" stop-color="#C35800"/>
<stop offset="1" stop-color="#EE7B0C"/>
</linearGradient>
<radialGradient id="paint8_radial_208_522" cx="0" cy="0" r="1" gradientUnits="userSpaceOnUse" gradientTransform="translate(13.6782 15.6439) rotate(10.0834) scale(1.58516 1.33173)">
<stop stop-color="#F9BD0C"/>
<stop offset="0.697917" stop-color="#E86F0C"/>
<stop offset="1" stop-color="#D06303"/>
</radialGradient>
<radialGradient id="paint9_radial_208_522" cx="0" cy="0" r="1" gradientUnits="userSpaceOnUse" gradientTransform="translate(14.2398 24.2015) rotate(10.0834) scale(1.58516 1.33173)">
<stop stop-color="#F9BD0C"/>
<stop offset="0.697917" stop-color="#E86F0C"/>
<stop offset="1" stop-color="#D06303"/>
</radialGradient>
<radialGradient id="paint10_radial_208_522" cx="0" cy="0" r="1" gradientUnits="userSpaceOnUse" gradientTransform="translate(22.8179 14.3939) rotate(10.0834) scale(1.58516 1.33173)">
<stop stop-color="#F9BD0C"/>
<stop offset="0.697917" stop-color="#E86F0C"/>
<stop offset="1" stop-color="#D06303"/>
</radialGradient>
<radialGradient id="paint11_radial_208_522" cx="0" cy="0" r="1" gradientUnits="userSpaceOnUse" gradientTransform="translate(22.978 23.8021) rotate(10.0834) scale(1.58516 1.33173)">
<stop stop-color="#F9BD0C"/>
<stop offset="0.697917" stop-color="#E86F0C"/>
<stop offset="1" stop-color="#D06303"/>
</radialGradient>
<radialGradient id="paint12_radial_208_522" cx="0" cy="0" r="1" gradientUnits="userSpaceOnUse" gradientTransform="translate(17.3932 18.9464) rotate(15.2975) scale(3.00736 3.73002)">
<stop stop-color="#F9BD0C"/>
<stop offset="0.697917" stop-color="#E86F0C"/>
<stop offset="1" stop-color="#D06303"/>
</radialGradient>
<linearGradient id="paint13_linear_208_522" x1="21.0652" y1="1.79261" x2="17.4611" y2="20.2056" gradientUnits="userSpaceOnUse">
<stop stop-color="white"/>
<stop offset="1" stop-color="white" stop-opacity="0"/>
</linearGradient>
</defs>
</svg>
