<svg width="41" height="40" viewBox="0 0 41 40" fill="none" xmlns="http://www.w3.org/2000/svg">
<rect x="0.5" width="40" height="40" rx="20" fill="white" fill-opacity="0.07"/>
<path d="M9.50195 15.8383C9.50195 15.8383 10.5769 15.7985 11.9704 15.3605C12.2491 14.0069 12.6472 12.6134 13.125 11.2598C11.8111 12.494 10.5371 14.0467 9.50195 15.8383Z" fill="url(#paint0_linear_208_527)"/>
<path d="M13.1253 11.2602C12.6475 12.6139 12.2494 13.9675 11.9707 15.361C12.8466 15.0823 13.8817 14.6842 14.8771 14.0073C14.9169 12.375 15.116 10.8223 15.5539 9.26953C14.7975 9.82692 13.9614 10.5037 13.1253 11.2602Z" fill="url(#paint1_linear_208_527)"/>
<path d="M15.5538 9.26915C15.1556 10.8219 14.9566 12.4144 14.877 14.0069C15.5936 13.5292 16.3102 12.8922 16.9074 12.1357C16.9871 10.7422 17.1463 9.38859 17.3852 7.99512C16.8676 8.35344 16.2306 8.75157 15.5538 9.26915Z" fill="url(#paint2_linear_208_527)"/>
<path d="M18.6592 8.59314C18.6991 8.15519 18.7389 7.71724 18.8185 7.2793C18.8185 7.2793 18.2611 7.51818 17.425 8.03575C17.1861 9.38941 17.0269 10.7829 16.9473 12.1763C17.6639 11.2208 18.3009 10.0662 18.6592 8.59314Z" fill="url(#paint3_linear_208_527)"/>
<path d="M18.8186 6.95992C18.8186 7.03955 18.8186 7.15899 18.7787 7.23862C18.7787 7.23862 12.6873 10.1052 9.50221 15.8383C9.42258 11.1801 13.2049 6.40253 18.7787 6.64141C18.7787 6.76085 18.8186 6.8803 18.8186 6.95992Z" fill="#75D736"/>
<path d="M19.973 6.64114C25.945 3.21718 33.0318 6.80039 35.8187 14.2853C26.3431 7.03927 19.8535 7.19853 19.8535 7.19853C19.8933 7.03927 19.9331 6.84021 19.973 6.64114Z" fill="#75D736"/>
<path d="M29.6875 10.3037C30.7226 11.6972 31.6782 13.1703 32.5541 14.6832C34.4651 14.6036 35.8188 14.2851 35.8188 14.2851C33.5892 12.5731 31.5189 11.2592 29.6875 10.3037Z" fill="url(#paint4_linear_208_527)"/>
<path d="M19.8535 7.19837C20.1322 7.79557 20.4109 8.43259 20.6498 9.0696C21.8044 11.1001 23.3571 12.4139 25.0691 13.2898C24.3524 11.2992 23.4367 9.3483 22.4016 7.55669C20.7294 7.15856 19.8535 7.19837 19.8535 7.19837Z" fill="url(#paint5_linear_208_527)"/>
<path d="M25.7863 8.55273C24.4326 8.03515 23.278 7.71665 22.3623 7.51758C23.4373 9.349 24.3132 11.26 25.0298 13.2507C26.264 13.8877 27.5779 14.246 28.8519 14.4451C27.9362 12.4544 26.901 10.4638 25.7863 8.55273Z" fill="url(#paint6_linear_208_527)"/>
<path d="M29.6871 10.3045C28.2538 9.54807 26.9798 8.99068 25.8252 8.55273C26.94 10.4638 27.9751 12.4544 28.9306 14.4849C30.2445 14.684 31.5185 14.7238 32.5935 14.684C31.638 13.1711 30.7222 11.698 29.6871 10.3045Z" fill="url(#paint7_linear_208_527)"/>
<path d="M14.9953 23.6426C14.7962 24.0407 14.5573 24.3592 14.3582 24.7175C13.6416 24.7175 13.6416 24.2796 13.6416 24.2796C13.8009 24.0009 13.9999 23.7222 14.1592 23.3639C15.7915 20.4973 17.7424 15.7595 18.5785 8.59311C18.6183 8.15516 18.6581 7.71721 18.7377 7.27926C18.7377 7.19964 18.7377 7.0802 18.7775 7.00057C18.7775 6.88113 18.7377 6.76169 18.7377 6.68206C18.7377 6.60244 18.7377 6.52281 18.7377 6.44318C18.7377 5.64691 18.3396 4.89046 18.3396 4.89046C18.3794 4.97009 19.3349 4.45251 19.6136 2.9396C19.6534 2.78035 19.6534 2.66091 19.6534 2.62109C19.7331 3.05904 20.0914 5.32841 19.8923 6.68206C19.8525 6.88113 19.8127 7.0802 19.7729 7.23945C20.0516 7.83665 20.3303 8.47367 20.5691 9.11068C23.0376 15.3614 27.0189 22.7667 27.1383 24.2796C27.0189 24.3592 26.8995 24.399 26.78 24.4388C26.6606 24.4787 26.5411 24.4388 26.3819 24.4388C26.2625 23.125 22.2413 14.8438 19.4145 8.39404C18.6581 15.7197 16.7072 20.6168 14.9953 23.6426Z" fill="url(#paint8_linear_208_527)"/>
<path d="M19.6932 2.58158C19.6932 2.66121 19.6932 2.74084 19.6534 2.90009C19.3747 4.413 18.4192 4.93057 18.3793 4.85095C18.1405 4.49263 19.5737 2.02419 19.6932 2.58158Z" fill="#32660E"/>
<path d="M22.7551 23.976C24.8408 27.5945 20.9947 35.9308 13.6275 33.8309C7.73375 32.151 7.26685 25.9218 9.24297 22.4902C9.70546 21.6691 10.3574 20.9953 11.0728 20.616C13.955 19.0568 15.2401 21.1185 16.3771 22.0017C16.5666 22.1489 16.735 22.233 16.9034 22.317C17.0928 22.359 17.3033 22.3589 17.5137 22.3587C18.9026 22.2106 21.0907 21.0938 22.7551 23.976Z" fill="url(#paint9_radial_208_527)"/>
<path d="M22.7555 23.9771C22.587 23.6825 22.3974 23.4301 22.2078 23.1777C22.4006 28.481 16.5532 33.6618 11.7961 32.339C11.2488 32.1709 10.7015 32.0029 10.1753 31.7928C10.9966 32.6762 12.1755 33.3699 13.649 33.7899C20.9531 35.9109 24.8413 27.5956 22.7555 23.9771Z" fill="url(#paint10_linear_208_527)" fill-opacity="0.5"/>
<path d="M14.6727 21.623C8.63103 18.9751 7.81695 29.6666 11.8376 31.2004C11.646 27.686 12.4433 23.8762 14.6727 21.623Z" fill="url(#paint11_linear_208_527)"/>
<path d="M8.4266 28.6567C8.9752 30.9293 10.5759 32.9907 13.6281 33.8306C16.9749 34.8177 19.6048 33.5533 21.3082 31.6161C20.6549 30.1854 19.707 28.818 18.2541 27.5141C15.327 24.6327 11.0135 25.8982 8.4266 28.6567Z" fill="url(#paint12_linear_208_527)" fill-opacity="0.5"/>
<path d="M20.8404 23.0721C20.8404 23.0721 19.9981 22.2308 17.957 22.7371C16.1053 23.1802 16.0202 21.7703 15.3048 21.9391C14.5683 22.15 15.1166 23.8964 17.1373 24.4844C19.7895 25.1773 20.8404 23.0721 20.8404 23.0721Z" fill="url(#paint13_linear_208_527)"/>
<path d="M30.4471 21.2289C33.7932 23.4445 34.0645 32.2618 26.8298 33.6184C21.042 34.7036 17.9672 29.5488 18.1933 25.7506C18.2385 24.8462 18.5098 23.9871 18.962 23.3541C20.7707 20.7767 22.7602 21.9975 24.1167 22.2689C24.3428 22.3141 24.5237 22.3141 24.7045 22.3141C24.8854 22.2689 25.0663 22.1784 25.2472 22.088C26.3776 21.3645 27.7793 19.4654 30.4471 21.2289Z" fill="url(#paint14_radial_208_527)"/>
<path d="M30.4481 21.2295C30.1768 21.0486 29.9055 20.913 29.6342 20.7773C32.076 25.2538 29.2725 32.2173 24.6151 33.1216C24.0725 33.2121 23.5299 33.3025 22.9873 33.3477C24.0725 33.7547 25.3838 33.8451 26.8308 33.5738C34.0203 32.2625 33.7942 23.4452 30.4481 21.2295Z" fill="url(#paint15_linear_208_527)"/>
<path d="M22.4895 22.6748C16.1591 22.9913 20.0477 32.5321 24.1625 32.1252C22.4895 29.1861 21.5399 25.5687 22.4895 22.6748Z" fill="url(#paint16_linear_208_527)"/>
<path d="M20.1377 31.4023C21.5846 33.1205 23.8455 34.2057 26.8298 33.6179C30.1307 33.0301 31.8489 30.8145 32.482 28.4179C31.3063 27.4684 29.9046 26.6997 28.0959 26.2023C24.3429 24.9814 21.1777 27.9206 20.1377 31.4023Z" fill="url(#paint17_linear_208_527)"/>
<path d="M28.4124 21.2733C28.4124 21.2733 27.3272 20.9115 25.7898 22.2228C24.388 23.3985 23.7098 22.2228 23.1672 22.675C22.6246 23.1724 23.8454 24.4385 25.835 24.0767C28.4124 23.5341 28.4124 21.2733 28.4124 21.2733Z" fill="url(#paint18_linear_208_527)"/>
<defs>
<linearGradient id="paint0_linear_208_527" x1="8.21223" y1="16.0848" x2="9.23927" y2="11.2636" gradientUnits="userSpaceOnUse">
<stop stop-color="#75D736"/>
<stop offset="1" stop-color="#32660E"/>
</linearGradient>
<linearGradient id="paint1_linear_208_527" x1="10.6952" y1="15.6889" x2="12.4709" y2="9.49244" gradientUnits="userSpaceOnUse">
<stop stop-color="#75D736"/>
<stop offset="1" stop-color="#32660E"/>
</linearGradient>
<linearGradient id="paint2_linear_208_527" x1="13.9841" y1="14.3306" x2="16.2826" y2="8.64158" gradientUnits="userSpaceOnUse">
<stop stop-color="#75D736"/>
<stop offset="1" stop-color="#32660E"/>
</linearGradient>
<linearGradient id="paint3_linear_208_527" x1="16.2811" y1="12.44" x2="18.2718" y2="7.92758" gradientUnits="userSpaceOnUse">
<stop stop-color="#75D736"/>
<stop offset="1" stop-color="#32660E"/>
</linearGradient>
<linearGradient id="paint4_linear_208_527" x1="34.2919" y1="12.8667" x2="30.3738" y2="10.8734" gradientUnits="userSpaceOnUse">
<stop stop-color="#75D736"/>
<stop offset="1" stop-color="#32660E"/>
</linearGradient>
<linearGradient id="paint5_linear_208_527" x1="23.7702" y1="10.7628" x2="19.9449" y2="9.57284" gradientUnits="userSpaceOnUse">
<stop stop-color="#75D736"/>
<stop offset="1" stop-color="#32660E"/>
</linearGradient>
<linearGradient id="paint6_linear_208_527" x1="27.2357" y1="11.5718" x2="22.5575" y2="9.97924" gradientUnits="userSpaceOnUse">
<stop stop-color="#75D736"/>
<stop offset="1" stop-color="#32660E"/>
</linearGradient>
<linearGradient id="paint7_linear_208_527" x1="30.9079" y1="12.1491" x2="26.2151" y2="10.2708" gradientUnits="userSpaceOnUse">
<stop stop-color="#75D736"/>
<stop offset="1" stop-color="#32660E"/>
</linearGradient>
<linearGradient id="paint8_linear_208_527" x1="20.39" y1="2.62109" x2="20.39" y2="24.7175" gradientUnits="userSpaceOnUse">
<stop stop-color="#75D736"/>
<stop offset="1" stop-color="#32660E"/>
</linearGradient>
<radialGradient id="paint9_radial_208_527" cx="0" cy="0" r="1" gradientUnits="userSpaceOnUse" gradientTransform="translate(10.498 20.5) rotate(34.2869) scale(13.3135 9.26111)">
<stop stop-color="#EF1211"/>
<stop offset="0.717771" stop-color="#AA0807"/>
<stop offset="1" stop-color="#7A0100"/>
</radialGradient>
<linearGradient id="paint10_linear_208_527" x1="20.5855" y1="37.4202" x2="17.3029" y2="29.8341" gradientUnits="userSpaceOnUse">
<stop stop-color="#FFD466"/>
<stop offset="1" stop-color="#FFD466" stop-opacity="0"/>
</linearGradient>
<linearGradient id="paint11_linear_208_527" x1="12.8022" y1="16.0232" x2="11.6417" y2="27.5638" gradientUnits="userSpaceOnUse">
<stop stop-color="white"/>
<stop offset="1" stop-color="white" stop-opacity="0"/>
</linearGradient>
<linearGradient id="paint12_linear_208_527" x1="13.731" y1="36.7436" x2="15.6103" y2="25.786" gradientUnits="userSpaceOnUse">
<stop stop-color="#EF1211"/>
<stop offset="1" stop-color="#F58E45" stop-opacity="0"/>
</linearGradient>
<linearGradient id="paint13_linear_208_527" x1="18.2213" y1="20.0543" x2="17.6602" y2="25.3184" gradientUnits="userSpaceOnUse">
<stop stop-color="white"/>
<stop offset="1" stop-color="white" stop-opacity="0"/>
</linearGradient>
<radialGradient id="paint14_radial_208_527" cx="0" cy="0" r="1" gradientUnits="userSpaceOnUse" gradientTransform="translate(20.498 24.5) rotate(27.8973) scale(19.2354 13.3805)">
<stop stop-color="#EF1211"/>
<stop offset="0.761836" stop-color="#AA0807"/>
</radialGradient>
<linearGradient id="paint15_linear_208_527" x1="34.352" y1="33.7177" x2="28.2742" y2="28.6048" gradientUnits="userSpaceOnUse">
<stop stop-color="#FFD466"/>
<stop offset="1" stop-color="#FFD466" stop-opacity="0"/>
</linearGradient>
<linearGradient id="paint16_linear_208_527" x1="18.4781" y1="18.6635" x2="22.4333" y2="29.0829" gradientUnits="userSpaceOnUse">
<stop stop-color="white"/>
<stop offset="1" stop-color="white" stop-opacity="0"/>
</linearGradient>
<linearGradient id="paint17_linear_208_527" x1="28.1684" y1="36.078" x2="25.0814" y2="25.8513" gradientUnits="userSpaceOnUse">
<stop stop-color="#EF1211"/>
<stop offset="1" stop-color="#F58E45" stop-opacity="0"/>
</linearGradient>
<linearGradient id="paint18_linear_208_527" x1="24.8656" y1="19.803" x2="26.6424" y2="24.5693" gradientUnits="userSpaceOnUse">
<stop stop-color="white"/>
<stop offset="1" stop-color="white" stop-opacity="0"/>
</linearGradient>
</defs>
</svg>
