<svg width="40" height="40" viewBox="0 0 40 40" fill="none" xmlns="http://www.w3.org/2000/svg">
<rect width="40" height="40" rx="20" fill="white" fill-opacity="0.07"/>
<path d="M19.9971 33.5C27.4513 33.5 33.4941 27.4571 33.4941 20.0029C33.4941 12.5487 27.4513 6.50586 19.9971 6.50586C12.5428 6.50586 6.5 12.5487 6.5 20.0029C6.5 27.4571 12.5428 33.5 19.9971 33.5Z" fill="#F76D2F"/>
<path d="M27.0192 8.47266C28.9861 10.8188 30.1673 13.8369 30.1673 17.1367C30.1673 24.5923 24.1258 30.6338 16.6701 30.6338C14.1018 30.6338 11.7015 29.9132 9.65332 28.667C12.1295 31.62 15.8465 33.5002 20.0024 33.5002C27.4581 33.5002 33.4996 27.4587 33.4996 20.003C33.4996 15.121 30.9042 10.8405 27.0192 8.47266Z" fill="#E0602D"/>
<path d="M15.1144 28.6614C15.1934 28.8383 15.2752 29.0122 15.3598 29.1829C16.002 30.4755 16.6054 31.459 17.3284 32.191C17.9023 32.7722 18.5469 33.1903 19.3353 33.4833C19.8916 33.5111 20.445 33.504 20.9926 33.4634L21.0139 33.2734C19.1219 32.774 17.6485 31.3627 16.5815 29.4833C16.4332 29.2221 16.2928 28.9519 16.1602 28.6738C17.2519 28.7463 18.0426 28.9745 18.6734 29.2766C19.3311 29.5915 19.8241 29.9905 20.3166 30.4018L20.401 30.4723L20.4033 30.4743C21.2124 31.1531 22.0803 31.8812 23.601 32.1786L23.679 32.1939C24.2187 32.3 24.7541 32.4051 25.2286 32.3373C25.3626 32.3179 25.4832 32.2989 25.5917 32.2806C25.8447 32.1649 26.0941 32.0414 26.3393 31.9104C26.4239 31.8693 26.5079 31.824 26.59 31.7756C26.9801 31.5578 27.3594 31.3208 27.7264 31.0653L27.6219 30.9006L27.6175 30.902C27.6079 30.9063 27.5878 30.9154 27.5548 30.9292C27.5027 30.9508 27.4267 30.9806 27.3292 31.0146C27.1342 31.0827 26.854 31.1675 26.5073 31.2384C25.8135 31.3804 24.8573 31.466 23.7864 31.2551C23.6199 31.2219 23.463 31.183 23.3142 31.1389C22.32 30.8447 21.6902 30.3214 21.004 29.748L20.9894 29.7358C20.4204 29.2616 19.8214 28.7624 18.9918 28.3799C18.1823 28.0065 17.1634 27.7483 15.7442 27.712C15.3961 26.8225 15.1211 25.8773 14.9179 24.9128C16.0991 25.0432 17.3239 25.1114 18.5462 25.1114C19.3256 25.1114 20.106 25.0841 20.8748 25.0295C23.4099 24.8387 25.7582 24.3587 27.8532 23.5929C30.1673 22.749 31.9532 21.6702 33.4985 20.196C33.5045 19.8039 33.4931 19.4136 33.465 19.0262L33.3501 19.1388C29.6592 22.755 23.7336 24.175 18.5299 24.175C17.2158 24.175 15.9378 24.0931 14.7392 23.9474C14.5668 22.8706 14.4819 21.7865 14.4819 20.7444C14.4819 20.3157 14.49 19.8926 14.506 19.4757C14.5989 19.4792 14.6901 19.4809 14.7797 19.4809C17.4846 19.4809 18.7542 17.9164 20.1137 16.2409L20.1475 16.1992L20.1569 16.1876C21.0336 15.0944 22.0108 13.878 23.5026 12.9257C25.6657 11.5446 27.2294 11.0352 28.2425 10.8677C28.749 10.784 29.1187 10.7857 29.3579 10.8069C29.4776 10.8175 29.5649 10.8331 29.6206 10.8454C29.6484 10.8516 29.6683 10.8569 29.6803 10.8604L29.692 10.864L29.6895 10.8631L29.6856 10.8615C29.6856 10.8615 29.679 10.8588 29.6721 10.8554L29.7835 10.7C29.5268 10.4293 29.2583 10.1686 28.9785 9.91891C28.2932 9.8551 26.5476 9.98938 22.9992 12.1307C21.4289 13.075 20.4306 14.3286 19.567 15.4129L19.4078 15.6126L19.4041 15.6173C18.7402 16.4444 18.1539 17.1729 17.4434 17.6996C16.742 18.2196 15.9158 18.5445 14.7689 18.5445C14.6991 18.5445 14.6282 18.5433 14.556 18.5409C14.7192 16.1709 15.1493 14.0356 15.8232 12.2767C16.8705 9.55489 19.0453 7.55392 21.1492 6.73459L21.1208 6.54924C21.0487 6.54332 20.9766 6.53799 20.9046 6.53325C20.7483 6.52038 20.589 6.51058 20.4321 6.50751C20.2344 6.50087 20.0372 6.49865 19.8406 6.50078C17.697 7.46122 16.0134 9.15348 14.9458 11.9385C14.2397 13.7836 13.7905 16.0049 13.6189 18.4486C13.4318 18.419 13.2371 18.3823 13.0345 18.3378C12.4739 18.2149 12.0207 17.9742 11.6682 17.6211C11.3152 17.2674 11.0539 16.7916 10.8931 16.1848C10.612 15.1178 10.6715 13.6703 11.082 12.215C11.2645 11.5616 11.569 10.8255 11.9024 10.1866C12.2392 9.54132 12.5926 9.02032 12.8647 8.77762L12.7425 8.62244C12.1816 8.97921 11.6466 9.37747 11.1426 9.81447C10.7408 10.4346 10.4288 11.2018 10.1796 11.9456C9.63575 13.5498 9.65147 15.1611 9.9807 16.4167C10.383 17.9464 11.3689 18.9333 12.8296 19.2541L12.8307 19.2543C13.0852 19.3087 13.3307 19.353 13.5672 19.3874C13.5492 19.8334 13.5401 20.2861 13.5401 20.7444C13.5401 21.7828 13.6138 22.812 13.7566 23.8111C11.9542 23.5294 10.3807 23.1043 9.20052 22.6082C8.49897 22.3159 7.89393 22.0041 7.45448 21.6945C7.23478 21.5397 7.06173 21.3891 6.93921 21.2462C6.81873 21.1057 6.75569 20.9826 6.73556 20.8786L6.72741 20.7866L6.52441 20.7956C6.5245 20.7971 6.52458 20.7987 6.52467 20.8002C6.52583 20.8197 6.52703 20.8391 6.52828 20.8586C6.52823 20.8455 6.52819 20.8273 6.52819 20.8042L6.52839 20.8065C6.52851 20.8316 6.52857 20.8505 6.52858 20.8633C6.55553 21.2824 6.60208 21.6984 6.66755 22.1099C6.78314 22.2637 6.92229 22.4161 7.12904 22.5767C7.46364 22.8366 7.96826 23.1131 8.82921 23.4756C10.2296 24.0655 11.9989 24.5105 13.9197 24.7862C14.1197 25.8267 14.3965 26.8259 14.7449 27.7581C14.1802 27.8496 13.7696 28.0568 13.4738 28.3079C13.136 28.5947 12.9595 28.9289 12.8687 29.1846C12.5455 30.0964 12.8036 31.0323 13.4729 31.816C13.9332 32.0696 14.4122 32.2981 14.9083 32.4992L15.005 32.3372C14.62 32.0202 14.2384 31.4844 13.9889 30.9267C13.8648 30.6493 13.7765 30.3731 13.7357 30.1232C13.6945 29.871 13.7044 29.6591 13.7606 29.5022C13.9273 29.0298 14.366 28.724 15.1144 28.6614Z" fill="#40271B"/>
<path opacity="0.7" d="M26.3393 31.9104C26.4238 31.8693 26.5078 31.824 26.5899 31.7756C28.9518 30.4573 30.9191 28.4307 32.1472 25.8856C32.1521 25.8751 32.1583 25.8653 32.1607 25.8549C32.4763 25.2016 32.7405 24.5134 32.9525 23.7933C33.6677 21.3505 33.661 18.8673 33.0561 16.5747C33.0512 16.5526 33.0469 16.5348 33.0402 16.5128C32.5811 14.8048 31.7924 13.204 30.7217 11.8043C30.6366 11.6897 30.5477 11.5776 30.4576 11.4672C28.7943 9.42341 26.5176 7.84596 23.7947 7.04682C22.8338 6.76552 21.8655 6.59638 20.9045 6.53325C20.7482 6.52038 20.5889 6.51058 20.432 6.50752C18.026 6.42662 15.6824 7.00147 13.6269 8.10397C13.5681 8.13277 13.5154 8.16402 13.4608 8.19589C11.2393 9.42403 9.36332 11.2742 8.12046 13.5932C8.0267 13.7623 7.93906 13.9376 7.85387 14.1104C7.53274 14.7741 7.26247 15.4746 7.04736 16.2051C6.64962 17.5693 6.47374 18.9482 6.50315 20.2989C6.50867 20.4656 6.51541 20.6329 6.5246 20.8002C6.72623 24.1843 8.20504 27.365 10.6117 29.698C10.7048 29.7887 10.7992 29.8782 10.8967 29.9683C12.0801 31.0512 13.4762 31.9367 15.0389 32.5514C15.2363 32.6299 15.4318 32.7028 15.6371 32.7708L15.6389 32.7714C15.8252 32.8352 16.0134 32.8946 16.2064 32.9528C19.7284 33.9842 23.3381 33.5136 26.3393 31.9104Z" fill="url(#paint0_radial_208_604)"/>
<path d="M23.7077 8.83724C10.1137 2.82514 2.32995 23.3648 11.4995 26.9245C12.9165 20.1048 16.9512 12.8611 23.7077 8.83724Z" fill="url(#paint1_linear_208_604)"/>
<defs>
<radialGradient id="paint0_radial_208_604" cx="0" cy="0" r="1" gradientUnits="userSpaceOnUse" gradientTransform="translate(15.5 16.5) rotate(-158.874) scale(20.4862 20.4859)">
<stop offset="0.4302" stop-color="#657765" stop-opacity="0"/>
<stop offset="0.821826" stop-color="#272527" stop-opacity="0.7"/>
<stop offset="1" stop-color="#151D18" stop-opacity="0.7"/>
</radialGradient>
<linearGradient id="paint1_linear_208_604" x1="9.20927" y1="11.9715" x2="17.2482" y2="18.3507" gradientUnits="userSpaceOnUse">
<stop stop-color="white"/>
<stop offset="0.897752" stop-color="white" stop-opacity="0"/>
</linearGradient>
</defs>
</svg>
