<svg width="41" height="40" viewBox="0 0 41 40" fill="none" xmlns="http://www.w3.org/2000/svg">
<rect x="0.5" width="40" height="40" rx="20" fill="white" fill-opacity="0.07"/>
<path d="M33.0222 18.8233C32.3278 11.933 27.6143 6.6771 22.1792 6.5C20.7041 6.5003 19.3973 6.53027 17.8232 6.59988L19.0041 20.0834L20.1156 33.4679C21.7887 33.329 23.1251 33.1307 24.5606 32.8631C29.8964 31.6345 33.6473 25.6145 33.0222 18.8233Z" fill="url(#paint0_linear_208_547)"/>
<path d="M30.17 18.7541C29.6042 11.6262 24.4848 6.21195 18.7628 6.67841C13.0407 7.14487 8.99284 13.3728 9.55859 20.5006C10.1937 27.7275 15.3824 33.2407 21.0351 32.6753C26.6879 32.1098 30.805 25.9809 30.17 18.7541Z" fill="url(#paint1_linear_208_547)"/>
<path d="M29.9439 19.0611C29.1702 11.6362 23.8132 6.09334 17.8238 6.59945C11.8344 7.10557 7.22234 13.5811 7.99604 21.0059C8.76975 28.4307 14.1268 33.9736 20.1161 33.4675C26.2045 32.8921 30.7176 26.4859 29.9439 19.0611Z" fill="url(#paint2_radial_208_547)"/>
<path d="M17.7321 7.31055C7.79635 9.29112 7.25561 23.8363 12.7295 29.3835C15.915 24.8554 20.6402 16.569 17.7321 7.31055Z" fill="url(#paint3_radial_208_547)"/>
<path d="M25.025 20.7045C25.6354 20.3106 25.6354 19.4178 25.025 19.024L16.2215 13.3433C15.5561 12.914 14.6794 13.3917 14.6794 14.1836L14.6794 25.5448C14.6794 26.3368 15.5561 26.8145 16.2215 26.3851L25.025 20.7045Z" fill="url(#paint4_linear_208_547)"/>
<path d="M20.9168 8.65486C10.881 2.48594 5.13466 23.5614 11.9041 27.2139C12.9502 20.2163 15.9288 12.7836 20.9168 8.65486Z" fill="url(#paint5_linear_208_547)"/>
<defs>
<linearGradient id="paint0_linear_208_547" x1="30.3061" y1="29.5933" x2="15.3295" y2="8.33639" gradientUnits="userSpaceOnUse">
<stop stop-color="#7C0D0C"/>
<stop offset="0.529064" stop-color="#C41816"/>
<stop offset="1" stop-color="#640100"/>
</linearGradient>
<linearGradient id="paint1_linear_208_547" x1="47.338" y1="-6.17146" x2="11.2527" y2="27.63" gradientUnits="userSpaceOnUse">
<stop stop-color="white"/>
<stop offset="1" stop-color="white" stop-opacity="0"/>
</linearGradient>
<radialGradient id="paint2_radial_208_547" cx="0" cy="0" r="1" gradientUnits="userSpaceOnUse" gradientTransform="translate(5.67251 19.9377) rotate(-61.7033) scale(28.7973 27.2697)">
<stop stop-color="#F42522"/>
<stop offset="1" stop-color="#AB0907"/>
</radialGradient>
<radialGradient id="paint3_radial_208_547" cx="0" cy="0" r="1" gradientUnits="userSpaceOnUse" gradientTransform="translate(-7.31478 13.6594) rotate(-35.0036) scale(28.8193 27.7741)">
<stop stop-color="#FFF369"/>
<stop offset="1" stop-color="#FFF369" stop-opacity="0"/>
</radialGradient>
<linearGradient id="paint4_linear_208_547" x1="26.3271" y1="19.8642" x2="10.7968" y2="19.8642" gradientUnits="userSpaceOnUse">
<stop stop-color="white"/>
<stop offset="1" stop-color="#A7A7A7"/>
</linearGradient>
<linearGradient id="paint5_linear_208_547" x1="-9.00737" y1="17.3725" x2="9.1524" y2="28.7034" gradientUnits="userSpaceOnUse">
<stop stop-color="white"/>
<stop offset="0.897752" stop-color="white" stop-opacity="0"/>
</linearGradient>
</defs>
</svg>
