<svg width="40" height="40" viewBox="0 0 40 40" fill="none" xmlns="http://www.w3.org/2000/svg">
<g id="DESU_logo" clip-path="url(#clip0_208_479)">
<g id="Group" filter="url(#filter0_i_208_479)">
<mask id="mask0_208_479" style="mask-type:alpha" maskUnits="userSpaceOnUse" x="0" y="0" width="40" height="40">
<g id="mask0_3875_13747">
<path id="Vector" d="M0.000118256 20C0.000118256 31.0457 8.9544 40 20.0001 40C31.0457 40 40 31.0457 40 20C40 8.95431 31.0457 0 20.0001 0C8.9544 0 0.000118256 8.95431 0.000118256 20Z" fill="#F5F5F5"/>
</g>
</mask>
<g mask="url(#mask0_208_479)">
<g id="Group_2">
<g id="Group_3" filter="url(#filter1_f_208_479)">
<mask id="mask1_208_479" style="mask-type:alpha" maskUnits="userSpaceOnUse" x="0" y="-13" width="37" height="68">
<g id="mask1_3875_13747">
<path id="Vector_2" d="M36.0547 50.7705L36.0547 -9.6669C36.0547 -11.4527 34.607 -12.9004 32.8212 -12.9004L3.23336 -12.9004C1.44756 -12.9004 -0.000118256 -11.4527 -0.000118256 -9.6669L-0.000118256 50.7705C-0.000118256 52.5563 1.44756 54.004 3.23336 54.004H32.8212C34.607 54.004 36.0547 52.5563 36.0547 50.7705Z" fill="white"/>
</g>
</mask>
<g mask="url(#mask1_208_479)">
<g id="Group_4">
<path id="Vector_3" d="M36.0547 50.7715L36.0547 -9.66593C36.0547 -11.4517 34.607 -12.8994 32.8212 -12.8994L3.23336 -12.8994C1.44756 -12.8994 -0.000118256 -11.4517 -0.000118256 -9.66593L-0.000118256 50.7715C-0.000118256 52.5573 1.44756 54.005 3.23336 54.005H32.8212C34.607 54.005 36.0547 52.5573 36.0547 50.7715Z" fill="white"/>
<g id="Group_5" filter="url(#filter2_f_208_479)">
<path id="Vector_4" d="M-24.5328 35.9562C-24.5328 49.0557 -13.5823 59.6751 -0.0740356 59.6751C13.4342 59.6751 24.3848 49.0557 24.3848 35.9562C24.3848 22.8566 13.4342 12.2373 -0.0740356 12.2373C-13.5823 12.2373 -24.5328 22.8566 -24.5328 35.9562Z" fill="#34E1EC"/>
</g>
<g id="Group_6" filter="url(#filter3_f_208_479)">
<path id="Vector_5" d="M-29.383 1.08731C-29.383 12.569 -18.4439 21.8768 -4.9498 21.8768C8.54428 21.8768 19.4834 12.569 19.4834 1.08731C19.4834 -10.3944 8.54428 -19.7021 -4.9498 -19.7021C-18.4439 -19.7021 -29.383 -10.3944 -29.383 1.08731Z" fill="#7CA1FF"/>
</g>
<g id="Group_7" filter="url(#filter4_f_208_479)">
<path id="Vector_6" d="M26.6258 68.0682C15.4843 65.8817 17.2369 55.6859 19.9164 44.8815C-12.4659 15.7859 27.2824 -5.57448 38.4238 -3.38812C49.5652 -1.20175 79.1122 22.5756 76.4328 33.3801C73.7534 44.1845 37.7672 70.2546 26.6258 68.0682Z" fill="#680AC6"/>
</g>
<g id="Group_8" filter="url(#filter5_f_208_479)">
<path id="Vector_7" d="M11.1697 7.22753C11.1697 24.8154 25.8722 39.0732 44.0087 39.0732C62.1451 39.0732 76.8477 24.8154 76.8477 7.22753C76.8477 -10.3604 62.1451 -24.6182 44.0087 -24.6182C25.8722 -24.6182 11.1697 -10.3604 11.1697 7.22753Z" fill="#42E8FF"/>
</g>
</g>
</g>
</g>
<mask id="mask2_208_479" style="mask-type:alpha" maskUnits="userSpaceOnUse" x="0" y="-22" width="40" height="84">
<g id="mask2_3875_13747">
<path id="Vector_8" d="M40 58.4381L40 -18.4296C40 -20.2154 38.5523 -21.6631 36.7665 -21.6631L3.28488 -21.6631C1.49908 -21.6631 0.0513992 -20.2154 0.0513992 -18.4296L0.0513992 58.4381C0.0513992 60.2239 1.49908 61.6716 3.28488 61.6716H36.7665C38.5523 61.6716 40 60.2239 40 58.4381Z" fill="white"/>
</g>
</mask>
<g mask="url(#mask2_208_479)">
<g id="Group_9">
<path id="Vector_9" d="M40 58.4381L40 -18.4296C40 -20.2154 38.5523 -21.6631 36.7665 -21.6631L3.28488 -21.6631C1.49908 -21.6631 0.051403 -20.2154 0.051403 -18.4296L0.051403 58.4381C0.051403 60.2239 1.49908 61.6716 3.28488 61.6716H36.7665C38.5523 61.6716 40 60.2239 40 58.4381Z" fill="#524FFF"/>
<g id="Group_10" filter="url(#filter6_f_208_479)">
<path id="Vector_10" d="M-32.5053 -4.24282C-32.5053 10.0585 -20.3848 21.6521 -5.43333 21.6521C9.51812 21.6521 21.6387 10.0585 21.6387 -4.24282C21.6387 -18.5442 9.51812 -30.1377 -5.43333 -30.1377C-20.3848 -30.1377 -32.5053 -18.5442 -32.5053 -4.24282Z" fill="#5730FF"/>
</g>
<g id="Group_11" filter="url(#filter7_f_208_479)">
<path id="Vector_11" d="M29.5541 79.1871C17.2093 76.4639 19.1512 63.7643 22.1201 50.3064C-13.7595 14.0656 30.2817 -12.5404 42.6263 -9.81712C54.9711 -7.09383 87.7089 22.5227 84.7401 35.9806C81.7713 49.4382 41.8987 81.9105 29.5541 79.1871Z" fill="#B815F1"/>
</g>
<g id="Group_12" filter="url(#filter8_f_208_479)">
<path id="Vector_12" d="M11.4277 1.9039C11.4277 22.9434 27.9353 39.9992 48.2983 39.9992C68.6614 39.9992 85.1689 22.9434 85.1689 1.9039C85.1689 -19.1356 68.6614 -36.1914 48.2983 -36.1914C27.9353 -36.1914 11.4277 -19.1356 11.4277 1.9039Z" fill="#7A15E0"/>
</g>
<g id="Group_13" filter="url(#filter9_f_208_479)">
<path id="Vector_13" d="M22.4651 5.10372C22.4651 14.9096 30.1706 22.8588 39.6759 22.8588C49.1812 22.8588 56.8867 14.9096 56.8867 5.10372C56.8867 -4.70214 49.1812 -12.6514 39.6759 -12.6514C30.1706 -12.6514 22.4651 -4.70214 22.4651 5.10372Z" fill="#6C2AF8"/>
</g>
<g id="Group_14" filter="url(#filter10_f_208_479)">
<path id="Vector_14" d="M21.2651 -4.55971C21.2651 7.42004 30.1734 17.1315 41.1623 17.1315C52.1513 17.1315 61.0596 7.42004 61.0596 -4.55971C61.0596 -16.5395 52.1513 -26.251 41.1623 -26.251C30.1734 -26.251 21.2651 -16.5395 21.2651 -4.55971Z" fill="#5BF5FF" fill-opacity="0.5"/>
</g>
<g id="Group_15" filter="url(#filter11_f_208_479)">
<path id="Vector_15" d="M-17.4292 44.1903C-17.4292 56.17 -8.52095 65.8815 2.46799 65.8815C13.4569 65.8815 22.3652 56.17 22.3652 44.1903C22.3652 32.2105 13.4569 22.499 2.46799 22.499C-8.52095 22.499 -17.4292 32.2105 -17.4292 44.1903Z" fill="#5BF5FF" fill-opacity="0.4"/>
</g>
<g id="Group_16" opacity="0.4" filter="url(#filter12_f_208_479)">
<path id="Vector_16" opacity="0.4" d="M10.5456 2.40799C9.55381 5.11846 15.8449 9.9119 24.5972 13.1144C33.3495 16.317 41.2486 16.7159 42.2404 14.0054C43.2321 11.2949 36.941 6.50149 28.1888 3.29895C19.4365 0.0964102 11.5374 -0.302487 10.5456 2.40799Z" fill="white"/>
</g>
</g>
<g id="Group_17" filter="url(#filter13_f_208_479)">
<path id="Vector_17" d="M31.3835 -0.000976562H8.2767C5.08632 -0.000976562 2.5 2.58534 2.5 5.77573C2.5 8.96612 5.08632 11.5524 8.2767 11.5524H31.3835C34.5739 11.5524 37.1602 8.96612 37.1602 5.77573C37.1602 2.58534 34.5739 -0.000976562 31.3835 -0.000976562Z" fill="#EED1FF" fill-opacity="0.4"/>
</g>
</g>
</g>
</g>
</g>
<g id="Group_18" filter="url(#filter14_i_208_479)">
<path id="Vector_18" d="M15.3513 29.3039C15.0234 30.1957 16.0467 30.9735 16.8149 30.4163L27.4467 22.7028C28.0355 22.2757 27.9555 21.3731 27.3009 21.0565L21.8647 18.4271C21.4193 18.2117 21.2101 17.6926 21.3809 17.2275L23.3989 11.7375C23.7267 10.8455 22.7035 10.0678 21.9353 10.625L11.3035 18.3384C10.7147 18.7656 10.7946 19.6683 11.4492 19.9849L16.8856 22.6142C17.3308 22.8297 17.5401 23.3488 17.3692 23.8138L15.3513 29.3039Z" fill="white"/>
<path id="Vector_19" d="M15.0131 29.1784C14.5624 30.4049 15.9694 31.4744 17.0256 30.708L27.6574 22.9948C28.467 22.4073 28.3572 21.1662 27.4572 20.7309L22.0208 18.1014C21.7424 17.9668 21.6116 17.6424 21.7184 17.3517L23.7364 11.8617C24.1872 10.6353 22.7802 9.56584 21.724 10.3321L11.0921 18.0455C10.2826 18.6328 10.3924 19.874 11.2924 20.3094L16.7288 22.9388C17.0071 23.0733 17.1379 23.3978 17.0311 23.6885L15.0131 29.1784Z" stroke="url(#paint0_linear_208_479)" stroke-opacity="0.29" stroke-width="0.359999"/>
</g>
</g>
<defs>
<filter id="filter0_i_208_479" x="0" y="-2.49999" width="41.25" height="42.5" filterUnits="userSpaceOnUse" color-interpolation-filters="sRGB">
<feFlood flood-opacity="0" result="BackgroundImageFix"/>
<feBlend mode="normal" in="SourceGraphic" in2="BackgroundImageFix" result="shape"/>
<feColorMatrix in="SourceAlpha" type="matrix" values="0 0 0 0 0 0 0 0 0 0 0 0 0 0 0 0 0 0 127 0" result="hardAlpha"/>
<feOffset dx="1.25" dy="-2.49999"/>
<feGaussianBlur stdDeviation="1.5625"/>
<feComposite in2="hardAlpha" operator="arithmetic" k2="-1" k3="1"/>
<feColorMatrix type="matrix" values="0 0 0 0 0 0 0 0 0 0 0 0 0 0 0 0 0 0 0.2 0"/>
<feBlend mode="normal" in2="shape" result="effect1_innerShadow_208_479"/>
</filter>
<filter id="filter1_f_208_479" x="-5.98194" y="-18.8823" width="48.0186" height="78.8682" filterUnits="userSpaceOnUse" color-interpolation-filters="sRGB">
<feFlood flood-opacity="0" result="BackgroundImageFix"/>
<feBlend mode="normal" in="SourceGraphic" in2="BackgroundImageFix" result="shape"/>
<feGaussianBlur stdDeviation="2.99097" result="effect1_foregroundBlur_208_479"/>
</filter>
<filter id="filter2_f_208_479" x="-32.8594" y="3.91111" width="65.5704" height="64.0899" filterUnits="userSpaceOnUse" color-interpolation-filters="sRGB">
<feFlood flood-opacity="0" result="BackgroundImageFix"/>
<feBlend mode="normal" in="SourceGraphic" in2="BackgroundImageFix" result="shape"/>
<feGaussianBlur stdDeviation="4.1631" result="effect1_foregroundBlur_208_479"/>
</filter>
<filter id="filter3_f_208_479" x="-42.3167" y="-32.636" width="74.734" height="67.4469" filterUnits="userSpaceOnUse" color-interpolation-filters="sRGB">
<feFlood flood-opacity="0" result="BackgroundImageFix"/>
<feBlend mode="normal" in="SourceGraphic" in2="BackgroundImageFix" result="shape"/>
<feGaussianBlur stdDeviation="6.46695" result="effect1_foregroundBlur_208_479"/>
</filter>
<filter id="filter4_f_208_479" x="-0.85745" y="-11.8682" width="85.7872" height="88.3917" filterUnits="userSpaceOnUse" color-interpolation-filters="sRGB">
<feFlood flood-opacity="0" result="BackgroundImageFix"/>
<feBlend mode="normal" in="SourceGraphic" in2="BackgroundImageFix" result="shape"/>
<feGaussianBlur stdDeviation="4.1631" result="effect1_foregroundBlur_208_479"/>
</filter>
<filter id="filter5_f_208_479" x="2.84372" y="-32.9444" width="82.3301" height="80.3438" filterUnits="userSpaceOnUse" color-interpolation-filters="sRGB">
<feFlood flood-opacity="0" result="BackgroundImageFix"/>
<feBlend mode="normal" in="SourceGraphic" in2="BackgroundImageFix" result="shape"/>
<feGaussianBlur stdDeviation="4.1631" result="effect1_foregroundBlur_208_479"/>
</filter>
<filter id="filter6_f_208_479" x="-45.4388" y="-43.0716" width="80.0114" height="77.6578" filterUnits="userSpaceOnUse" color-interpolation-filters="sRGB">
<feFlood flood-opacity="0" result="BackgroundImageFix"/>
<feBlend mode="normal" in="SourceGraphic" in2="BackgroundImageFix" result="shape"/>
<feGaussianBlur stdDeviation="6.46695" result="effect1_foregroundBlur_208_479"/>
</filter>
<filter id="filter7_f_208_479" x="0.00192547" y="-18.335" width="93.254" height="106.01" filterUnits="userSpaceOnUse" color-interpolation-filters="sRGB">
<feFlood flood-opacity="0" result="BackgroundImageFix"/>
<feBlend mode="normal" in="SourceGraphic" in2="BackgroundImageFix" result="shape"/>
<feGaussianBlur stdDeviation="4.1631" result="effect1_foregroundBlur_208_479"/>
</filter>
<filter id="filter8_f_208_479" x="3.10153" y="-44.5176" width="90.3936" height="92.8428" filterUnits="userSpaceOnUse" color-interpolation-filters="sRGB">
<feFlood flood-opacity="0" result="BackgroundImageFix"/>
<feBlend mode="normal" in="SourceGraphic" in2="BackgroundImageFix" result="shape"/>
<feGaussianBlur stdDeviation="4.1631" result="effect1_foregroundBlur_208_479"/>
</filter>
<filter id="filter9_f_208_479" x="14.1386" y="-20.9776" width="51.0743" height="52.1622" filterUnits="userSpaceOnUse" color-interpolation-filters="sRGB">
<feFlood flood-opacity="0" result="BackgroundImageFix"/>
<feBlend mode="normal" in="SourceGraphic" in2="BackgroundImageFix" result="shape"/>
<feGaussianBlur stdDeviation="4.1631" result="effect1_foregroundBlur_208_479"/>
</filter>
<filter id="filter10_f_208_479" x="15.1515" y="-32.3642" width="52.0213" height="55.6092" filterUnits="userSpaceOnUse" color-interpolation-filters="sRGB">
<feFlood flood-opacity="0" result="BackgroundImageFix"/>
<feBlend mode="normal" in="SourceGraphic" in2="BackgroundImageFix" result="shape"/>
<feGaussianBlur stdDeviation="3.05659" result="effect1_foregroundBlur_208_479"/>
</filter>
<filter id="filter11_f_208_479" x="-23.5429" y="16.3858" width="52.0213" height="55.6092" filterUnits="userSpaceOnUse" color-interpolation-filters="sRGB">
<feFlood flood-opacity="0" result="BackgroundImageFix"/>
<feBlend mode="normal" in="SourceGraphic" in2="BackgroundImageFix" result="shape"/>
<feGaussianBlur stdDeviation="3.05659" result="effect1_foregroundBlur_208_479"/>
</filter>
<filter id="filter12_f_208_479" x="2.11618" y="-7.71682" width="48.5528" height="31.8467" filterUnits="userSpaceOnUse" color-interpolation-filters="sRGB">
<feFlood flood-opacity="0" result="BackgroundImageFix"/>
<feBlend mode="normal" in="SourceGraphic" in2="BackgroundImageFix" result="shape"/>
<feGaussianBlur stdDeviation="4.1631" result="effect1_foregroundBlur_208_479"/>
</filter>
<filter id="filter13_f_208_479" x="-6.16504" y="-8.66602" width="51.9902" height="28.8838" filterUnits="userSpaceOnUse" color-interpolation-filters="sRGB">
<feFlood flood-opacity="0" result="BackgroundImageFix"/>
<feBlend mode="normal" in="SourceGraphic" in2="BackgroundImageFix" result="shape"/>
<feGaussianBlur stdDeviation="4.33252" result="effect1_foregroundBlur_208_479"/>
</filter>
<filter id="filter14_i_208_479" x="10.3662" y="9.89355" width="18.0176" height="23.7539" filterUnits="userSpaceOnUse" color-interpolation-filters="sRGB">
<feFlood flood-opacity="0" result="BackgroundImageFix"/>
<feBlend mode="normal" in="SourceGraphic" in2="BackgroundImageFix" result="shape"/>
<feColorMatrix in="SourceAlpha" type="matrix" values="0 0 0 0 0 0 0 0 0 0 0 0 0 0 0 0 0 0 127 0" result="hardAlpha"/>
<feOffset dy="2.49999"/>
<feGaussianBlur stdDeviation="1.25"/>
<feComposite in2="hardAlpha" operator="arithmetic" k2="-1" k3="1"/>
<feColorMatrix type="matrix" values="0 0 0 0 0 0 0 0 0 0 0 0 0 0 0 0 0 0 0.25 0"/>
<feBlend mode="normal" in2="shape" result="effect1_innerShadow_208_479"/>
</filter>
<linearGradient id="paint0_linear_208_479" x1="26.6398" y1="10.3259" x2="14.2786" y2="27.7804" gradientUnits="userSpaceOnUse">
<stop stop-color="white"/>
<stop offset="0.59841" stop-color="white" stop-opacity="0"/>
</linearGradient>
<clipPath id="clip0_208_479">
<rect width="40" height="40" fill="white"/>
</clipPath>
</defs>
</svg>
