<svg width="41" height="40" viewBox="0 0 41 40" fill="none" xmlns="http://www.w3.org/2000/svg">
<rect x="0.5" width="40" height="40" rx="20" fill="white" fill-opacity="0.07"/>
<path d="M24.1827 8.39782C22.9183 7.88208 20.3445 7.03813 18.7189 6.70992C14.7453 5.81909 11.9005 7.83519 10.1395 11.3985L7.43021 18.6659C6.66257 20.7758 6.9335 23.1201 8.15269 24.9486L8.55908 25.5113C12.1715 29.9186 12.1715 29.9186 18.1771 32.1691L23.1893 33.3412C26.2598 34.0445 29.4206 32.3566 30.6398 29.3559L33.2588 22.8856C34.6134 19.5567 34.1167 15.6652 31.7235 13.0864L31.2268 12.6176C29.2852 10.8359 26.8016 9.52309 24.1827 8.39782Z" fill="url(#paint0_linear_208_609)"/>
<path d="M14.6537 23.637C12.2605 27.4816 9.37056 27.9505 8.19654 24.7154C7.02251 21.4802 8.01592 15.7132 10.4091 11.8217C12.8023 7.977 15.6019 7.69569 16.776 10.9308C17.95 14.166 17.0469 19.7923 14.6537 23.637Z" fill="url(#paint1_linear_208_609)"/>
<path d="M12.9845 12.1013C12.6684 12.8984 12.2169 13.2266 11.9459 12.8515C11.675 12.4764 11.675 11.5387 11.9911 10.7885C12.262 9.99141 12.7136 9.66321 12.9845 9.99141C13.3006 10.3665 13.3006 11.3042 12.9845 12.1013Z" fill="url(#paint2_linear_208_609)"/>
<path d="M16.5968 15.3825C16.2807 16.1796 15.8292 16.5078 15.5582 16.1327C15.2873 15.7576 15.2873 14.8199 15.6034 14.0697C15.9195 13.2727 16.371 12.9445 16.6419 13.2727C16.9129 13.6477 16.9129 14.5855 16.5968 15.3825Z" fill="url(#paint3_linear_208_609)"/>
<path d="M12.5304 18.196C12.2143 18.9931 11.7628 19.3213 11.4918 18.9462C11.2209 18.5711 11.2209 17.6334 11.537 16.8832C11.8531 16.0861 12.3046 15.7579 12.5755 16.0861C12.8465 16.4612 12.8465 17.3989 12.5304 18.196Z" fill="url(#paint4_linear_208_609)"/>
<path d="M12.8041 24.9012C12.488 25.6982 11.9913 26.0264 11.7203 25.6045C11.4494 25.1825 11.4494 24.1979 11.7655 23.4008C12.0816 22.6038 12.5783 22.2756 12.8492 22.6975C13.1201 23.0726 13.075 24.1041 12.8041 24.9012Z" fill="url(#paint5_linear_208_609)"/>
<path d="M9.19175 21.618C8.87567 22.415 8.37896 22.7432 8.10803 22.3213C7.83711 21.8993 7.83711 20.9147 8.15319 20.1176C8.46927 19.3206 8.96598 18.9924 9.23691 19.4143C9.50783 19.7894 9.46268 20.8209 9.19175 21.618Z" fill="url(#paint6_linear_208_609)"/>
<path d="M32.1299 13.9322C33.5749 15.9014 31.3623 16.4641 27.1177 15.245C22.7829 13.9791 17.6804 11.2597 15.7839 9.05605C13.7971 6.80552 16.1451 6.10223 20.9315 7.5557C25.6276 9.00917 30.6398 11.8692 32.1299 13.9322Z" fill="url(#paint7_linear_208_609)"/>
<path d="M25.0862 11.6803C25.4474 12.0554 25.0862 12.1961 24.3186 11.9616C23.5058 11.7272 22.6027 11.2114 22.2414 10.8364C21.8802 10.4613 22.2414 10.3206 23.0091 10.555C23.8219 10.7895 24.725 11.2583 25.0862 11.6803Z" fill="url(#paint8_linear_208_609)"/>
<path d="M31.9037 26.2148C30.1879 31.0441 25.1305 33.9979 20.6602 32.732C16.1898 31.4661 13.9773 26.5431 15.6931 21.7138C17.409 16.8845 22.4664 13.9307 26.9367 15.1966C31.407 16.4625 33.6196 21.3387 31.9037 26.2148Z" fill="url(#paint9_linear_208_609)"/>
<path d="M22.7808 18.5251C22.4196 19.416 21.4713 19.9317 20.6586 19.6973C19.8458 19.4629 19.4394 18.6189 19.8006 17.7281C20.1619 16.8372 21.1101 16.3215 21.9229 16.509C22.7357 16.7435 23.1421 17.6343 22.7808 18.5251Z" fill="url(#paint10_linear_208_609)"/>
<path d="M27.6117 29.7293C27.2505 30.5733 26.3474 31.089 25.5798 30.9015C24.767 30.7139 24.4057 29.87 24.767 29.0729C25.1282 28.229 26.0313 27.7132 26.8441 27.9008C27.5666 28.0883 27.9278 28.8854 27.6117 29.7293Z" fill="url(#paint11_linear_208_609)"/>
<path d="M19.1227 27.7151C18.8066 28.559 17.8583 29.0748 17.0455 28.8872C16.2328 28.6997 15.8264 27.8557 16.1424 27.0118C16.4585 26.1678 17.4068 25.6052 18.2647 25.8396C19.0324 26.0272 19.4387 26.8711 19.1227 27.7151Z" fill="url(#paint12_linear_208_609)"/>
<path d="M31.3161 20.7287C30.9548 21.5727 30.0517 22.0884 29.2389 21.9009C28.4262 21.7134 28.0649 20.8225 28.4262 19.9786C28.7874 19.1346 29.6905 18.572 30.5033 18.8064C31.3161 19.0408 31.6773 19.8848 31.3161 20.7287Z" fill="url(#paint13_linear_208_609)"/>
<defs>
<linearGradient id="paint0_linear_208_609" x1="17.0323" y1="30.7084" x2="23.8993" y2="11.6833" gradientUnits="userSpaceOnUse">
<stop stop-color="#AE1110"/>
<stop offset="0.4385" stop-color="#E60018"/>
<stop offset="0.7689" stop-color="#F56867"/>
<stop offset="1" stop-color="#EF814B"/>
</linearGradient>
<linearGradient id="paint1_linear_208_609" x1="10.0111" y1="15.534" x2="14.5116" y2="19.3476" gradientUnits="userSpaceOnUse">
<stop stop-color="#A60605"/>
<stop offset="0.3612" stop-color="#AC0A08"/>
<stop offset="0.8451" stop-color="#BD1412"/>
<stop offset="1" stop-color="#C41816"/>
</linearGradient>
<linearGradient id="paint2_linear_208_609" x1="11.5478" y1="12.003" x2="13.5202" y2="11.2029" gradientUnits="userSpaceOnUse">
<stop stop-color="white"/>
<stop offset="0.1082" stop-color="#FEF9F9"/>
<stop offset="0.2536" stop-color="#FAE9E8"/>
<stop offset="0.4202" stop-color="#F4CECC"/>
<stop offset="0.6024" stop-color="#EBA8A5"/>
<stop offset="0.7975" stop-color="#E07772"/>
<stop offset="1" stop-color="#D33D36"/>
</linearGradient>
<linearGradient id="paint3_linear_208_609" x1="15.16" y1="15.2842" x2="17.1324" y2="14.4841" gradientUnits="userSpaceOnUse">
<stop stop-color="white"/>
<stop offset="0.1082" stop-color="#FEF9F9"/>
<stop offset="0.2536" stop-color="#FAE9E8"/>
<stop offset="0.4202" stop-color="#F4CECC"/>
<stop offset="0.6024" stop-color="#EBA8A5"/>
<stop offset="0.7975" stop-color="#E07772"/>
<stop offset="1" stop-color="#D33D36"/>
</linearGradient>
<linearGradient id="paint4_linear_208_609" x1="11.0934" y1="18.0975" x2="13.0659" y2="17.2974" gradientUnits="userSpaceOnUse">
<stop stop-color="white"/>
<stop offset="0.1082" stop-color="#FEF9F9"/>
<stop offset="0.2536" stop-color="#FAE9E8"/>
<stop offset="0.4202" stop-color="#F4CECC"/>
<stop offset="0.6024" stop-color="#EBA8A5"/>
<stop offset="0.7975" stop-color="#E07772"/>
<stop offset="1" stop-color="#D33D36"/>
</linearGradient>
<linearGradient id="paint5_linear_208_609" x1="11.3191" y1="24.717" x2="13.3306" y2="23.9011" gradientUnits="userSpaceOnUse">
<stop stop-color="white"/>
<stop offset="0.1082" stop-color="#FEF9F9"/>
<stop offset="0.2536" stop-color="#FAE9E8"/>
<stop offset="0.4202" stop-color="#F4CECC"/>
<stop offset="0.6024" stop-color="#EBA8A5"/>
<stop offset="0.7975" stop-color="#E07772"/>
<stop offset="1" stop-color="#D33D36"/>
</linearGradient>
<linearGradient id="paint6_linear_208_609" x1="7.70692" y1="21.4339" x2="9.71846" y2="20.6179" gradientUnits="userSpaceOnUse">
<stop stop-color="white"/>
<stop offset="0.1082" stop-color="#FEF9F9"/>
<stop offset="0.2536" stop-color="#FAE9E8"/>
<stop offset="0.4202" stop-color="#F4CECC"/>
<stop offset="0.6024" stop-color="#EBA8A5"/>
<stop offset="0.7975" stop-color="#E07772"/>
<stop offset="1" stop-color="#D33D36"/>
</linearGradient>
<linearGradient id="paint7_linear_208_609" x1="23.2537" y1="12.6591" x2="24.7219" y2="9.62456" gradientUnits="userSpaceOnUse">
<stop stop-color="#FE533E"/>
<stop offset="0.3538" stop-color="#FD4D39"/>
<stop offset="0.8277" stop-color="#F93C2B"/>
<stop offset="1" stop-color="#F73425"/>
</linearGradient>
<linearGradient id="paint8_linear_208_609" x1="24.2082" y1="12.602" x2="25.0464" y2="11.6403" gradientUnits="userSpaceOnUse">
<stop stop-color="#D33D36"/>
<stop offset="0.0909259" stop-color="#DD6863"/>
<stop offset="0.1912" stop-color="#E6908C"/>
<stop offset="0.2974" stop-color="#EEB2AF"/>
<stop offset="0.4087" stop-color="#F4CECC"/>
<stop offset="0.5268" stop-color="#F9E4E3"/>
<stop offset="0.6549" stop-color="#FCF3F3"/>
<stop offset="0.8002" stop-color="#FEFCFC"/>
<stop offset="1" stop-color="white"/>
</linearGradient>
<linearGradient id="paint9_linear_208_609" x1="27.6171" y1="17.1178" x2="19.0935" y2="31.2493" gradientUnits="userSpaceOnUse">
<stop stop-color="#F8302B"/>
<stop offset="0.3468" stop-color="#F62A26"/>
<stop offset="0.8112" stop-color="#F11917"/>
<stop offset="1" stop-color="#EE100F"/>
</linearGradient>
<linearGradient id="paint10_linear_208_609" x1="21.0597" y1="16.5446" x2="21.5276" y2="19.694" gradientUnits="userSpaceOnUse">
<stop stop-color="#D33D36"/>
<stop offset="0.1102" stop-color="#D8534C"/>
<stop offset="0.3407" stop-color="#E58A86"/>
<stop offset="0.6697" stop-color="#F9E3E2"/>
<stop offset="0.768" stop-color="white"/>
<stop offset="1" stop-color="white"/>
</linearGradient>
<linearGradient id="paint11_linear_208_609" x1="25.9509" y1="27.9066" x2="26.3925" y2="30.8798" gradientUnits="userSpaceOnUse">
<stop stop-color="#D33D36"/>
<stop offset="0.1102" stop-color="#D8534C"/>
<stop offset="0.3407" stop-color="#E58A86"/>
<stop offset="0.6697" stop-color="#F9E3E2"/>
<stop offset="0.768" stop-color="white"/>
<stop offset="1" stop-color="white"/>
</linearGradient>
<linearGradient id="paint12_linear_208_609" x1="17.4042" y1="25.8416" x2="17.8571" y2="28.8898" gradientUnits="userSpaceOnUse">
<stop stop-color="#D33D36"/>
<stop offset="0.1102" stop-color="#D8534C"/>
<stop offset="0.3407" stop-color="#E58A86"/>
<stop offset="0.6697" stop-color="#F9E3E2"/>
<stop offset="0.768" stop-color="white"/>
<stop offset="1" stop-color="white"/>
</linearGradient>
<linearGradient id="paint13_linear_208_609" x1="29.6691" y1="18.8275" x2="30.1251" y2="21.8971" gradientUnits="userSpaceOnUse">
<stop stop-color="#D33D36"/>
<stop offset="0.1102" stop-color="#D8534C"/>
<stop offset="0.3407" stop-color="#E58A86"/>
<stop offset="0.6697" stop-color="#F9E3E2"/>
<stop offset="0.768" stop-color="white"/>
<stop offset="1" stop-color="white"/>
</linearGradient>
</defs>
</svg>
