<svg width="41" height="40" viewBox="0 0 41 40" fill="none" xmlns="http://www.w3.org/2000/svg">
<rect x="0.5" width="40" height="40" rx="20" fill="white" fill-opacity="0.07"/>
<path d="M24.7539 28.6307C25.3529 28.4704 25.7088 27.8538 25.5478 27.2549L20.6221 8.88712C20.4611 8.28817 19.8452 7.93289 19.2463 8.09325L7.08531 11.3544C6.48636 11.5154 6.13048 12.1313 6.29144 12.7302L11.2172 31.0986C11.3781 31.6976 11.994 32.0528 12.593 31.8925L24.7539 28.6307Z" fill="url(#paint0_linear_208_599)"/>
<path d="M11.7937 30.9427C11.8555 31.1724 12.0647 31.3332 12.3022 31.3328C12.3476 31.3327 12.3935 31.3267 12.4383 31.3153L24.5992 28.0535C24.7353 28.0169 24.8485 27.9302 24.9187 27.8083C24.989 27.6864 25.0078 27.5449 24.9712 27.4089L20.0449 9.04056C19.9836 8.81028 19.7739 8.65008 19.5363 8.65048C19.4904 8.65056 19.445 8.6566 19.4003 8.66861L7.2393 11.9298C6.95892 12.0048 6.79229 12.2946 6.86736 12.5744L11.7937 30.9427Z" fill="url(#paint1_linear_208_599)"/>
<path d="M22.1238 20.4355C21.3254 17.4727 17.0929 16.9922 15.0587 14.5851L15.0288 14.5521L15.0191 14.5949C14.4714 17.7005 11.0545 20.2426 11.853 23.2038C12.5231 25.681 16.055 25.7542 17.0929 23.2508C17.1 23.1369 17.2676 23.91 17.2772 24.3701C17.2368 25.7449 16.359 27.9688 15.8428 28.7244C16.5554 27.6778 20.3099 26.6649 21.4514 27.2111C20.6266 26.8161 18.8321 25.3838 18.022 24.1679C17.8293 23.8227 17.6737 23.4637 17.5488 23.0974C19.7153 24.9238 22.8053 22.9619 22.1238 20.4355Z" fill="url(#paint2_radial_208_599)"/>
<path d="M15.0852 24.3861C10.0118 24.1828 13.1174 17.7912 16.4154 18.0581C15.0779 20.0277 14.321 22.4503 15.0852 24.3861Z" fill="url(#paint3_linear_208_599)"/>
<path d="M9.64024 15.4726C9.62648 15.4476 9.60078 15.4315 9.56738 15.4405L9.07402 15.5733C9.05433 15.5787 9.04541 15.5984 9.04426 15.6217L9.10378 16.2393C9.10743 16.2787 9.12956 16.3073 9.16361 16.3269L9.3434 16.4102C9.37745 16.4298 9.42342 16.4411 9.42763 16.4566C9.43183 16.4727 9.42291 16.4924 9.38951 16.5014L8.62292 16.7086C8.59608 16.7158 8.57875 16.7033 8.57454 16.6872C8.57034 16.6711 8.59118 16.6424 8.60666 16.6209L8.75255 16.4201C8.78411 16.3771 8.77626 16.3216 8.76961 16.2715L8.40162 12.4995C8.40097 12.4709 8.40869 12.4464 8.4415 12.4374L8.68788 12.3707C8.72129 12.3617 8.74818 12.3831 8.76375 12.4136L10.3702 15.8462C10.3912 15.8981 10.4277 15.9518 10.4826 15.972L10.7137 16.0593C10.7382 16.07 10.7627 16.0807 10.7669 16.0968C10.7711 16.1129 10.7622 16.1327 10.7288 16.1417L9.76892 16.4011C9.73552 16.4101 9.71819 16.3976 9.71398 16.3815C9.70978 16.3654 9.73182 16.3421 9.7473 16.3206L9.88783 16.127C9.90867 16.0983 9.91218 16.0571 9.89181 16.0106L9.64024 15.4726ZM9.4571 15.1644C9.47678 15.159 9.4863 15.1393 9.47373 15.1196L8.88555 13.8666L8.87183 13.8702L9.00842 15.2505C9.00727 15.2738 9.02399 15.2809 9.03712 15.2773L9.4571 15.1644Z" fill="black"/>
<path d="M28.379 31.903C28.9777 32.0645 29.5941 31.7097 29.7556 31.1105L34.7038 12.7491C34.8653 12.1504 34.5106 11.534 33.9119 11.3725L21.7543 8.09795C21.1556 7.93645 20.5392 8.29063 20.3777 8.88991L15.4294 27.2519C15.2679 27.8512 15.6227 28.4669 16.2214 28.6284L28.379 31.903Z" fill="url(#paint4_linear_208_599)"/>
<path d="M28.5337 31.3268C28.5791 31.3393 28.6256 31.3453 28.6716 31.3452C28.9079 31.3451 29.1167 31.1851 29.1787 30.9559L34.1264 12.594C34.1627 12.4585 34.1442 12.3164 34.0743 12.1947C34.0044 12.073 33.891 11.9859 33.7549 11.9489L21.5979 8.67375C21.5525 8.66123 21.506 8.65528 21.46 8.6553C21.2237 8.6554 21.0149 8.81603 20.9529 9.04464L16.0046 27.4066C15.9289 27.6865 16.0956 27.9759 16.3761 28.0516L28.5337 31.3268Z" fill="url(#paint5_linear_208_599)"/>
<path d="M22.2366 13.0325C22.2371 13.0038 22.2228 12.977 22.1894 12.968L21.6957 12.8358C21.676 12.8304 21.6582 12.8429 21.6456 12.8626L21.3874 13.4267C21.3707 13.4626 21.3755 13.4984 21.3952 13.5324L21.5093 13.6947C21.5284 13.7287 21.563 13.7615 21.5589 13.777C21.5547 13.7931 21.5368 13.8057 21.5034 13.7967L20.7364 13.5917C20.7089 13.5852 20.7005 13.5655 20.7047 13.5494C20.7089 13.5333 20.7417 13.5189 20.7656 13.5082L20.9923 13.4078C21.0413 13.3863 21.0621 13.3344 21.0818 13.2878L22.6542 9.83927C22.6679 9.81419 22.687 9.79628 22.7205 9.80522L22.967 9.87137C23.0004 9.88031 23.0129 9.91253 23.0112 9.94595L22.6809 13.721C22.6731 13.7766 22.6774 13.841 22.7156 13.8858L22.872 14.0773C22.8875 14.0988 22.9031 14.1202 22.8989 14.1363C22.8947 14.1525 22.8768 14.165 22.8434 14.1561L21.883 13.8992C21.8496 13.8903 21.8406 13.8706 21.8454 13.8545C21.8495 13.8384 21.8806 13.8294 21.905 13.8186L22.124 13.7219C22.1563 13.7075 22.1801 13.6735 22.1861 13.6234L22.2366 13.0325ZM22.2322 12.6738C22.2519 12.6792 22.2698 12.6666 22.2686 12.6433L22.3874 11.2646L22.3737 11.261L21.8001 12.5242C21.7875 12.5439 21.7983 12.5582 21.8114 12.5618L22.2322 12.6738Z" fill="#EB3000"/>
<path d="M25.3986 18.7741C24.6335 15.5923 20.5001 15.6395 19.7635 18.3945C18.9379 21.4811 22.6323 23.6388 23.2107 26.872L23.2208 26.9182L23.2519 26.8837C25.3664 24.3703 29.6453 24.3459 30.4718 21.2593C31.2075 18.5042 27.6502 16.3986 25.3986 18.7741Z" fill="url(#paint6_linear_208_599)"/>
<path d="M22.7145 17.0595C18.0261 17.2959 20.9091 24.361 23.9565 24.0584C22.7165 21.882 22.0121 19.2032 22.7145 17.0595Z" fill="url(#paint7_linear_208_599)"/>
<defs>
<linearGradient id="paint0_linear_208_599" x1="14.6793" y1="33.4849" x2="17.2588" y2="9.60728" gradientUnits="userSpaceOnUse">
<stop stop-color="#C1C1C2"/>
<stop offset="0.1" stop-color="#CACACB"/>
<stop offset="0.4249" stop-color="#E0E0E1"/>
<stop offset="0.7319" stop-color="#EEEEEF"/>
<stop offset="1" stop-color="#F3F3F4"/>
</linearGradient>
<linearGradient id="paint1_linear_208_599" x1="20.2644" y1="22.4064" x2="11.4452" y2="18.5372" gradientUnits="userSpaceOnUse">
<stop stop-color="#8B8B8B"/>
<stop offset="0.1813" stop-color="#AAAAAB"/>
<stop offset="0.4042" stop-color="#CACACA"/>
<stop offset="0.6199" stop-color="#E1E1E1"/>
<stop offset="0.8228" stop-color="#EEEEEF"/>
<stop offset="1" stop-color="#F3F3F4"/>
</linearGradient>
<radialGradient id="paint2_radial_208_599" cx="0" cy="0" r="1" gradientUnits="userSpaceOnUse" gradientTransform="translate(12.5432 19.8511) rotate(-0.0958934) scale(6.23405 6.23405)">
<stop stop-color="#6F706D"/>
<stop offset="0.8291" stop-color="#050505"/>
</radialGradient>
<linearGradient id="paint3_linear_208_599" x1="11.8751" y1="27.0766" x2="14.1619" y2="19.8222" gradientUnits="userSpaceOnUse">
<stop stop-color="white"/>
<stop offset="1" stop-color="white" stop-opacity="0"/>
</linearGradient>
<linearGradient id="paint4_linear_208_599" x1="31.1205" y1="10.8217" x2="19.4898" y2="29.0962" gradientUnits="userSpaceOnUse">
<stop stop-color="white"/>
<stop offset="0.4058" stop-color="#FCFCFC"/>
<stop offset="0.7107" stop-color="#F2F2F2"/>
<stop offset="0.9824" stop-color="#E2E2E2"/>
<stop offset="1" stop-color="#E1E1E1"/>
</linearGradient>
<linearGradient id="paint5_linear_208_599" x1="19.9012" y1="16.1949" x2="31.6071" y2="26.432" gradientUnits="userSpaceOnUse">
<stop stop-color="#E1E1E1"/>
<stop offset="0.1158" stop-color="#ECECEC"/>
<stop offset="0.3159" stop-color="#FAFAFA"/>
<stop offset="0.4909" stop-color="white"/>
<stop offset="0.6975" stop-color="#FCFCFC"/>
<stop offset="0.8527" stop-color="#F2F2F2"/>
<stop offset="0.991" stop-color="#E2E2E2"/>
<stop offset="1" stop-color="#E1E1E1"/>
</linearGradient>
<linearGradient id="paint6_linear_208_599" x1="20.5" y1="21" x2="24.9586" y2="27.0021" gradientUnits="userSpaceOnUse">
<stop offset="0.390625" stop-color="#F42522"/>
<stop offset="1" stop-color="#A60605"/>
</linearGradient>
<linearGradient id="paint7_linear_208_599" x1="19.7423" y1="14.0898" x2="22.6749" y2="21.8056" gradientUnits="userSpaceOnUse">
<stop stop-color="white"/>
<stop offset="1" stop-color="white" stop-opacity="0"/>
</linearGradient>
</defs>
</svg>
