<svg width="41" height="40" viewBox="0 0 41 40" fill="none" xmlns="http://www.w3.org/2000/svg">
<rect x="0.5" width="40" height="40" rx="20" fill="white" fill-opacity="0.07"/>
<path d="M22.1484 6.50122C26.9695 12.2764 31.4845 16.8072 34.9987 20.1339C30.4619 24.3357 26.0945 28.8365 21.8489 33.5012L18.8535 33.5012L18.8543 33.4985C23.0986 28.8354 27.4646 24.3361 32 20.1356C28.5001 16.8225 24.0075 12.315 19.2086 6.5734C19.2045 6.54897 19.2004 6.52451 19.1963 6.50002C19.5353 6.49994 19.8551 6.50015 20.2625 6.50042C20.7256 6.50072 21.302 6.5011 22.1484 6.50122Z" fill="url(#paint0_linear_208_532)"/>
<path d="M34.9987 20.1338C34.9987 20.1338 26.0945 28.8364 21.8489 33.5011L18.8535 33.5011L18.8543 33.4984C23.0986 28.8353 32 20.1355 32 20.1355L34.9987 20.1338Z" fill="url(#paint1_linear_208_532)"/>
<path d="M19.1498 6.50293C23.9708 12.2781 28.4858 16.8089 32 20.1356C27.4632 24.3374 23.0958 28.8383 18.8503 33.5029C14.9244 28.7494 10.6553 24.1634 6 19.8702C9.58166 16.6171 14.1877 12.1835 19.1498 6.50293Z" fill="url(#paint2_radial_208_532)"/>
<path d="M18.374 32.9291C18.5334 33.1201 18.6921 33.3114 18.8503 33.5029C23.0959 28.8383 27.4633 24.3374 32.0001 20.1356C28.4858 16.8089 23.9709 12.2781 19.1498 6.50293C18.9789 6.69854 18.8085 6.89268 18.6385 7.08533C23.2755 12.5836 27.6048 16.9216 31.0001 20.1356C26.6496 24.1649 22.4549 28.4691 18.374 32.9291Z" fill="url(#paint3_linear_208_532)"/>
<path d="M9.54785 21.5777C13.7806 17.7153 19.2024 15.1717 25.1872 14.5829C23.3268 12.6285 21.3348 10.4225 19.2799 7.96094C14.8907 12.9856 10.8165 16.9073 7.64844 19.7848C8.28981 20.3763 8.9229 20.9741 9.54785 21.5777Z" fill="url(#paint4_linear_208_532)"/>
<defs>
<linearGradient id="paint0_linear_208_532" x1="17.3545" y1="7.33887" x2="23.5774" y2="36.4882" gradientUnits="userSpaceOnUse">
<stop offset="0.0885798" stop-color="#FB502A"/>
<stop offset="0.445705" stop-color="#D31816"/>
<stop offset="1" stop-color="#7B0201"/>
</linearGradient>
<linearGradient id="paint1_linear_208_532" x1="17.3545" y1="35.8389" x2="33.0889" y2="21.0889" gradientUnits="userSpaceOnUse">
<stop stop-color="#FB502A"/>
<stop offset="0.487143" stop-color="#D31816"/>
<stop offset="1" stop-color="#7B0201"/>
</linearGradient>
<radialGradient id="paint2_radial_208_532" cx="0" cy="0" r="1" gradientUnits="userSpaceOnUse" gradientTransform="translate(13.8171 12.9425) rotate(72.8796) scale(24.535 24.9599)">
<stop stop-color="#FB502A"/>
<stop offset="0.514629" stop-color="#D31816"/>
<stop offset="1" stop-color="#7B0201"/>
</radialGradient>
<linearGradient id="paint3_linear_208_532" x1="45.3545" y1="19.8389" x2="19.9124" y2="21.6516" gradientUnits="userSpaceOnUse">
<stop stop-color="white"/>
<stop offset="1" stop-color="white" stop-opacity="0"/>
</linearGradient>
<linearGradient id="paint4_linear_208_532" x1="52.6081" y1="-27.1305" x2="-2.79785" y2="-20.744" gradientUnits="userSpaceOnUse">
<stop stop-color="white"/>
<stop offset="1" stop-color="white" stop-opacity="0"/>
</linearGradient>
</defs>
</svg>
