<svg width="24" height="23" viewBox="0 0 24 23" fill="none" xmlns="http://www.w3.org/2000/svg">
<g filter="url(#filter0_d_426_1284)">
<path d="M3.05806 11.2185C2.07756 9.56795 1.7585 7.52305 2.18501 5.62173C3.09616 1.29065 8.14185 -0.479122 11.2848 2.42329C11.699 2.80331 12.301 2.80331 12.7152 2.42329C15.8582 -0.479122 20.9038 1.29065 21.815 5.62173C22.2415 7.52305 21.9225 9.56795 20.942 11.2185C19.2262 14.1114 16.4596 16.364 13.7608 18.4054C12.7127 19.1982 11.2874 19.1982 10.2393 18.4054C7.54045 16.364 4.77386 14.1114 3.05806 11.2185Z" fill="url(#paint0_radial_426_1284)"/>
</g>
<path fill-rule="evenodd" clip-rule="evenodd" d="M9.07818 3.3224C9.05323 2.63251 8.47378 2.09346 7.78385 2.11834C6.44387 2.16676 5.12574 2.87182 4.33297 4.14918C3.96893 4.73577 2.65908 7.11804 3.97575 10.0363C4.35036 8.57478 5.8182 4.69103 7.87411 4.61673C8.56401 4.59179 9.10306 4.01233 9.07818 3.3224Z" fill="url(#paint1_linear_426_1284)"/>
<defs>
<filter id="filter0_d_426_1284" x="0" y="1" width="24" height="22" filterUnits="userSpaceOnUse" color-interpolation-filters="sRGB">
<feFlood flood-opacity="0" result="BackgroundImageFix"/>
<feColorMatrix in="SourceAlpha" type="matrix" values="0 0 0 0 0 0 0 0 0 0 0 0 0 0 0 0 0 0 127 0" result="hardAlpha"/>
<feOffset dy="2"/>
<feGaussianBlur stdDeviation="1"/>
<feComposite in2="hardAlpha" operator="out"/>
<feColorMatrix type="matrix" values="0 0 0 0 0 0 0 0 0 0 0 0 0 0 0 0 0 0 0.25 0"/>
<feBlend mode="normal" in2="BackgroundImageFix" result="effect1_dropShadow_426_1284"/>
<feBlend mode="normal" in="SourceGraphic" in2="effect1_dropShadow_426_1284" result="shape"/>
</filter>
<radialGradient id="paint0_radial_426_1284" cx="0" cy="0" r="1" gradientUnits="userSpaceOnUse" gradientTransform="translate(12 1) rotate(90) scale(18 20)">
<stop stop-color="#FB502A"/>
<stop offset="1" stop-color="#A80D0C"/>
</radialGradient>
<linearGradient id="paint1_linear_426_1284" x1="32.1899" y1="-3.37862" x2="31.9125" y2="13.1906" gradientUnits="userSpaceOnUse">
<stop stop-color="white"/>
<stop offset="1" stop-color="white" stop-opacity="0"/>
</linearGradient>
</defs>
</svg>
